%TF.GenerationSoftware,KiCad,Pcbnew,9.0.5*%
%TF.CreationDate,2025-11-14T12:22:43-06:00*%
%TF.ProjectId,PCBEmbebidos,50434245-6d62-4656-9269-646f732e6b69,rev?*%
%TF.SameCoordinates,Original*%
%TF.FileFunction,Copper,L1,Top*%
%TF.FilePolarity,Positive*%
%FSLAX46Y46*%
G04 Gerber Fmt 4.6, Leading zero omitted, Abs format (unit mm)*
G04 Created by KiCad (PCBNEW 9.0.5) date 2025-11-14 12:22:43*
%MOMM*%
%LPD*%
G01*
G04 APERTURE LIST*
%TA.AperFunction,SMDPad,CuDef*%
%ADD10C,1.000000*%
%TD*%
%TA.AperFunction,ComponentPad*%
%ADD11O,1.600000X1.600000*%
%TD*%
%TA.AperFunction,ComponentPad*%
%ADD12C,1.348000*%
%TD*%
%TA.AperFunction,ViaPad*%
%ADD13C,0.600000*%
%TD*%
%TA.AperFunction,Conductor*%
%ADD14C,0.500000*%
%TD*%
%TA.AperFunction,Conductor*%
%ADD15C,1.500000*%
%TD*%
%TA.AperFunction,Conductor*%
%ADD16C,0.200000*%
%TD*%
G04 APERTURE END LIST*
D10*
%TO.P,REF\u002A\u002A,""*%
%TO.N,N/C*%
X39675617Y-109324383D03*
%TD*%
D11*
%TO.P,Encoder1,1,M+*%
%TO.N,/M+*%
X63525957Y-110600872D03*
%TO.P,Encoder1,2,M-*%
%TO.N,/M-*%
X66100000Y-110620000D03*
%TO.P,Encoder1,3,ENC-*%
%TO.N,/gnd*%
X68600000Y-110620000D03*
%TO.P,Encoder1,4,ENC+*%
%TO.N,/5v*%
X71140000Y-110620000D03*
%TO.P,Encoder1,5,ENCA*%
%TO.N,/enca*%
X73680000Y-110620000D03*
%TO.P,Encoder1,6,ENCB*%
%TO.N,/encb*%
X76220000Y-110620000D03*
%TD*%
D10*
%TO.P,,""*%
%TO.N,N/C*%
X92285255Y-33477705D03*
%TD*%
D11*
%TO.P,battery1,1,bat+*%
%TO.N,/7.4v*%
X86040000Y-98120000D03*
%TO.P,battery1,2,bat-*%
%TO.N,/gnd*%
X83500000Y-98120000D03*
%TD*%
%TO.P,stm1,1,GND*%
%TO.N,/gnd*%
X42657866Y-61670840D03*
%TO.P,stm1,2,VIN*%
%TO.N,/5v*%
X42657866Y-64210840D03*
%TO.P,stm1,3,na*%
%TO.N,unconnected-(stm1-na-Pad3)*%
X42657866Y-69290840D03*
%TO.P,stm1,4,na*%
%TO.N,unconnected-(stm1-na-Pad4)*%
X42638738Y-71864883D03*
%TO.P,stm1,5,na*%
%TO.N,unconnected-(stm1-na-Pad5)*%
X42638738Y-74364883D03*
%TO.P,stm1,6,na*%
%TO.N,unconnected-(stm1-na-Pad6)*%
X42638738Y-76904883D03*
%TO.P,stm1,7,na*%
%TO.N,unconnected-(stm1-na-Pad7)*%
X42638738Y-79444883D03*
%TO.P,stm1,8,na*%
%TO.N,unconnected-(stm1-na-Pad8)*%
X42638738Y-81984883D03*
%TO.P,stm1,9,na*%
%TO.N,unconnected-(stm1-na-Pad9)*%
X42638738Y-84524883D03*
%TO.P,stm1,10,na*%
%TO.N,unconnected-(stm1-na-Pad10)*%
X42638738Y-87064883D03*
%TO.P,stm1,11,na*%
%TO.N,unconnected-(stm1-na-Pad11)*%
X42638738Y-89604883D03*
%TO.P,stm1,12,na*%
%TO.N,unconnected-(stm1-na-Pad12)*%
X42638738Y-92144883D03*
%TO.P,stm1,13,na*%
%TO.N,unconnected-(stm1-na-Pad13)*%
X42638738Y-94684883D03*
%TO.P,stm1,14,na*%
%TO.N,unconnected-(stm1-na-Pad14)*%
X42638738Y-97224883D03*
%TO.P,stm1,15,na*%
%TO.N,/servo*%
X45158190Y-97184055D03*
%TO.P,stm1,16,CAN*%
%TO.N,/crxaldearriba*%
X42638738Y-99764883D03*
%TO.P,stm1,17,ESC*%
%TO.N,unconnected-(stm1-ESC-Pad17)*%
X45158190Y-99724055D03*
%TO.P,stm1,18,CAN*%
%TO.N,/ctxabajo*%
X42638738Y-102304883D03*
%TO.P,stm1,19,SERVO*%
%TO.N,/RECSalESC*%
X45158190Y-102264055D03*
%TO.P,stm1,20,na*%
%TO.N,unconnected-(stm1-na-Pad20)*%
X42638738Y-104844883D03*
%TO.P,stm1,21,na*%
%TO.N,unconnected-(stm1-na-Pad21)*%
X45158190Y-104804055D03*
%TO.P,stm1,S1*%
%TO.N,N/C*%
X90801262Y-69290352D03*
%TO.P,stm1,S2*%
X90782134Y-81984395D03*
%TO.P,stm1,S3*%
X90782134Y-92144395D03*
%TO.P,stm1,S4*%
X90782134Y-104844395D03*
%TD*%
%TO.P,tja1,1,VCC*%
%TO.N,/5v*%
X83276991Y-69909861D03*
%TO.P,tja1,2,GND*%
%TO.N,/gnd*%
X83296119Y-67335818D03*
%TO.P,tja1,3,TXD*%
%TO.N,/ctxabajo*%
X83296119Y-64835818D03*
%TO.P,tja1,4,RXD*%
%TO.N,/crxaldearriba*%
X83296119Y-62295818D03*
%TO.P,tja1,5,CANH*%
%TO.N,/CANH*%
X83296119Y-59755818D03*
%TO.P,tja1,6,CANL*%
%TO.N,/CANL*%
X83296119Y-57215818D03*
%TO.P,tja1,7,S*%
%TO.N,unconnected-(tja1-S-Pad7)*%
X83296119Y-54675818D03*
%TO.P,tja1,8,VIO*%
%TO.N,unconnected-(tja1-VIO-Pad8)*%
X83296119Y-52135818D03*
%TD*%
%TO.P,mpu1,1,VCC*%
%TO.N,/5v*%
X37220000Y-55120000D03*
%TO.P,mpu1,2,GND*%
%TO.N,/gnd*%
X37239128Y-52545957D03*
%TO.P,mpu1,3,SCL/SCLK*%
%TO.N,/sclMPU*%
X37239128Y-50045957D03*
%TO.P,mpu1,4,SDA/MOSI*%
%TO.N,/sdaMPU*%
X37239128Y-47505957D03*
%TO.P,mpu1,5,AUX_DA*%
%TO.N,unconnected-(mpu1-AUX_DA-Pad5)*%
X37239128Y-44965957D03*
%TO.P,mpu1,6,AUX_CL*%
%TO.N,unconnected-(mpu1-AUX_CL-Pad6)*%
X37239128Y-42425957D03*
%TO.P,mpu1,7,AD0/MISO*%
%TO.N,unconnected-(mpu1-AD0{slash}MISO-Pad7)*%
X37239128Y-39885957D03*
%TO.P,mpu1,8,INT*%
%TO.N,unconnected-(mpu1-INT-Pad8)*%
X37239128Y-37345957D03*
%TO.P,mpu1,9,NCS*%
%TO.N,unconnected-(mpu1-NCS-Pad9)*%
X37239128Y-34805957D03*
%TO.P,mpu1,10,FSYNC*%
%TO.N,unconnected-(mpu1-FSYNC-Pad10)*%
X37239128Y-32265957D03*
%TD*%
%TO.P,Servo1,1,S*%
%TO.N,/servo*%
X94413682Y-79065246D03*
%TO.P,Servo1,2,VI*%
%TO.N,/5v*%
X94413682Y-76525246D03*
%TO.P,Servo1,3,GND*%
%TO.N,/gnd*%
X94413682Y-73985246D03*
%TD*%
%TO.P,ESC2,1,ESC+*%
%TO.N,/7.4v*%
X86000000Y-108000000D03*
%TO.P,ESC2,2,ESC-*%
%TO.N,/gnd*%
X83460000Y-108000000D03*
%TO.P,ESC2,3,REC-*%
X56000000Y-102000000D03*
X56000000Y-102000000D03*
%TO.P,ESC2,4,REC+*%
%TO.N,unconnected-(ESC2-REC+-Pad4)*%
X53460000Y-102000000D03*
X53460000Y-102000000D03*
%TO.P,ESC2,5,RECS*%
%TO.N,/RECSalESC*%
X50920000Y-102000000D03*
%TO.P,ESC2,6,M-*%
%TO.N,/M-*%
X61000000Y-102000000D03*
%TO.P,ESC2,7,M+*%
%TO.N,/M+*%
X58460000Y-102000000D03*
%TD*%
%TO.P,Regulador1,1,VO*%
%TO.N,/5v*%
X87456433Y-87906776D03*
%TO.P,Regulador1,2,GND*%
%TO.N,/gnd*%
X89996433Y-87906776D03*
%TO.P,Regulador1,3,VI*%
%TO.N,/9v*%
X92536433Y-87906776D03*
%TD*%
%TO.P,bat1,1,bat+*%
%TO.N,/9v*%
X94422198Y-85111555D03*
%TO.P,bat1,2,bat-*%
%TO.N,/gnd*%
X94422198Y-82571555D03*
%TD*%
D12*
%TO.P,U1,0,GPIO0*%
%TO.N,/enca*%
X56840000Y-90240000D03*
%TO.P,U1,1,GPIO1*%
%TO.N,/encb*%
X59380000Y-90240000D03*
%TO.P,U1,2,GPIO2*%
%TO.N,/can0_int*%
X61920000Y-90240000D03*
%TO.P,U1,3,GPIO3*%
%TO.N,unconnected-(U1-GPIO3-Pad3)*%
X64460000Y-90240000D03*
%TO.P,U1,3.3,3V3*%
%TO.N,/3.3v*%
X69540000Y-90240000D03*
%TO.P,U1,4,GPIO4*%
%TO.N,/cs4*%
X67000000Y-90240000D03*
%TO.P,U1,5,GPIO5*%
%TO.N,unconnected-(U1-GPIO5-Pad5)*%
X74620000Y-75000000D03*
%TO.P,U1,5V,5V*%
%TO.N,/5v*%
X74620000Y-90240000D03*
%TO.P,U1,6,GPIO6*%
%TO.N,/sdaMPU*%
X72080000Y-75000000D03*
%TO.P,U1,7,GPIO7*%
%TO.N,/sclMPU*%
X69540000Y-75000000D03*
%TO.P,U1,8,GPIO8*%
%TO.N,/8sck*%
X67000000Y-75000000D03*
%TO.P,U1,9,GPIO9*%
%TO.N,/9so*%
X64460000Y-75000000D03*
%TO.P,U1,10,GPIO10*%
%TO.N,/10si*%
X61920000Y-75000000D03*
%TO.P,U1,20,GPIO20*%
%TO.N,unconnected-(U1-GPIO20-Pad20)*%
X59380000Y-75000000D03*
%TO.P,U1,21,GPIO21*%
%TO.N,unconnected-(U1-GPIO21-Pad21)*%
X56840000Y-75000000D03*
%TO.P,U1,G,GND*%
%TO.N,/gnd*%
X72080000Y-90240000D03*
%TD*%
D11*
%TO.P,MCP1,1,~{INT}*%
%TO.N,/can0_int*%
X59160445Y-69740827D03*
%TO.P,MCP1,2,SCK*%
%TO.N,/8sck*%
X61734488Y-69759955D03*
%TO.P,MCP1,3,SI*%
%TO.N,/10si*%
X64234488Y-69759955D03*
%TO.P,MCP1,4,SO*%
%TO.N,/9so*%
X66774488Y-69759955D03*
%TO.P,MCP1,5,~{CS}*%
%TO.N,/cs4*%
X69314488Y-69759955D03*
%TO.P,MCP1,6,GND*%
%TO.N,/gnd*%
X71854488Y-69759955D03*
%TO.P,MCP1,7,VCC*%
%TO.N,/3.3v*%
X74394488Y-69759955D03*
%TO.P,MCP1,8,CANH*%
%TO.N,/CANH*%
X65289387Y-41399888D03*
%TO.P,MCP1,9,CANL*%
%TO.N,/CANL*%
X67829387Y-41399888D03*
%TD*%
D13*
%TO.N,/can0_int*%
X62000000Y-83000000D03*
%TO.N,/sdaMPU*%
X52000000Y-77060662D03*
%TO.N,/sclMPU*%
X51000000Y-70000000D03*
%TO.N,/ctxabajo*%
X76000000Y-67000000D03*
%TO.N,/servo*%
X72000000Y-97000000D03*
X52000000Y-97000000D03*
%TD*%
D14*
%TO.N,/can0_int*%
X59160445Y-69740827D02*
X60631337Y-71211719D01*
X60631337Y-71211719D02*
X60631337Y-81631337D01*
X60631337Y-81631337D02*
X62000000Y-83000000D01*
%TO.N,/cs4*%
X68292185Y-70782258D02*
X68292185Y-79707815D01*
X69314488Y-69759955D02*
X68292185Y-70782258D01*
X68292185Y-79707815D02*
X67000000Y-81000000D01*
X67000000Y-81000000D02*
X67000000Y-90240000D01*
%TO.N,/sdaMPU*%
X52000000Y-77060662D02*
X52000000Y-62266829D01*
X52000000Y-62266829D02*
X37239128Y-47505957D01*
%TO.N,/sclMPU*%
X37239128Y-50045957D02*
X38787764Y-50045957D01*
X38787764Y-50045957D02*
X51000000Y-62258193D01*
X51000000Y-62258193D02*
X51000000Y-70000000D01*
D15*
%TO.N,/M+*%
X63525957Y-110600872D02*
X61600872Y-110600872D01*
X61600872Y-110600872D02*
X58460000Y-107460000D01*
X58460000Y-107460000D02*
X58460000Y-102000000D01*
%TO.N,/M-*%
X66100000Y-109100000D02*
X61000000Y-104000000D01*
X66100000Y-110620000D02*
X66100000Y-109100000D01*
X61000000Y-104000000D02*
X61000000Y-102000000D01*
D14*
%TO.N,/CANH*%
X65289387Y-41399888D02*
X65289387Y-42344638D01*
X82700567Y-59755818D02*
X83296119Y-59755818D01*
X65289387Y-42344638D02*
X82700567Y-59755818D01*
%TO.N,/crxaldearriba*%
X59704182Y-62295818D02*
X83296119Y-62295818D01*
X43968566Y-98435055D02*
X45676372Y-98435055D01*
X53000000Y-69000000D02*
X59704182Y-62295818D01*
X53000000Y-91111427D02*
X53000000Y-69000000D01*
X45676372Y-98435055D02*
X53000000Y-91111427D01*
X42638738Y-99764883D02*
X43968566Y-98435055D01*
%TO.N,/ctxabajo*%
X79164182Y-64835818D02*
X83296119Y-64835818D01*
X76000000Y-67000000D02*
X77000000Y-67000000D01*
X77000000Y-67000000D02*
X79164182Y-64835818D01*
D16*
%TO.N,/8sck*%
X66974533Y-75000000D02*
X67000000Y-75000000D01*
D14*
X61734488Y-69759955D02*
X66974533Y-75000000D01*
D15*
%TO.N,/RECSalESC*%
X45158190Y-102264055D02*
X50655945Y-102264055D01*
X50655945Y-102264055D02*
X50920000Y-102000000D01*
%TO.N,/servo*%
X72000000Y-97000000D02*
X52000000Y-97000000D01*
%TD*%
%TA.AperFunction,Conductor*%
%TO.N,/7.4v*%
G36*
X96065788Y-90018954D02*
G01*
X96146570Y-90072930D01*
X96200546Y-90153712D01*
X96219500Y-90249000D01*
X96219500Y-113370500D01*
X96200546Y-113465788D01*
X96146570Y-113546570D01*
X96065788Y-113600546D01*
X95970500Y-113619500D01*
X80249000Y-113619500D01*
X80153712Y-113600546D01*
X80072930Y-113546570D01*
X80018954Y-113465788D01*
X80000000Y-113370500D01*
X80000000Y-107897638D01*
X82159500Y-107897638D01*
X82159500Y-108102361D01*
X82191522Y-108304531D01*
X82254778Y-108499214D01*
X82254782Y-108499224D01*
X82344564Y-108675430D01*
X82347713Y-108681610D01*
X82468034Y-108847219D01*
X82612781Y-108991966D01*
X82778390Y-109112287D01*
X82960781Y-109205220D01*
X83155466Y-109268477D01*
X83226575Y-109279739D01*
X83357638Y-109300499D01*
X83357645Y-109300499D01*
X83357648Y-109300500D01*
X83357651Y-109300500D01*
X83562349Y-109300500D01*
X83562352Y-109300500D01*
X83562355Y-109300499D01*
X83562361Y-109300499D01*
X83657870Y-109285371D01*
X83764534Y-109268477D01*
X83959219Y-109205220D01*
X84141610Y-109112287D01*
X84307219Y-108991966D01*
X84451966Y-108847219D01*
X84528865Y-108741374D01*
X84600204Y-108675430D01*
X84691354Y-108641802D01*
X84788434Y-108645615D01*
X84876665Y-108686289D01*
X84931753Y-108741377D01*
X85008412Y-108846889D01*
X85153111Y-108991588D01*
X85199999Y-109025653D01*
X85200000Y-109025653D01*
X85200000Y-107934174D01*
X85500000Y-107934174D01*
X85500000Y-108065826D01*
X85534075Y-108192993D01*
X85599901Y-108307007D01*
X85692993Y-108400099D01*
X85807007Y-108465925D01*
X85934174Y-108500000D01*
X86065826Y-108500000D01*
X86192993Y-108465925D01*
X86307007Y-108400099D01*
X86400099Y-108307007D01*
X86465925Y-108192993D01*
X86500000Y-108065826D01*
X86500000Y-107934174D01*
X86465925Y-107807007D01*
X86400099Y-107692993D01*
X86307007Y-107599901D01*
X86192993Y-107534075D01*
X86065826Y-107500000D01*
X85934174Y-107500000D01*
X85807007Y-107534075D01*
X85692993Y-107599901D01*
X85599901Y-107692993D01*
X85534075Y-107807007D01*
X85500000Y-107934174D01*
X85200000Y-107934174D01*
X85200000Y-106974345D01*
X86800000Y-106974345D01*
X86800000Y-109025653D01*
X86846890Y-108991587D01*
X86870963Y-108967514D01*
X86951743Y-108913537D01*
X87047031Y-108894581D01*
X87142319Y-108913533D01*
X87223102Y-108967509D01*
X87277079Y-109048289D01*
X87287551Y-109079135D01*
X87358422Y-109343631D01*
X87471314Y-109616178D01*
X87471316Y-109616182D01*
X87471318Y-109616186D01*
X87618823Y-109871673D01*
X87798415Y-110105721D01*
X88007019Y-110314325D01*
X88241067Y-110493917D01*
X88496554Y-110641422D01*
X88769109Y-110754318D01*
X89054068Y-110830672D01*
X89273433Y-110859552D01*
X89346554Y-110869179D01*
X89346555Y-110869179D01*
X89641568Y-110869179D01*
X89690314Y-110862761D01*
X89934054Y-110830672D01*
X90219013Y-110754318D01*
X90491568Y-110641422D01*
X90747055Y-110493917D01*
X90981103Y-110314325D01*
X91189707Y-110105721D01*
X91369299Y-109871673D01*
X91516804Y-109616186D01*
X91629700Y-109343631D01*
X91706054Y-109058672D01*
X91744561Y-108766185D01*
X91744561Y-108471173D01*
X91706054Y-108178686D01*
X91629700Y-107893727D01*
X91516804Y-107621172D01*
X91369299Y-107365685D01*
X91206184Y-107153110D01*
X91189711Y-107131642D01*
X91189710Y-107131641D01*
X91189707Y-107131637D01*
X90981103Y-106923033D01*
X90981098Y-106923029D01*
X90981097Y-106923028D01*
X90747055Y-106743441D01*
X90747050Y-106743438D01*
X90507350Y-106605048D01*
X90434304Y-106540989D01*
X90391334Y-106453854D01*
X90384979Y-106356907D01*
X90416208Y-106264908D01*
X90480267Y-106191862D01*
X90567402Y-106148892D01*
X90664349Y-106142537D01*
X90670803Y-106143472D01*
X90679782Y-106144895D01*
X90679785Y-106144895D01*
X90884483Y-106144895D01*
X90884486Y-106144895D01*
X90884489Y-106144894D01*
X90884495Y-106144894D01*
X90980004Y-106129766D01*
X91086668Y-106112872D01*
X91281353Y-106049615D01*
X91463744Y-105956682D01*
X91629353Y-105836361D01*
X91774100Y-105691614D01*
X91894421Y-105526005D01*
X91987354Y-105343614D01*
X92050611Y-105148929D01*
X92082634Y-104946747D01*
X92082634Y-104742043D01*
X92082633Y-104742040D01*
X92082633Y-104742033D01*
X92050611Y-104539863D01*
X92050611Y-104539861D01*
X91987354Y-104345176D01*
X91894421Y-104162785D01*
X91774100Y-103997176D01*
X91629353Y-103852429D01*
X91463744Y-103732108D01*
X91463743Y-103732107D01*
X91463741Y-103732106D01*
X91281358Y-103639177D01*
X91281348Y-103639173D01*
X91086665Y-103575917D01*
X90884495Y-103543895D01*
X90884486Y-103543895D01*
X90679782Y-103543895D01*
X90679772Y-103543895D01*
X90477602Y-103575917D01*
X90282919Y-103639173D01*
X90282909Y-103639177D01*
X90100526Y-103732106D01*
X89934913Y-103852430D01*
X89790169Y-103997174D01*
X89669845Y-104162787D01*
X89576916Y-104345170D01*
X89576912Y-104345180D01*
X89513656Y-104539863D01*
X89481634Y-104742033D01*
X89481634Y-104946756D01*
X89513656Y-105148926D01*
X89576912Y-105343609D01*
X89576916Y-105343619D01*
X89669845Y-105526002D01*
X89669847Y-105526005D01*
X89790168Y-105691614D01*
X89934915Y-105836361D01*
X90100524Y-105956682D01*
X90100527Y-105956683D01*
X90100620Y-105956751D01*
X90166569Y-106028094D01*
X90200196Y-106119244D01*
X90196382Y-106216324D01*
X90155708Y-106304555D01*
X90084365Y-106370504D01*
X89993215Y-106404131D01*
X89921761Y-106405067D01*
X89641568Y-106368179D01*
X89641567Y-106368179D01*
X89346555Y-106368179D01*
X89346554Y-106368179D01*
X89054072Y-106406685D01*
X88769110Y-106483039D01*
X88496561Y-106595932D01*
X88496557Y-106595934D01*
X88241071Y-106743438D01*
X88241066Y-106743441D01*
X88007024Y-106923028D01*
X87798410Y-107131642D01*
X87618823Y-107365684D01*
X87618817Y-107365693D01*
X87591552Y-107412918D01*
X87527493Y-107485962D01*
X87440357Y-107528932D01*
X87343410Y-107535285D01*
X87251411Y-107504055D01*
X87178367Y-107439996D01*
X87154052Y-107401459D01*
X87111857Y-107318646D01*
X86991587Y-107153110D01*
X86846890Y-107008413D01*
X86800000Y-106974345D01*
X85200000Y-106974345D01*
X85153109Y-107008413D01*
X85008411Y-107153111D01*
X84931752Y-107258623D01*
X84860409Y-107324571D01*
X84769259Y-107358198D01*
X84672179Y-107354383D01*
X84583948Y-107313707D01*
X84528864Y-107258623D01*
X84451966Y-107152781D01*
X84307219Y-107008034D01*
X84141610Y-106887713D01*
X84141609Y-106887712D01*
X84141607Y-106887711D01*
X83959224Y-106794782D01*
X83959214Y-106794778D01*
X83764531Y-106731522D01*
X83562361Y-106699500D01*
X83562352Y-106699500D01*
X83357648Y-106699500D01*
X83357638Y-106699500D01*
X83155468Y-106731522D01*
X82960785Y-106794778D01*
X82960775Y-106794782D01*
X82778392Y-106887711D01*
X82612779Y-107008035D01*
X82468035Y-107152779D01*
X82347711Y-107318392D01*
X82254782Y-107500775D01*
X82254778Y-107500785D01*
X82191522Y-107695468D01*
X82159500Y-107897638D01*
X80000000Y-107897638D01*
X80000000Y-98017638D01*
X82199500Y-98017638D01*
X82199500Y-98222361D01*
X82231522Y-98424531D01*
X82294778Y-98619214D01*
X82294782Y-98619224D01*
X82384564Y-98795430D01*
X82387713Y-98801610D01*
X82508034Y-98967219D01*
X82652781Y-99111966D01*
X82818390Y-99232287D01*
X83000781Y-99325220D01*
X83195466Y-99388477D01*
X83266575Y-99399739D01*
X83397638Y-99420499D01*
X83397645Y-99420499D01*
X83397648Y-99420500D01*
X83397651Y-99420500D01*
X83602349Y-99420500D01*
X83602352Y-99420500D01*
X83602355Y-99420499D01*
X83602361Y-99420499D01*
X83697870Y-99405371D01*
X83804534Y-99388477D01*
X83999219Y-99325220D01*
X84181610Y-99232287D01*
X84347219Y-99111966D01*
X84491966Y-98967219D01*
X84568865Y-98861374D01*
X84640204Y-98795430D01*
X84731354Y-98761802D01*
X84828434Y-98765615D01*
X84916665Y-98806289D01*
X84971753Y-98861377D01*
X85048412Y-98966889D01*
X85193111Y-99111588D01*
X85239999Y-99145653D01*
X85240000Y-99145653D01*
X85240000Y-98920001D01*
X86840000Y-98920001D01*
X86840000Y-99145653D01*
X86886888Y-99111588D01*
X87031586Y-98966890D01*
X87065655Y-98920000D01*
X86840001Y-98920000D01*
X86840000Y-98920001D01*
X85240000Y-98920001D01*
X85240000Y-98054174D01*
X85540000Y-98054174D01*
X85540000Y-98185826D01*
X85574075Y-98312993D01*
X85639901Y-98427007D01*
X85732993Y-98520099D01*
X85847007Y-98585925D01*
X85974174Y-98620000D01*
X86105826Y-98620000D01*
X86232993Y-98585925D01*
X86347007Y-98520099D01*
X86440099Y-98427007D01*
X86505925Y-98312993D01*
X86540000Y-98185826D01*
X86540000Y-98054174D01*
X86505925Y-97927007D01*
X86440099Y-97812993D01*
X86347007Y-97719901D01*
X86232993Y-97654075D01*
X86105826Y-97620000D01*
X85974174Y-97620000D01*
X85847007Y-97654075D01*
X85732993Y-97719901D01*
X85639901Y-97812993D01*
X85574075Y-97927007D01*
X85540000Y-98054174D01*
X85240000Y-98054174D01*
X85240000Y-97319999D01*
X86840000Y-97319999D01*
X86840001Y-97320000D01*
X87065654Y-97320000D01*
X87031586Y-97273109D01*
X86886890Y-97128413D01*
X86840000Y-97094345D01*
X86840000Y-97319999D01*
X85240000Y-97319999D01*
X85240000Y-97094345D01*
X85193109Y-97128413D01*
X85048411Y-97273111D01*
X84971752Y-97378623D01*
X84900409Y-97444571D01*
X84809259Y-97478198D01*
X84712179Y-97474383D01*
X84623948Y-97433707D01*
X84568864Y-97378623D01*
X84491966Y-97272781D01*
X84347219Y-97128034D01*
X84181610Y-97007713D01*
X84181609Y-97007712D01*
X84181607Y-97007711D01*
X83999224Y-96914782D01*
X83999214Y-96914778D01*
X83804531Y-96851522D01*
X83602361Y-96819500D01*
X83602352Y-96819500D01*
X83397648Y-96819500D01*
X83397638Y-96819500D01*
X83195468Y-96851522D01*
X83000785Y-96914778D01*
X83000775Y-96914782D01*
X82818392Y-97007711D01*
X82652779Y-97128035D01*
X82508035Y-97272779D01*
X82387711Y-97438392D01*
X82294782Y-97620775D01*
X82294778Y-97620785D01*
X82231522Y-97815468D01*
X82199500Y-98017638D01*
X80000000Y-98017638D01*
X80000000Y-92042033D01*
X89481634Y-92042033D01*
X89481634Y-92246756D01*
X89513656Y-92448926D01*
X89576912Y-92643609D01*
X89576916Y-92643619D01*
X89669845Y-92826002D01*
X89669847Y-92826005D01*
X89790168Y-92991614D01*
X89934915Y-93136361D01*
X90100524Y-93256682D01*
X90282915Y-93349615D01*
X90477600Y-93412872D01*
X90548709Y-93424134D01*
X90679772Y-93444894D01*
X90679779Y-93444894D01*
X90679782Y-93444895D01*
X90679785Y-93444895D01*
X90884483Y-93444895D01*
X90884486Y-93444895D01*
X90884489Y-93444894D01*
X90884495Y-93444894D01*
X90980004Y-93429766D01*
X91086668Y-93412872D01*
X91281353Y-93349615D01*
X91463744Y-93256682D01*
X91629353Y-93136361D01*
X91774100Y-92991614D01*
X91894421Y-92826005D01*
X91987354Y-92643614D01*
X92050611Y-92448929D01*
X92082634Y-92246747D01*
X92082634Y-92042043D01*
X92082633Y-92042040D01*
X92082633Y-92042033D01*
X92050611Y-91839863D01*
X92050611Y-91839861D01*
X91987354Y-91645176D01*
X91894421Y-91462785D01*
X91774100Y-91297176D01*
X91629353Y-91152429D01*
X91463744Y-91032108D01*
X91463743Y-91032107D01*
X91463741Y-91032106D01*
X91281358Y-90939177D01*
X91281348Y-90939173D01*
X91086665Y-90875917D01*
X90884495Y-90843895D01*
X90884486Y-90843895D01*
X90679782Y-90843895D01*
X90679772Y-90843895D01*
X90477602Y-90875917D01*
X90282919Y-90939173D01*
X90282909Y-90939177D01*
X90100526Y-91032106D01*
X89934913Y-91152430D01*
X89790169Y-91297174D01*
X89669845Y-91462787D01*
X89576916Y-91645170D01*
X89576912Y-91645180D01*
X89513656Y-91839863D01*
X89481634Y-92042033D01*
X80000000Y-92042033D01*
X80000000Y-90249000D01*
X80018954Y-90153712D01*
X80072930Y-90072930D01*
X80153712Y-90018954D01*
X80249000Y-90000000D01*
X95970500Y-90000000D01*
X96065788Y-90018954D01*
G37*
%TD.AperFunction*%
%TD*%
%TA.AperFunction,Conductor*%
%TO.N,/5v*%
G36*
X96162539Y-29640185D02*
G01*
X96208294Y-29692989D01*
X96219500Y-29744500D01*
X96219500Y-89383031D01*
X96199815Y-89450070D01*
X96147011Y-89495825D01*
X96077853Y-89505769D01*
X96071322Y-89504651D01*
X96069115Y-89504212D01*
X95992046Y-89496622D01*
X95970500Y-89494500D01*
X80249000Y-89494500D01*
X80227453Y-89496622D01*
X80150385Y-89504212D01*
X80055091Y-89523167D01*
X80055070Y-89523172D01*
X80002672Y-89536546D01*
X80002667Y-89536548D01*
X79872873Y-89598644D01*
X79872869Y-89598647D01*
X79792087Y-89652623D01*
X79748771Y-89685050D01*
X79748767Y-89685053D01*
X79748765Y-89685054D01*
X79748764Y-89685056D01*
X79652625Y-89792086D01*
X79652620Y-89792092D01*
X79598646Y-89872869D01*
X79598643Y-89872874D01*
X79571037Y-89919401D01*
X79571036Y-89919403D01*
X79523166Y-90055095D01*
X79523166Y-90055096D01*
X79504212Y-90150383D01*
X79504212Y-90150384D01*
X79494500Y-90249002D01*
X79494500Y-113370497D01*
X79504212Y-113469114D01*
X79504647Y-113471299D01*
X79504605Y-113471763D01*
X79504658Y-113472118D01*
X79504572Y-113472130D01*
X79498425Y-113540891D01*
X79455567Y-113596072D01*
X79389679Y-113619322D01*
X79383032Y-113619500D01*
X35344500Y-113619500D01*
X35277461Y-113599815D01*
X35231706Y-113547011D01*
X35220500Y-113495500D01*
X35220500Y-109422926D01*
X38675116Y-109422926D01*
X38713564Y-109616212D01*
X38713567Y-109616222D01*
X38788981Y-109798290D01*
X38788988Y-109798303D01*
X38898477Y-109962164D01*
X38898480Y-109962168D01*
X39037831Y-110101519D01*
X39037835Y-110101522D01*
X39201696Y-110211011D01*
X39201709Y-110211018D01*
X39312866Y-110257060D01*
X39383782Y-110286434D01*
X39383786Y-110286434D01*
X39383787Y-110286435D01*
X39577073Y-110324883D01*
X39577076Y-110324883D01*
X39774160Y-110324883D01*
X39917662Y-110296338D01*
X39967452Y-110286434D01*
X40149531Y-110211015D01*
X40313399Y-110101522D01*
X40452756Y-109962165D01*
X40562249Y-109798297D01*
X40637668Y-109616218D01*
X40676117Y-109422924D01*
X40676117Y-109225842D01*
X40676117Y-109225839D01*
X40637669Y-109032553D01*
X40637668Y-109032552D01*
X40637668Y-109032548D01*
X40624842Y-109001583D01*
X40562252Y-108850475D01*
X40562245Y-108850462D01*
X40452756Y-108686601D01*
X40452753Y-108686597D01*
X40313402Y-108547246D01*
X40313398Y-108547243D01*
X40200260Y-108471646D01*
X41681652Y-108471646D01*
X41681652Y-108766673D01*
X41712579Y-109001577D01*
X41720159Y-109059153D01*
X41796320Y-109343390D01*
X41796513Y-109344111D01*
X41796516Y-109344121D01*
X41909406Y-109616660D01*
X41909410Y-109616670D01*
X42056913Y-109872153D01*
X42236504Y-110106200D01*
X42236510Y-110106207D01*
X42445104Y-110314801D01*
X42445111Y-110314807D01*
X42679158Y-110494398D01*
X42934641Y-110641901D01*
X42934642Y-110641901D01*
X42934645Y-110641903D01*
X43207200Y-110754799D01*
X43492159Y-110831153D01*
X43784646Y-110869660D01*
X43784653Y-110869660D01*
X44079651Y-110869660D01*
X44079658Y-110869660D01*
X44372145Y-110831153D01*
X44657104Y-110754799D01*
X44929659Y-110641903D01*
X45185146Y-110494398D01*
X45419194Y-110314806D01*
X45627798Y-110106202D01*
X45807390Y-109872154D01*
X45954895Y-109616667D01*
X46067791Y-109344112D01*
X46144145Y-109059153D01*
X46182652Y-108766666D01*
X46182652Y-108471654D01*
X46144145Y-108179167D01*
X46067791Y-107894208D01*
X45954895Y-107621653D01*
X45807390Y-107366166D01*
X45627798Y-107132118D01*
X45627793Y-107132112D01*
X45419199Y-106923518D01*
X45419192Y-106923512D01*
X45185145Y-106743921D01*
X44929662Y-106596418D01*
X44929652Y-106596414D01*
X44657113Y-106483524D01*
X44657106Y-106483522D01*
X44657104Y-106483521D01*
X44372145Y-106407167D01*
X44323265Y-106400731D01*
X44079665Y-106368660D01*
X44079658Y-106368660D01*
X43784646Y-106368660D01*
X43784638Y-106368660D01*
X43506237Y-106405313D01*
X43492159Y-106407167D01*
X43207200Y-106483521D01*
X43207190Y-106483524D01*
X42934651Y-106596414D01*
X42934641Y-106596418D01*
X42679158Y-106743921D01*
X42445111Y-106923512D01*
X42445104Y-106923518D01*
X42236510Y-107132112D01*
X42236504Y-107132119D01*
X42056913Y-107366166D01*
X41909410Y-107621649D01*
X41909406Y-107621659D01*
X41796516Y-107894198D01*
X41796513Y-107894208D01*
X41758692Y-108035361D01*
X41720160Y-108179164D01*
X41720158Y-108179175D01*
X41681652Y-108471646D01*
X40200260Y-108471646D01*
X40149537Y-108437754D01*
X40149524Y-108437747D01*
X39967456Y-108362333D01*
X39967446Y-108362330D01*
X39774160Y-108323883D01*
X39774158Y-108323883D01*
X39577076Y-108323883D01*
X39577074Y-108323883D01*
X39383787Y-108362330D01*
X39383777Y-108362333D01*
X39201709Y-108437747D01*
X39201696Y-108437754D01*
X39037835Y-108547243D01*
X39037831Y-108547246D01*
X38898480Y-108686597D01*
X38898477Y-108686601D01*
X38788988Y-108850462D01*
X38788981Y-108850475D01*
X38713567Y-109032543D01*
X38713564Y-109032553D01*
X38675117Y-109225839D01*
X38675117Y-109225842D01*
X38675117Y-109422924D01*
X38675117Y-109422926D01*
X38675116Y-109422926D01*
X35220500Y-109422926D01*
X35220500Y-61568488D01*
X41357366Y-61568488D01*
X41357366Y-61773191D01*
X41389388Y-61975374D01*
X41452647Y-62170063D01*
X41545581Y-62352453D01*
X41665894Y-62518053D01*
X41810652Y-62662811D01*
X41965615Y-62775396D01*
X41976256Y-62783127D01*
X42048290Y-62819830D01*
X42069495Y-62830635D01*
X42120291Y-62878610D01*
X42137086Y-62946431D01*
X42114548Y-63012566D01*
X42069495Y-63051605D01*
X41976516Y-63098980D01*
X41810971Y-63219257D01*
X41810970Y-63219257D01*
X41666283Y-63363944D01*
X41666283Y-63363945D01*
X41546006Y-63529490D01*
X41453110Y-63711810D01*
X41389875Y-63906426D01*
X41381257Y-63960840D01*
X42224854Y-63960840D01*
X42191941Y-64017847D01*
X42157866Y-64145014D01*
X42157866Y-64276666D01*
X42191941Y-64403833D01*
X42224854Y-64460840D01*
X41381257Y-64460840D01*
X41389875Y-64515253D01*
X41453110Y-64709869D01*
X41546006Y-64892189D01*
X41666283Y-65057734D01*
X41666283Y-65057735D01*
X41810970Y-65202422D01*
X41976516Y-65322699D01*
X42158834Y-65415594D01*
X42353444Y-65478828D01*
X42407866Y-65487447D01*
X42407866Y-64643852D01*
X42464873Y-64676765D01*
X42592040Y-64710840D01*
X42723692Y-64710840D01*
X42850859Y-64676765D01*
X42907866Y-64643852D01*
X42907866Y-65487446D01*
X42962287Y-65478828D01*
X43156897Y-65415594D01*
X43339215Y-65322699D01*
X43504760Y-65202422D01*
X43504761Y-65202422D01*
X43649448Y-65057735D01*
X43649448Y-65057734D01*
X43769725Y-64892189D01*
X43862621Y-64709869D01*
X43925856Y-64515253D01*
X43934475Y-64460840D01*
X43090878Y-64460840D01*
X43123791Y-64403833D01*
X43157866Y-64276666D01*
X43157866Y-64145014D01*
X43123791Y-64017847D01*
X43090878Y-63960840D01*
X43934475Y-63960840D01*
X43925856Y-63906426D01*
X43862621Y-63711810D01*
X43769725Y-63529490D01*
X43649448Y-63363945D01*
X43649448Y-63363944D01*
X43504761Y-63219257D01*
X43339215Y-63098980D01*
X43246236Y-63051605D01*
X43195440Y-63003630D01*
X43178645Y-62935809D01*
X43201182Y-62869675D01*
X43246236Y-62830635D01*
X43339476Y-62783127D01*
X43360636Y-62767753D01*
X43505079Y-62662811D01*
X43505081Y-62662808D01*
X43505085Y-62662806D01*
X43649832Y-62518059D01*
X43649834Y-62518055D01*
X43649837Y-62518053D01*
X43702598Y-62445430D01*
X43770153Y-62352450D01*
X43863086Y-62170059D01*
X43926343Y-61975374D01*
X43958366Y-61773192D01*
X43958366Y-61568488D01*
X43926343Y-61366306D01*
X43906050Y-61303852D01*
X43866956Y-61183533D01*
X43863086Y-61171621D01*
X43863084Y-61171618D01*
X43863084Y-61171616D01*
X43821803Y-61090598D01*
X43770153Y-60989230D01*
X43751320Y-60963308D01*
X43649837Y-60823626D01*
X43505079Y-60678868D01*
X43339479Y-60558555D01*
X43339478Y-60558554D01*
X43339476Y-60558553D01*
X43282519Y-60529531D01*
X43157089Y-60465621D01*
X42962400Y-60402362D01*
X42787861Y-60374718D01*
X42760218Y-60370340D01*
X42555514Y-60370340D01*
X42531195Y-60374191D01*
X42353331Y-60402362D01*
X42158642Y-60465621D01*
X41976252Y-60558555D01*
X41810652Y-60678868D01*
X41665894Y-60823626D01*
X41545581Y-60989226D01*
X41452647Y-61171616D01*
X41389388Y-61366305D01*
X41357366Y-61568488D01*
X35220500Y-61568488D01*
X35220500Y-32163605D01*
X35938628Y-32163605D01*
X35938628Y-32368308D01*
X35970650Y-32570491D01*
X36033909Y-32765180D01*
X36126843Y-32947570D01*
X36247156Y-33113170D01*
X36391914Y-33257928D01*
X36546877Y-33370513D01*
X36557518Y-33378244D01*
X36648968Y-33424840D01*
X36650208Y-33425472D01*
X36701004Y-33473447D01*
X36717799Y-33541268D01*
X36695262Y-33607403D01*
X36650208Y-33646442D01*
X36557514Y-33693672D01*
X36391914Y-33813985D01*
X36247156Y-33958743D01*
X36126843Y-34124343D01*
X36033909Y-34306733D01*
X35970650Y-34501422D01*
X35938628Y-34703605D01*
X35938628Y-34908308D01*
X35970650Y-35110491D01*
X36033909Y-35305180D01*
X36126843Y-35487570D01*
X36247156Y-35653170D01*
X36391914Y-35797928D01*
X36546877Y-35910513D01*
X36557518Y-35918244D01*
X36648968Y-35964840D01*
X36650208Y-35965472D01*
X36701004Y-36013447D01*
X36717799Y-36081268D01*
X36695262Y-36147403D01*
X36650208Y-36186442D01*
X36557514Y-36233672D01*
X36391914Y-36353985D01*
X36247156Y-36498743D01*
X36126843Y-36664343D01*
X36033909Y-36846733D01*
X35970650Y-37041422D01*
X35938628Y-37243605D01*
X35938628Y-37448308D01*
X35970650Y-37650491D01*
X36033909Y-37845180D01*
X36126843Y-38027570D01*
X36247156Y-38193170D01*
X36391914Y-38337928D01*
X36546877Y-38450513D01*
X36557518Y-38458244D01*
X36648968Y-38504840D01*
X36650208Y-38505472D01*
X36701004Y-38553447D01*
X36717799Y-38621268D01*
X36695262Y-38687403D01*
X36650208Y-38726442D01*
X36557514Y-38773672D01*
X36391914Y-38893985D01*
X36247156Y-39038743D01*
X36126843Y-39204343D01*
X36033909Y-39386733D01*
X35970650Y-39581422D01*
X35938628Y-39783605D01*
X35938628Y-39988308D01*
X35970650Y-40190491D01*
X36033909Y-40385180D01*
X36126843Y-40567570D01*
X36247156Y-40733170D01*
X36391914Y-40877928D01*
X36546877Y-40990513D01*
X36557518Y-40998244D01*
X36648968Y-41044840D01*
X36650208Y-41045472D01*
X36701004Y-41093447D01*
X36717799Y-41161268D01*
X36695262Y-41227403D01*
X36650208Y-41266442D01*
X36557514Y-41313672D01*
X36391914Y-41433985D01*
X36247156Y-41578743D01*
X36126843Y-41744343D01*
X36033909Y-41926733D01*
X35970650Y-42121422D01*
X35938628Y-42323605D01*
X35938628Y-42528308D01*
X35970650Y-42730491D01*
X36033909Y-42925180D01*
X36126843Y-43107570D01*
X36247156Y-43273170D01*
X36391914Y-43417928D01*
X36546877Y-43530513D01*
X36557518Y-43538244D01*
X36648968Y-43584840D01*
X36650208Y-43585472D01*
X36701004Y-43633447D01*
X36717799Y-43701268D01*
X36695262Y-43767403D01*
X36650208Y-43806442D01*
X36557514Y-43853672D01*
X36391914Y-43973985D01*
X36247156Y-44118743D01*
X36126843Y-44284343D01*
X36033909Y-44466733D01*
X35970650Y-44661422D01*
X35938628Y-44863605D01*
X35938628Y-45068308D01*
X35970650Y-45270491D01*
X36033909Y-45465180D01*
X36126843Y-45647570D01*
X36247156Y-45813170D01*
X36391914Y-45957928D01*
X36546877Y-46070513D01*
X36557518Y-46078244D01*
X36648968Y-46124840D01*
X36650208Y-46125472D01*
X36701004Y-46173447D01*
X36717799Y-46241268D01*
X36695262Y-46307403D01*
X36650208Y-46346442D01*
X36557514Y-46393672D01*
X36391914Y-46513985D01*
X36247156Y-46658743D01*
X36126843Y-46824343D01*
X36033909Y-47006733D01*
X35970650Y-47201422D01*
X35938628Y-47403605D01*
X35938628Y-47608308D01*
X35970650Y-47810491D01*
X36033909Y-48005180D01*
X36126843Y-48187570D01*
X36247156Y-48353170D01*
X36391914Y-48497928D01*
X36546877Y-48610513D01*
X36557518Y-48618244D01*
X36648968Y-48664840D01*
X36650208Y-48665472D01*
X36701004Y-48713447D01*
X36717799Y-48781268D01*
X36695262Y-48847403D01*
X36650208Y-48886442D01*
X36557514Y-48933672D01*
X36391914Y-49053985D01*
X36247156Y-49198743D01*
X36126843Y-49364343D01*
X36033909Y-49546733D01*
X35970650Y-49741422D01*
X35938628Y-49943605D01*
X35938628Y-50148308D01*
X35970650Y-50350491D01*
X36033909Y-50545180D01*
X36126843Y-50727570D01*
X36247156Y-50893170D01*
X36391914Y-51037928D01*
X36557516Y-51158243D01*
X36610956Y-51185473D01*
X36661751Y-51233447D01*
X36678546Y-51301269D01*
X36656008Y-51367403D01*
X36610956Y-51406441D01*
X36557516Y-51433670D01*
X36391914Y-51553985D01*
X36247156Y-51698743D01*
X36126843Y-51864343D01*
X36033909Y-52046733D01*
X35970650Y-52241422D01*
X35938628Y-52443605D01*
X35938628Y-52648308D01*
X35970650Y-52850491D01*
X36033909Y-53045180D01*
X36126843Y-53227570D01*
X36247156Y-53393170D01*
X36391914Y-53537928D01*
X36557513Y-53658241D01*
X36557515Y-53658242D01*
X36557518Y-53658244D01*
X36674600Y-53717900D01*
X36725396Y-53765874D01*
X36742191Y-53833695D01*
X36719654Y-53899830D01*
X36674600Y-53938870D01*
X36538650Y-54008140D01*
X36373105Y-54128417D01*
X36373104Y-54128417D01*
X36228417Y-54273104D01*
X36228417Y-54273105D01*
X36108140Y-54438650D01*
X36015244Y-54620970D01*
X35952009Y-54815586D01*
X35943391Y-54870000D01*
X36786988Y-54870000D01*
X36754075Y-54927007D01*
X36720000Y-55054174D01*
X36720000Y-55185826D01*
X36754075Y-55312993D01*
X36786988Y-55370000D01*
X35943391Y-55370000D01*
X35952009Y-55424413D01*
X36015244Y-55619029D01*
X36108140Y-55801349D01*
X36228417Y-55966894D01*
X36228417Y-55966895D01*
X36373104Y-56111582D01*
X36538650Y-56231859D01*
X36720968Y-56324754D01*
X36915578Y-56387988D01*
X36970000Y-56396607D01*
X36970000Y-55553012D01*
X37027007Y-55585925D01*
X37154174Y-55620000D01*
X37285826Y-55620000D01*
X37412993Y-55585925D01*
X37470000Y-55553012D01*
X37470000Y-56396606D01*
X37524421Y-56387988D01*
X37719031Y-56324754D01*
X37901349Y-56231859D01*
X38066894Y-56111582D01*
X38066895Y-56111582D01*
X38211582Y-55966895D01*
X38211582Y-55966894D01*
X38331859Y-55801349D01*
X38424755Y-55619029D01*
X38487990Y-55424413D01*
X38496609Y-55370000D01*
X37653012Y-55370000D01*
X37685925Y-55312993D01*
X37720000Y-55185826D01*
X37720000Y-55054174D01*
X37685925Y-54927007D01*
X37653012Y-54870000D01*
X38496609Y-54870000D01*
X38487990Y-54815586D01*
X38424755Y-54620970D01*
X38331859Y-54438650D01*
X38211582Y-54273105D01*
X38211582Y-54273104D01*
X38066895Y-54128417D01*
X37901349Y-54008140D01*
X37784527Y-53948616D01*
X37733731Y-53900641D01*
X37716936Y-53832820D01*
X37739474Y-53766685D01*
X37784526Y-53727647D01*
X37920738Y-53658244D01*
X38051098Y-53563533D01*
X38086341Y-53537928D01*
X38086343Y-53537925D01*
X38086347Y-53537923D01*
X38231094Y-53393176D01*
X38231096Y-53393172D01*
X38231099Y-53393170D01*
X38283860Y-53320547D01*
X38351415Y-53227567D01*
X38444348Y-53045176D01*
X38507605Y-52850491D01*
X38539628Y-52648309D01*
X38539628Y-52443605D01*
X38507605Y-52241423D01*
X38444348Y-52046738D01*
X38444346Y-52046735D01*
X38444346Y-52046733D01*
X38410631Y-51980564D01*
X38351415Y-51864347D01*
X38327393Y-51831283D01*
X38231099Y-51698743D01*
X38086341Y-51553985D01*
X37920741Y-51433672D01*
X37920740Y-51433671D01*
X37920738Y-51433670D01*
X37867299Y-51406441D01*
X37816504Y-51358467D01*
X37799709Y-51290646D01*
X37822246Y-51224511D01*
X37867300Y-51185472D01*
X37920738Y-51158244D01*
X38013718Y-51090689D01*
X38086341Y-51037928D01*
X38086343Y-51037925D01*
X38086347Y-51037923D01*
X38231094Y-50893176D01*
X38233778Y-50889481D01*
X38264228Y-50847572D01*
X38268559Y-50844231D01*
X38270833Y-50839254D01*
X38295932Y-50823123D01*
X38319557Y-50804906D01*
X38326230Y-50803652D01*
X38329611Y-50801480D01*
X38364546Y-50796457D01*
X38425534Y-50796457D01*
X38492573Y-50816142D01*
X38513215Y-50832776D01*
X50213181Y-62532742D01*
X50246666Y-62594065D01*
X50249500Y-62620423D01*
X50249500Y-69695396D01*
X50240062Y-69742844D01*
X50230263Y-69766503D01*
X50230262Y-69766506D01*
X50230260Y-69766511D01*
X50199500Y-69921153D01*
X50199500Y-70078846D01*
X50230261Y-70233489D01*
X50230264Y-70233501D01*
X50290602Y-70379172D01*
X50290609Y-70379185D01*
X50378210Y-70510288D01*
X50378213Y-70510292D01*
X50489707Y-70621786D01*
X50489711Y-70621789D01*
X50620814Y-70709390D01*
X50620827Y-70709397D01*
X50750499Y-70763108D01*
X50766503Y-70769737D01*
X50898691Y-70796031D01*
X50921153Y-70800499D01*
X50921156Y-70800500D01*
X50921158Y-70800500D01*
X51078842Y-70800500D01*
X51101308Y-70796031D01*
X51170898Y-70802257D01*
X51226076Y-70845119D01*
X51249322Y-70911008D01*
X51249500Y-70917648D01*
X51249500Y-76756058D01*
X51240062Y-76803506D01*
X51230263Y-76827165D01*
X51230262Y-76827168D01*
X51230260Y-76827173D01*
X51199500Y-76981815D01*
X51199500Y-77139508D01*
X51230261Y-77294151D01*
X51230264Y-77294163D01*
X51290602Y-77439834D01*
X51290609Y-77439847D01*
X51378210Y-77570950D01*
X51378213Y-77570954D01*
X51489707Y-77682448D01*
X51489711Y-77682451D01*
X51620814Y-77770052D01*
X51620827Y-77770059D01*
X51750499Y-77823770D01*
X51766503Y-77830399D01*
X51915447Y-77860026D01*
X51921153Y-77861161D01*
X51921156Y-77861162D01*
X51921158Y-77861162D01*
X52078842Y-77861162D01*
X52101308Y-77856693D01*
X52170898Y-77862919D01*
X52226076Y-77905781D01*
X52249322Y-77971670D01*
X52249500Y-77978310D01*
X52249500Y-90749196D01*
X52229815Y-90816235D01*
X52213181Y-90836877D01*
X46484704Y-96565353D01*
X46423381Y-96598838D01*
X46353689Y-96593854D01*
X46297756Y-96551982D01*
X46286538Y-96533967D01*
X46270474Y-96502440D01*
X46150161Y-96336841D01*
X46005403Y-96192083D01*
X45839803Y-96071770D01*
X45839802Y-96071769D01*
X45839800Y-96071768D01*
X45782843Y-96042746D01*
X45657413Y-95978836D01*
X45462724Y-95915577D01*
X45288185Y-95887933D01*
X45260542Y-95883555D01*
X45055838Y-95883555D01*
X45031519Y-95887406D01*
X44853655Y-95915577D01*
X44658966Y-95978836D01*
X44476576Y-96071770D01*
X44310976Y-96192083D01*
X44166218Y-96336841D01*
X44045903Y-96502443D01*
X43998546Y-96595386D01*
X43950572Y-96646181D01*
X43882751Y-96662976D01*
X43816616Y-96640438D01*
X43777577Y-96595384D01*
X43751024Y-96543271D01*
X43630709Y-96377669D01*
X43485951Y-96232911D01*
X43320352Y-96112598D01*
X43313744Y-96109231D01*
X43227655Y-96065366D01*
X43176861Y-96017394D01*
X43160066Y-95949573D01*
X43182603Y-95883438D01*
X43227655Y-95844399D01*
X43320348Y-95797170D01*
X43385961Y-95749500D01*
X43485951Y-95676854D01*
X43485953Y-95676851D01*
X43485957Y-95676849D01*
X43630704Y-95532102D01*
X43630706Y-95532098D01*
X43630709Y-95532096D01*
X43683470Y-95459473D01*
X43751025Y-95366493D01*
X43843958Y-95184102D01*
X43907215Y-94989417D01*
X43939238Y-94787235D01*
X43939238Y-94582531D01*
X43907215Y-94380349D01*
X43843958Y-94185664D01*
X43843956Y-94185661D01*
X43843956Y-94185659D01*
X43810241Y-94119490D01*
X43751025Y-94003273D01*
X43743294Y-93992632D01*
X43630709Y-93837669D01*
X43485951Y-93692911D01*
X43320352Y-93572598D01*
X43313744Y-93569231D01*
X43227655Y-93525366D01*
X43176861Y-93477394D01*
X43160066Y-93409573D01*
X43182603Y-93343438D01*
X43227655Y-93304399D01*
X43320348Y-93257170D01*
X43341508Y-93241796D01*
X43485951Y-93136854D01*
X43485953Y-93136851D01*
X43485957Y-93136849D01*
X43630704Y-92992102D01*
X43630706Y-92992098D01*
X43630709Y-92992096D01*
X43683470Y-92919473D01*
X43751025Y-92826493D01*
X43843958Y-92644102D01*
X43907215Y-92449417D01*
X43939238Y-92247235D01*
X43939238Y-92042531D01*
X43907215Y-91840349D01*
X43843958Y-91645664D01*
X43843956Y-91645661D01*
X43843956Y-91645659D01*
X43810241Y-91579490D01*
X43751025Y-91463273D01*
X43715590Y-91414500D01*
X43630709Y-91297669D01*
X43485951Y-91152911D01*
X43320352Y-91032598D01*
X43313744Y-91029231D01*
X43227655Y-90985366D01*
X43176861Y-90937394D01*
X43160066Y-90869573D01*
X43182603Y-90803438D01*
X43227655Y-90764399D01*
X43320348Y-90717170D01*
X43356835Y-90690661D01*
X43485951Y-90596854D01*
X43485953Y-90596851D01*
X43485957Y-90596849D01*
X43630704Y-90452102D01*
X43630706Y-90452098D01*
X43630709Y-90452096D01*
X43683470Y-90379473D01*
X43751025Y-90286493D01*
X43843958Y-90104102D01*
X43907215Y-89909417D01*
X43939238Y-89707235D01*
X43939238Y-89502531D01*
X43912467Y-89333507D01*
X43907215Y-89300348D01*
X43859018Y-89152014D01*
X43843958Y-89105664D01*
X43843956Y-89105661D01*
X43843956Y-89105659D01*
X43810241Y-89039490D01*
X43751025Y-88923273D01*
X43732923Y-88898358D01*
X43630709Y-88757669D01*
X43485951Y-88612911D01*
X43320352Y-88492598D01*
X43313744Y-88489231D01*
X43227655Y-88445366D01*
X43176861Y-88397394D01*
X43160066Y-88329573D01*
X43182603Y-88263438D01*
X43227655Y-88224399D01*
X43320348Y-88177170D01*
X43348418Y-88156776D01*
X43485951Y-88056854D01*
X43485953Y-88056851D01*
X43485957Y-88056849D01*
X43630704Y-87912102D01*
X43630706Y-87912098D01*
X43630709Y-87912096D01*
X43708936Y-87804424D01*
X43751025Y-87746493D01*
X43843958Y-87564102D01*
X43907215Y-87369417D01*
X43939238Y-87167235D01*
X43939238Y-86962531D01*
X43907215Y-86760349D01*
X43906313Y-86757574D01*
X43867716Y-86638785D01*
X43843958Y-86565664D01*
X43843956Y-86565661D01*
X43843956Y-86565659D01*
X43810241Y-86499490D01*
X43751025Y-86383273D01*
X43702712Y-86316775D01*
X43630709Y-86217669D01*
X43485951Y-86072911D01*
X43320352Y-85952598D01*
X43313744Y-85949231D01*
X43227655Y-85905366D01*
X43176861Y-85857394D01*
X43160066Y-85789573D01*
X43182603Y-85723438D01*
X43227655Y-85684399D01*
X43320348Y-85637170D01*
X43356679Y-85610774D01*
X43485951Y-85516854D01*
X43485953Y-85516851D01*
X43485957Y-85516849D01*
X43630704Y-85372102D01*
X43630706Y-85372098D01*
X43630709Y-85372096D01*
X43683470Y-85299473D01*
X43751025Y-85206493D01*
X43843958Y-85024102D01*
X43907215Y-84829417D01*
X43939238Y-84627235D01*
X43939238Y-84422531D01*
X43929266Y-84359574D01*
X43907215Y-84220348D01*
X43843956Y-84025659D01*
X43786553Y-83913001D01*
X43751025Y-83843273D01*
X43706597Y-83782122D01*
X43630709Y-83677669D01*
X43485951Y-83532911D01*
X43320352Y-83412598D01*
X43254775Y-83379185D01*
X43227655Y-83365366D01*
X43176861Y-83317394D01*
X43160066Y-83249573D01*
X43182603Y-83183438D01*
X43227655Y-83144399D01*
X43320348Y-83097170D01*
X43426519Y-83020033D01*
X43485951Y-82976854D01*
X43485953Y-82976851D01*
X43485957Y-82976849D01*
X43630704Y-82832102D01*
X43630706Y-82832098D01*
X43630709Y-82832096D01*
X43745638Y-82673907D01*
X43751025Y-82666493D01*
X43843958Y-82484102D01*
X43907215Y-82289417D01*
X43939238Y-82087235D01*
X43939238Y-81882531D01*
X43907215Y-81680349D01*
X43907056Y-81679861D01*
X43843956Y-81485659D01*
X43783157Y-81366336D01*
X43751025Y-81303273D01*
X43730155Y-81274548D01*
X43630709Y-81137669D01*
X43485951Y-80992911D01*
X43320352Y-80872598D01*
X43313744Y-80869231D01*
X43227655Y-80825366D01*
X43176861Y-80777394D01*
X43160066Y-80709573D01*
X43182603Y-80643438D01*
X43227655Y-80604399D01*
X43320348Y-80557170D01*
X43369328Y-80521584D01*
X43485951Y-80436854D01*
X43485953Y-80436851D01*
X43485957Y-80436849D01*
X43630704Y-80292102D01*
X43630706Y-80292098D01*
X43630709Y-80292096D01*
X43707625Y-80186228D01*
X43751025Y-80126493D01*
X43843958Y-79944102D01*
X43907215Y-79749417D01*
X43939238Y-79547235D01*
X43939238Y-79342531D01*
X43907215Y-79140349D01*
X43843958Y-78945664D01*
X43843956Y-78945661D01*
X43843956Y-78945659D01*
X43810241Y-78879490D01*
X43751025Y-78763273D01*
X43743294Y-78752632D01*
X43630709Y-78597669D01*
X43485951Y-78452911D01*
X43320352Y-78332598D01*
X43313744Y-78329231D01*
X43227655Y-78285366D01*
X43176861Y-78237394D01*
X43160066Y-78169573D01*
X43182603Y-78103438D01*
X43227655Y-78064399D01*
X43320348Y-78017170D01*
X43408728Y-77952959D01*
X43485951Y-77896854D01*
X43485953Y-77896851D01*
X43485957Y-77896849D01*
X43630704Y-77752102D01*
X43630706Y-77752098D01*
X43630709Y-77752096D01*
X43714252Y-77637107D01*
X43751025Y-77586493D01*
X43843958Y-77404102D01*
X43907215Y-77209417D01*
X43939238Y-77007235D01*
X43939238Y-76802531D01*
X43907215Y-76600349D01*
X43843958Y-76405664D01*
X43843956Y-76405661D01*
X43843956Y-76405659D01*
X43806553Y-76332253D01*
X43751025Y-76223273D01*
X43707754Y-76163715D01*
X43630709Y-76057669D01*
X43485951Y-75912911D01*
X43320352Y-75792598D01*
X43313744Y-75789231D01*
X43227655Y-75745366D01*
X43176861Y-75697394D01*
X43160066Y-75629573D01*
X43182603Y-75563438D01*
X43227655Y-75524399D01*
X43320348Y-75477170D01*
X43408140Y-75413386D01*
X43485951Y-75356854D01*
X43485953Y-75356851D01*
X43485957Y-75356849D01*
X43630704Y-75212102D01*
X43630706Y-75212098D01*
X43630709Y-75212096D01*
X43683470Y-75139473D01*
X43751025Y-75046493D01*
X43843958Y-74864102D01*
X43907215Y-74669417D01*
X43939238Y-74467235D01*
X43939238Y-74262531D01*
X43907215Y-74060349D01*
X43886137Y-73995479D01*
X43866559Y-73935222D01*
X43843958Y-73865664D01*
X43843956Y-73865661D01*
X43843956Y-73865659D01*
X43788650Y-73757117D01*
X43751025Y-73683273D01*
X43743294Y-73672632D01*
X43630709Y-73517669D01*
X43485951Y-73372911D01*
X43320351Y-73252598D01*
X43320350Y-73252597D01*
X43320348Y-73252596D01*
X43266909Y-73225367D01*
X43216114Y-73177393D01*
X43199319Y-73109572D01*
X43221856Y-73043437D01*
X43266910Y-73004398D01*
X43320348Y-72977170D01*
X43463781Y-72872961D01*
X43485951Y-72856854D01*
X43485953Y-72856851D01*
X43485957Y-72856849D01*
X43630704Y-72712102D01*
X43630706Y-72712098D01*
X43630709Y-72712096D01*
X43683470Y-72639473D01*
X43751025Y-72546493D01*
X43843958Y-72364102D01*
X43907215Y-72169417D01*
X43939238Y-71967235D01*
X43939238Y-71762531D01*
X43907215Y-71560349D01*
X43903069Y-71547590D01*
X43843956Y-71365659D01*
X43810241Y-71299490D01*
X43751025Y-71183273D01*
X43715520Y-71134404D01*
X43630709Y-71017669D01*
X43485951Y-70872911D01*
X43320351Y-70752598D01*
X43320350Y-70752597D01*
X43320348Y-70752596D01*
X43255747Y-70719680D01*
X43203815Y-70693219D01*
X43153019Y-70645244D01*
X43136224Y-70577423D01*
X43158762Y-70511288D01*
X43203815Y-70472249D01*
X43339476Y-70403127D01*
X43389010Y-70367138D01*
X43505079Y-70282811D01*
X43505081Y-70282808D01*
X43505085Y-70282806D01*
X43649832Y-70138059D01*
X43649834Y-70138055D01*
X43649837Y-70138053D01*
X43717180Y-70045361D01*
X43770153Y-69972450D01*
X43863086Y-69790059D01*
X43926343Y-69595374D01*
X43958366Y-69393192D01*
X43958366Y-69188488D01*
X43940921Y-69078345D01*
X43926343Y-68986305D01*
X43863084Y-68791616D01*
X43789738Y-68647668D01*
X43770153Y-68609230D01*
X43762422Y-68598589D01*
X43649837Y-68443626D01*
X43505079Y-68298868D01*
X43339479Y-68178555D01*
X43339478Y-68178554D01*
X43339476Y-68178553D01*
X43282519Y-68149531D01*
X43157089Y-68085621D01*
X42962400Y-68022362D01*
X42787861Y-67994718D01*
X42760218Y-67990340D01*
X42555514Y-67990340D01*
X42531195Y-67994191D01*
X42353331Y-68022362D01*
X42158642Y-68085621D01*
X41976252Y-68178555D01*
X41810652Y-68298868D01*
X41665894Y-68443626D01*
X41545581Y-68609226D01*
X41452647Y-68791616D01*
X41389388Y-68986305D01*
X41357366Y-69188488D01*
X41357366Y-69393191D01*
X41389388Y-69595374D01*
X41452647Y-69790063D01*
X41489458Y-69862307D01*
X41545330Y-69971962D01*
X41545581Y-69972453D01*
X41665894Y-70138053D01*
X41810652Y-70282811D01*
X41976251Y-70403124D01*
X41976253Y-70403125D01*
X41976256Y-70403127D01*
X42051695Y-70441565D01*
X42092788Y-70462503D01*
X42143584Y-70510478D01*
X42160379Y-70578299D01*
X42137842Y-70644434D01*
X42092788Y-70683473D01*
X41957124Y-70752598D01*
X41791524Y-70872911D01*
X41646766Y-71017669D01*
X41526453Y-71183269D01*
X41433519Y-71365659D01*
X41370260Y-71560348D01*
X41338238Y-71762531D01*
X41338238Y-71967234D01*
X41370260Y-72169417D01*
X41433519Y-72364106D01*
X41526453Y-72546496D01*
X41646766Y-72712096D01*
X41791524Y-72856854D01*
X41957126Y-72977169D01*
X42010566Y-73004399D01*
X42061361Y-73052373D01*
X42078156Y-73120195D01*
X42055618Y-73186329D01*
X42010566Y-73225367D01*
X41957126Y-73252596D01*
X41791524Y-73372911D01*
X41646766Y-73517669D01*
X41526453Y-73683269D01*
X41433519Y-73865659D01*
X41370260Y-74060348D01*
X41338238Y-74262531D01*
X41338238Y-74467234D01*
X41370260Y-74669417D01*
X41433519Y-74864106D01*
X41526453Y-75046496D01*
X41646766Y-75212096D01*
X41791524Y-75356854D01*
X41920900Y-75450849D01*
X41957128Y-75477170D01*
X42048578Y-75523766D01*
X42049818Y-75524398D01*
X42100614Y-75572373D01*
X42117409Y-75640194D01*
X42094872Y-75706329D01*
X42049818Y-75745368D01*
X41957124Y-75792598D01*
X41791524Y-75912911D01*
X41646766Y-76057669D01*
X41526453Y-76223269D01*
X41433519Y-76405659D01*
X41370260Y-76600348D01*
X41338238Y-76802531D01*
X41338238Y-77007234D01*
X41370260Y-77209417D01*
X41433519Y-77404106D01*
X41490955Y-77516828D01*
X41518533Y-77570954D01*
X41526453Y-77586496D01*
X41646766Y-77752096D01*
X41791524Y-77896854D01*
X41903641Y-77978310D01*
X41957128Y-78017170D01*
X42048578Y-78063766D01*
X42049818Y-78064398D01*
X42100614Y-78112373D01*
X42117409Y-78180194D01*
X42094872Y-78246329D01*
X42049818Y-78285368D01*
X41957124Y-78332598D01*
X41791524Y-78452911D01*
X41646766Y-78597669D01*
X41526453Y-78763269D01*
X41433519Y-78945659D01*
X41370260Y-79140348D01*
X41338238Y-79342531D01*
X41338238Y-79547234D01*
X41370260Y-79749417D01*
X41433519Y-79944106D01*
X41526453Y-80126496D01*
X41646766Y-80292096D01*
X41791524Y-80436854D01*
X41946487Y-80549439D01*
X41957128Y-80557170D01*
X42048578Y-80603766D01*
X42049818Y-80604398D01*
X42100614Y-80652373D01*
X42117409Y-80720194D01*
X42094872Y-80786329D01*
X42049818Y-80825368D01*
X41957124Y-80872598D01*
X41791524Y-80992911D01*
X41646766Y-81137669D01*
X41526453Y-81303269D01*
X41433519Y-81485659D01*
X41370260Y-81680348D01*
X41338238Y-81882531D01*
X41338238Y-82087234D01*
X41370260Y-82289417D01*
X41433519Y-82484106D01*
X41497429Y-82609536D01*
X41526202Y-82666005D01*
X41526453Y-82666496D01*
X41646766Y-82832096D01*
X41791524Y-82976854D01*
X41920802Y-83070778D01*
X41957128Y-83097170D01*
X42048578Y-83143766D01*
X42049818Y-83144398D01*
X42100614Y-83192373D01*
X42117409Y-83260194D01*
X42094872Y-83326329D01*
X42049818Y-83365368D01*
X41957124Y-83412598D01*
X41791524Y-83532911D01*
X41646766Y-83677669D01*
X41526453Y-83843269D01*
X41433519Y-84025659D01*
X41370260Y-84220348D01*
X41338238Y-84422531D01*
X41338238Y-84627234D01*
X41370260Y-84829417D01*
X41433519Y-85024106D01*
X41526453Y-85206496D01*
X41646766Y-85372096D01*
X41791524Y-85516854D01*
X41920802Y-85610778D01*
X41957128Y-85637170D01*
X42048578Y-85683766D01*
X42049818Y-85684398D01*
X42100614Y-85732373D01*
X42117409Y-85800194D01*
X42094872Y-85866329D01*
X42049818Y-85905368D01*
X41957124Y-85952598D01*
X41791524Y-86072911D01*
X41646766Y-86217669D01*
X41526453Y-86383269D01*
X41433519Y-86565659D01*
X41370260Y-86760348D01*
X41338238Y-86962531D01*
X41338238Y-87167234D01*
X41370260Y-87369417D01*
X41433519Y-87564106D01*
X41452951Y-87602242D01*
X41509784Y-87713783D01*
X41526453Y-87746496D01*
X41646766Y-87912096D01*
X41791524Y-88056854D01*
X41929058Y-88156776D01*
X41957128Y-88177170D01*
X42028985Y-88213783D01*
X42049818Y-88224398D01*
X42100614Y-88272373D01*
X42117409Y-88340194D01*
X42094872Y-88406329D01*
X42049818Y-88445368D01*
X41957124Y-88492598D01*
X41791524Y-88612911D01*
X41646766Y-88757669D01*
X41526453Y-88923269D01*
X41433519Y-89105659D01*
X41370260Y-89300348D01*
X41338238Y-89502531D01*
X41338238Y-89707234D01*
X41370260Y-89909417D01*
X41433519Y-90104106D01*
X41497429Y-90229536D01*
X41507348Y-90249002D01*
X41526453Y-90286496D01*
X41646766Y-90452096D01*
X41791524Y-90596854D01*
X41920641Y-90690661D01*
X41957128Y-90717170D01*
X42048578Y-90763766D01*
X42049818Y-90764398D01*
X42100614Y-90812373D01*
X42117409Y-90880194D01*
X42094872Y-90946329D01*
X42049818Y-90985368D01*
X41957124Y-91032598D01*
X41791524Y-91152911D01*
X41646766Y-91297669D01*
X41526453Y-91463269D01*
X41433519Y-91645659D01*
X41370260Y-91840348D01*
X41338238Y-92042531D01*
X41338238Y-92247234D01*
X41370260Y-92449417D01*
X41433519Y-92644106D01*
X41526453Y-92826496D01*
X41646766Y-92992096D01*
X41791524Y-93136854D01*
X41946487Y-93249439D01*
X41957128Y-93257170D01*
X42048578Y-93303766D01*
X42049818Y-93304398D01*
X42100614Y-93352373D01*
X42117409Y-93420194D01*
X42094872Y-93486329D01*
X42049818Y-93525368D01*
X41957124Y-93572598D01*
X41791524Y-93692911D01*
X41646766Y-93837669D01*
X41526453Y-94003269D01*
X41433519Y-94185659D01*
X41370260Y-94380348D01*
X41338238Y-94582531D01*
X41338238Y-94787234D01*
X41370260Y-94989417D01*
X41433519Y-95184106D01*
X41526453Y-95366496D01*
X41646766Y-95532096D01*
X41791524Y-95676854D01*
X41891515Y-95749500D01*
X41957128Y-95797170D01*
X42043377Y-95841116D01*
X42049818Y-95844398D01*
X42100614Y-95892373D01*
X42117409Y-95960194D01*
X42094872Y-96026329D01*
X42049818Y-96065368D01*
X41957124Y-96112598D01*
X41791524Y-96232911D01*
X41646766Y-96377669D01*
X41526453Y-96543269D01*
X41433519Y-96725659D01*
X41370260Y-96920348D01*
X41338238Y-97122531D01*
X41338238Y-97327234D01*
X41370260Y-97529417D01*
X41433519Y-97724106D01*
X41526453Y-97906496D01*
X41646766Y-98072096D01*
X41791524Y-98216854D01*
X41946487Y-98329439D01*
X41957128Y-98337170D01*
X42048578Y-98383766D01*
X42049818Y-98384398D01*
X42100614Y-98432373D01*
X42117409Y-98500194D01*
X42094872Y-98566329D01*
X42049818Y-98605368D01*
X41957124Y-98652598D01*
X41791524Y-98772911D01*
X41646766Y-98917669D01*
X41526453Y-99083269D01*
X41433519Y-99265659D01*
X41370260Y-99460348D01*
X41338238Y-99662531D01*
X41338238Y-99867234D01*
X41370260Y-100069417D01*
X41433519Y-100264106D01*
X41526453Y-100446496D01*
X41646766Y-100612096D01*
X41791524Y-100756854D01*
X41946487Y-100869439D01*
X41957128Y-100877170D01*
X42048578Y-100923766D01*
X42049818Y-100924398D01*
X42100614Y-100972373D01*
X42117409Y-101040194D01*
X42094872Y-101106329D01*
X42049818Y-101145368D01*
X41957124Y-101192598D01*
X41791524Y-101312911D01*
X41646766Y-101457669D01*
X41526453Y-101623269D01*
X41433519Y-101805659D01*
X41370260Y-102000348D01*
X41338238Y-102202531D01*
X41338238Y-102407234D01*
X41370260Y-102609417D01*
X41433519Y-102804106D01*
X41526453Y-102986496D01*
X41646766Y-103152096D01*
X41791524Y-103296854D01*
X41946487Y-103409439D01*
X41957128Y-103417170D01*
X42035342Y-103457022D01*
X42049818Y-103464398D01*
X42100614Y-103512373D01*
X42117409Y-103580194D01*
X42094872Y-103646329D01*
X42049818Y-103685368D01*
X41957124Y-103732598D01*
X41791524Y-103852911D01*
X41646766Y-103997669D01*
X41526453Y-104163269D01*
X41433519Y-104345659D01*
X41370260Y-104540348D01*
X41338238Y-104742531D01*
X41338238Y-104947234D01*
X41370260Y-105149417D01*
X41433519Y-105344106D01*
X41526453Y-105526496D01*
X41646766Y-105692096D01*
X41791524Y-105836854D01*
X41946487Y-105949439D01*
X41957128Y-105957170D01*
X42059386Y-106009273D01*
X42139514Y-106050101D01*
X42139516Y-106050101D01*
X42139519Y-106050103D01*
X42243875Y-106084010D01*
X42334203Y-106113360D01*
X42435295Y-106129371D01*
X42536386Y-106145383D01*
X42536387Y-106145383D01*
X42741089Y-106145383D01*
X42741090Y-106145383D01*
X42943272Y-106113360D01*
X43137957Y-106050103D01*
X43320348Y-105957170D01*
X43413328Y-105889615D01*
X43485951Y-105836854D01*
X43485953Y-105836851D01*
X43485957Y-105836849D01*
X43630704Y-105692102D01*
X43630706Y-105692098D01*
X43630709Y-105692096D01*
X43751024Y-105526494D01*
X43798380Y-105433553D01*
X43846354Y-105382757D01*
X43914175Y-105365961D01*
X43980310Y-105388498D01*
X44019350Y-105433552D01*
X44045905Y-105485668D01*
X44166218Y-105651268D01*
X44310976Y-105796026D01*
X44465939Y-105908611D01*
X44476580Y-105916342D01*
X44592797Y-105975558D01*
X44658966Y-106009273D01*
X44658968Y-106009273D01*
X44658971Y-106009275D01*
X44763327Y-106043182D01*
X44853655Y-106072532D01*
X44954747Y-106088543D01*
X45055838Y-106104555D01*
X45055839Y-106104555D01*
X45260541Y-106104555D01*
X45260542Y-106104555D01*
X45462724Y-106072532D01*
X45657409Y-106009275D01*
X45839800Y-105916342D01*
X45949214Y-105836849D01*
X46005403Y-105796026D01*
X46005405Y-105796023D01*
X46005409Y-105796021D01*
X46150156Y-105651274D01*
X46150158Y-105651270D01*
X46150161Y-105651268D01*
X46202922Y-105578645D01*
X46270477Y-105485665D01*
X46363410Y-105303274D01*
X46426667Y-105108589D01*
X46458690Y-104906407D01*
X46458690Y-104701703D01*
X46433134Y-104540349D01*
X46426667Y-104499520D01*
X46363408Y-104304831D01*
X46317832Y-104215384D01*
X46270477Y-104122445D01*
X46253020Y-104098417D01*
X46150161Y-103956841D01*
X46005409Y-103812089D01*
X45904636Y-103738874D01*
X45861970Y-103683544D01*
X45855991Y-103613930D01*
X45888596Y-103552135D01*
X45949435Y-103517778D01*
X45977521Y-103514555D01*
X50754367Y-103514555D01*
X50948771Y-103483764D01*
X50986377Y-103471545D01*
X51135971Y-103422939D01*
X51311350Y-103333579D01*
X51470591Y-103217883D01*
X51535891Y-103152581D01*
X51567274Y-103129781D01*
X51601610Y-103112287D01*
X51767219Y-102991966D01*
X51911966Y-102847219D01*
X51911968Y-102847215D01*
X51911971Y-102847213D01*
X52032284Y-102681614D01*
X52032283Y-102681614D01*
X52032287Y-102681610D01*
X52079516Y-102588917D01*
X52127489Y-102538123D01*
X52195310Y-102521328D01*
X52261445Y-102543865D01*
X52300485Y-102588919D01*
X52347715Y-102681614D01*
X52468028Y-102847213D01*
X52612786Y-102991971D01*
X52767749Y-103104556D01*
X52778390Y-103112287D01*
X52894607Y-103171503D01*
X52960776Y-103205218D01*
X52960778Y-103205218D01*
X52960781Y-103205220D01*
X52999754Y-103217883D01*
X53155465Y-103268477D01*
X53256557Y-103284488D01*
X53357648Y-103300500D01*
X53357649Y-103300500D01*
X53562351Y-103300500D01*
X53562352Y-103300500D01*
X53764534Y-103268477D01*
X53959219Y-103205220D01*
X54141610Y-103112287D01*
X54234590Y-103044732D01*
X54307213Y-102991971D01*
X54307215Y-102991968D01*
X54307219Y-102991966D01*
X54451966Y-102847219D01*
X54451968Y-102847215D01*
X54451971Y-102847213D01*
X54572284Y-102681614D01*
X54572283Y-102681614D01*
X54572287Y-102681610D01*
X54619516Y-102588917D01*
X54667489Y-102538123D01*
X54735310Y-102521328D01*
X54801445Y-102543865D01*
X54840485Y-102588919D01*
X54887715Y-102681614D01*
X55008028Y-102847213D01*
X55152786Y-102991971D01*
X55307749Y-103104556D01*
X55318390Y-103112287D01*
X55434607Y-103171503D01*
X55500776Y-103205218D01*
X55500778Y-103205218D01*
X55500781Y-103205220D01*
X55539754Y-103217883D01*
X55695465Y-103268477D01*
X55796557Y-103284488D01*
X55897648Y-103300500D01*
X55897649Y-103300500D01*
X56102351Y-103300500D01*
X56102352Y-103300500D01*
X56304534Y-103268477D01*
X56499219Y-103205220D01*
X56681610Y-103112287D01*
X56774590Y-103044732D01*
X56847213Y-102991971D01*
X56847215Y-102991968D01*
X56847219Y-102991966D01*
X56991966Y-102847219D01*
X56991966Y-102847218D01*
X56995411Y-102843774D01*
X56996370Y-102844733D01*
X57049725Y-102809909D01*
X57119593Y-102809415D01*
X57178637Y-102846773D01*
X57208110Y-102910122D01*
X57209500Y-102928636D01*
X57209500Y-107558422D01*
X57240290Y-107752826D01*
X57301117Y-107940030D01*
X57378161Y-108091235D01*
X57390476Y-108115405D01*
X57506172Y-108274646D01*
X57506174Y-108274648D01*
X60786227Y-111554702D01*
X60786232Y-111554706D01*
X60925122Y-111655614D01*
X60945467Y-111670396D01*
X61057217Y-111727335D01*
X61120841Y-111759754D01*
X61120843Y-111759754D01*
X61120846Y-111759756D01*
X61221190Y-111792359D01*
X61308045Y-111820581D01*
X61502450Y-111851372D01*
X61502455Y-111851372D01*
X61502456Y-111851372D01*
X61699289Y-111851372D01*
X63146455Y-111851372D01*
X63184773Y-111857441D01*
X63198217Y-111861809D01*
X63221423Y-111869349D01*
X63423605Y-111901372D01*
X63423606Y-111901372D01*
X63628308Y-111901372D01*
X63628309Y-111901372D01*
X63830491Y-111869349D01*
X64025176Y-111806092D01*
X64207567Y-111713159D01*
X64300547Y-111645604D01*
X64373170Y-111592843D01*
X64373172Y-111592840D01*
X64373176Y-111592838D01*
X64517923Y-111448091D01*
X64517925Y-111448087D01*
X64517928Y-111448085D01*
X64638241Y-111282486D01*
X64638240Y-111282486D01*
X64638244Y-111282482D01*
X64697621Y-111165947D01*
X64745594Y-111115153D01*
X64813415Y-111098358D01*
X64879550Y-111120895D01*
X64918590Y-111165949D01*
X64987715Y-111301613D01*
X65108028Y-111467213D01*
X65252786Y-111611971D01*
X65392058Y-111713156D01*
X65418390Y-111732287D01*
X65534607Y-111791503D01*
X65600776Y-111825218D01*
X65600778Y-111825218D01*
X65600781Y-111825220D01*
X65681269Y-111851372D01*
X65795465Y-111888477D01*
X65896557Y-111904488D01*
X65997648Y-111920500D01*
X65997649Y-111920500D01*
X66202351Y-111920500D01*
X66202352Y-111920500D01*
X66404534Y-111888477D01*
X66599219Y-111825220D01*
X66781610Y-111732287D01*
X66874590Y-111664732D01*
X66947213Y-111611971D01*
X66947215Y-111611968D01*
X66947219Y-111611966D01*
X67091966Y-111467219D01*
X67091968Y-111467215D01*
X67091971Y-111467213D01*
X67144732Y-111394590D01*
X67212287Y-111301610D01*
X67239515Y-111248171D01*
X67287490Y-111197376D01*
X67355311Y-111180581D01*
X67421446Y-111203118D01*
X67460485Y-111248172D01*
X67487715Y-111301613D01*
X67608028Y-111467213D01*
X67752786Y-111611971D01*
X67892058Y-111713156D01*
X67918390Y-111732287D01*
X68034607Y-111791503D01*
X68100776Y-111825218D01*
X68100778Y-111825218D01*
X68100781Y-111825220D01*
X68181269Y-111851372D01*
X68295465Y-111888477D01*
X68396557Y-111904488D01*
X68497648Y-111920500D01*
X68497649Y-111920500D01*
X68702351Y-111920500D01*
X68702352Y-111920500D01*
X68904534Y-111888477D01*
X69099219Y-111825220D01*
X69281610Y-111732287D01*
X69374590Y-111664732D01*
X69447213Y-111611971D01*
X69447215Y-111611968D01*
X69447219Y-111611966D01*
X69591966Y-111467219D01*
X69591968Y-111467215D01*
X69591971Y-111467213D01*
X69712284Y-111301614D01*
X69712286Y-111301611D01*
X69712287Y-111301610D01*
X69759795Y-111208369D01*
X69807770Y-111157574D01*
X69875591Y-111140779D01*
X69941725Y-111163316D01*
X69980765Y-111208370D01*
X70028140Y-111301349D01*
X70148417Y-111466894D01*
X70148417Y-111466895D01*
X70293104Y-111611582D01*
X70458650Y-111731859D01*
X70640968Y-111824754D01*
X70835578Y-111887988D01*
X70890000Y-111896607D01*
X70890000Y-111053012D01*
X70947007Y-111085925D01*
X71074174Y-111120000D01*
X71205826Y-111120000D01*
X71332993Y-111085925D01*
X71390000Y-111053012D01*
X71390000Y-111896606D01*
X71444421Y-111887988D01*
X71639031Y-111824754D01*
X71821349Y-111731859D01*
X71986894Y-111611582D01*
X71986895Y-111611582D01*
X72131582Y-111466895D01*
X72131582Y-111466894D01*
X72251861Y-111301347D01*
X72299234Y-111208371D01*
X72347208Y-111157575D01*
X72415028Y-111140779D01*
X72481164Y-111163316D01*
X72520203Y-111208369D01*
X72567713Y-111301611D01*
X72688028Y-111467213D01*
X72832786Y-111611971D01*
X72972058Y-111713156D01*
X72998390Y-111732287D01*
X73114607Y-111791503D01*
X73180776Y-111825218D01*
X73180778Y-111825218D01*
X73180781Y-111825220D01*
X73261269Y-111851372D01*
X73375465Y-111888477D01*
X73476557Y-111904488D01*
X73577648Y-111920500D01*
X73577649Y-111920500D01*
X73782351Y-111920500D01*
X73782352Y-111920500D01*
X73984534Y-111888477D01*
X74179219Y-111825220D01*
X74361610Y-111732287D01*
X74454590Y-111664732D01*
X74527213Y-111611971D01*
X74527215Y-111611968D01*
X74527219Y-111611966D01*
X74671966Y-111467219D01*
X74671968Y-111467215D01*
X74671971Y-111467213D01*
X74792284Y-111301614D01*
X74792286Y-111301611D01*
X74792287Y-111301610D01*
X74839516Y-111208917D01*
X74887489Y-111158123D01*
X74955310Y-111141328D01*
X75021445Y-111163865D01*
X75060485Y-111208919D01*
X75107715Y-111301614D01*
X75228028Y-111467213D01*
X75372786Y-111611971D01*
X75512058Y-111713156D01*
X75538390Y-111732287D01*
X75654607Y-111791503D01*
X75720776Y-111825218D01*
X75720778Y-111825218D01*
X75720781Y-111825220D01*
X75801269Y-111851372D01*
X75915465Y-111888477D01*
X76016557Y-111904488D01*
X76117648Y-111920500D01*
X76117649Y-111920500D01*
X76322351Y-111920500D01*
X76322352Y-111920500D01*
X76524534Y-111888477D01*
X76719219Y-111825220D01*
X76901610Y-111732287D01*
X76994590Y-111664732D01*
X77067213Y-111611971D01*
X77067215Y-111611968D01*
X77067219Y-111611966D01*
X77211966Y-111467219D01*
X77211968Y-111467215D01*
X77211971Y-111467213D01*
X77264732Y-111394590D01*
X77332287Y-111301610D01*
X77425220Y-111119219D01*
X77488477Y-110924534D01*
X77520500Y-110722352D01*
X77520500Y-110517648D01*
X77488477Y-110315466D01*
X77487673Y-110312993D01*
X77454539Y-110211015D01*
X77425220Y-110120781D01*
X77425218Y-110120778D01*
X77425218Y-110120776D01*
X77379515Y-110031080D01*
X77332287Y-109938390D01*
X77305327Y-109901282D01*
X77211971Y-109772786D01*
X77067213Y-109628028D01*
X76901613Y-109507715D01*
X76901612Y-109507714D01*
X76901610Y-109507713D01*
X76844653Y-109478691D01*
X76719223Y-109414781D01*
X76524534Y-109351522D01*
X76349995Y-109323878D01*
X76322352Y-109319500D01*
X76117648Y-109319500D01*
X76093329Y-109323351D01*
X75915465Y-109351522D01*
X75720776Y-109414781D01*
X75538386Y-109507715D01*
X75372786Y-109628028D01*
X75228028Y-109772786D01*
X75107715Y-109938386D01*
X75060485Y-110031080D01*
X75012510Y-110081876D01*
X74944689Y-110098671D01*
X74878554Y-110076134D01*
X74839515Y-110031080D01*
X74838883Y-110029840D01*
X74792287Y-109938390D01*
X74765327Y-109901282D01*
X74671971Y-109772786D01*
X74527213Y-109628028D01*
X74361613Y-109507715D01*
X74361612Y-109507714D01*
X74361610Y-109507713D01*
X74304653Y-109478691D01*
X74179223Y-109414781D01*
X73984534Y-109351522D01*
X73809995Y-109323878D01*
X73782352Y-109319500D01*
X73577648Y-109319500D01*
X73553329Y-109323351D01*
X73375465Y-109351522D01*
X73180776Y-109414781D01*
X72998386Y-109507715D01*
X72832786Y-109628028D01*
X72688028Y-109772786D01*
X72567713Y-109938388D01*
X72520203Y-110031630D01*
X72472228Y-110082426D01*
X72404407Y-110099220D01*
X72338272Y-110076682D01*
X72299234Y-110031628D01*
X72251861Y-109938652D01*
X72131582Y-109773105D01*
X72131582Y-109773104D01*
X71986895Y-109628417D01*
X71821349Y-109508140D01*
X71639029Y-109415244D01*
X71444413Y-109352009D01*
X71390000Y-109343390D01*
X71390000Y-110186988D01*
X71332993Y-110154075D01*
X71205826Y-110120000D01*
X71074174Y-110120000D01*
X70947007Y-110154075D01*
X70890000Y-110186988D01*
X70890000Y-109343390D01*
X70835586Y-109352009D01*
X70640970Y-109415244D01*
X70458650Y-109508140D01*
X70293105Y-109628417D01*
X70293104Y-109628417D01*
X70148417Y-109773104D01*
X70148417Y-109773105D01*
X70028140Y-109938650D01*
X69980765Y-110031629D01*
X69932790Y-110082425D01*
X69864969Y-110099220D01*
X69798834Y-110076682D01*
X69759795Y-110031629D01*
X69748990Y-110010424D01*
X69712287Y-109938390D01*
X69685327Y-109901282D01*
X69591971Y-109772786D01*
X69447213Y-109628028D01*
X69281613Y-109507715D01*
X69281612Y-109507714D01*
X69281610Y-109507713D01*
X69224653Y-109478691D01*
X69099223Y-109414781D01*
X68904534Y-109351522D01*
X68729995Y-109323878D01*
X68702352Y-109319500D01*
X68497648Y-109319500D01*
X68473329Y-109323351D01*
X68295465Y-109351522D01*
X68100776Y-109414781D01*
X67918386Y-109507715D01*
X67752786Y-109628028D01*
X67608028Y-109772786D01*
X67574818Y-109818498D01*
X67519489Y-109861164D01*
X67449875Y-109867143D01*
X67388080Y-109834538D01*
X67353723Y-109773699D01*
X67350500Y-109745613D01*
X67350500Y-109001577D01*
X67326565Y-108850462D01*
X67319709Y-108807174D01*
X67288298Y-108710500D01*
X67258884Y-108619974D01*
X67258882Y-108619971D01*
X67258882Y-108619969D01*
X67169523Y-108444594D01*
X67053828Y-108285354D01*
X62286819Y-103518345D01*
X62253334Y-103457022D01*
X62250500Y-103430664D01*
X62250500Y-102379500D01*
X62256569Y-102341182D01*
X62268477Y-102304534D01*
X62300500Y-102102352D01*
X62300500Y-101897648D01*
X62268477Y-101695466D01*
X62205220Y-101500781D01*
X62205218Y-101500778D01*
X62205218Y-101500776D01*
X62145397Y-101383372D01*
X62112287Y-101318390D01*
X62078648Y-101272089D01*
X61991971Y-101152786D01*
X61847213Y-101008028D01*
X61681613Y-100887715D01*
X61681612Y-100887714D01*
X61681610Y-100887713D01*
X61624653Y-100858691D01*
X61499223Y-100794781D01*
X61304534Y-100731522D01*
X61129995Y-100703878D01*
X61102352Y-100699500D01*
X60897648Y-100699500D01*
X60873329Y-100703351D01*
X60695465Y-100731522D01*
X60500776Y-100794781D01*
X60318386Y-100887715D01*
X60152786Y-101008028D01*
X60008028Y-101152786D01*
X59887715Y-101318386D01*
X59840485Y-101411080D01*
X59792510Y-101461876D01*
X59724689Y-101478671D01*
X59658554Y-101456134D01*
X59619515Y-101411080D01*
X59605397Y-101383372D01*
X59572287Y-101318390D01*
X59538648Y-101272089D01*
X59451971Y-101152786D01*
X59307213Y-101008028D01*
X59141613Y-100887715D01*
X59141612Y-100887714D01*
X59141610Y-100887713D01*
X59084653Y-100858691D01*
X58959223Y-100794781D01*
X58764534Y-100731522D01*
X58589995Y-100703878D01*
X58562352Y-100699500D01*
X58357648Y-100699500D01*
X58333329Y-100703351D01*
X58155465Y-100731522D01*
X57960776Y-100794781D01*
X57778386Y-100887715D01*
X57612786Y-101008028D01*
X57468028Y-101152786D01*
X57347714Y-101318386D01*
X57340484Y-101332577D01*
X57292508Y-101383372D01*
X57224687Y-101400166D01*
X57158552Y-101377627D01*
X57119516Y-101332577D01*
X57112285Y-101318386D01*
X56991971Y-101152786D01*
X56847213Y-101008028D01*
X56681613Y-100887715D01*
X56681612Y-100887714D01*
X56681610Y-100887713D01*
X56624653Y-100858691D01*
X56499223Y-100794781D01*
X56304534Y-100731522D01*
X56129995Y-100703878D01*
X56102352Y-100699500D01*
X55897648Y-100699500D01*
X55873329Y-100703351D01*
X55695465Y-100731522D01*
X55500776Y-100794781D01*
X55318386Y-100887715D01*
X55152786Y-101008028D01*
X55008028Y-101152786D01*
X54887715Y-101318386D01*
X54840485Y-101411080D01*
X54792510Y-101461876D01*
X54724689Y-101478671D01*
X54658554Y-101456134D01*
X54619515Y-101411080D01*
X54605397Y-101383372D01*
X54572287Y-101318390D01*
X54538648Y-101272089D01*
X54451971Y-101152786D01*
X54307213Y-101008028D01*
X54141613Y-100887715D01*
X54141612Y-100887714D01*
X54141610Y-100887713D01*
X54084653Y-100858691D01*
X53959223Y-100794781D01*
X53764534Y-100731522D01*
X53589995Y-100703878D01*
X53562352Y-100699500D01*
X53357648Y-100699500D01*
X53333329Y-100703351D01*
X53155465Y-100731522D01*
X52960776Y-100794781D01*
X52778386Y-100887715D01*
X52612786Y-101008028D01*
X52468028Y-101152786D01*
X52347715Y-101318386D01*
X52300485Y-101411080D01*
X52252510Y-101461876D01*
X52184689Y-101478671D01*
X52118554Y-101456134D01*
X52079515Y-101411080D01*
X52065397Y-101383372D01*
X52032287Y-101318390D01*
X51998648Y-101272089D01*
X51911971Y-101152786D01*
X51767213Y-101008028D01*
X51601613Y-100887715D01*
X51601612Y-100887714D01*
X51601610Y-100887713D01*
X51544653Y-100858691D01*
X51419223Y-100794781D01*
X51224534Y-100731522D01*
X51049995Y-100703878D01*
X51022352Y-100699500D01*
X50817648Y-100699500D01*
X50793329Y-100703351D01*
X50615465Y-100731522D01*
X50420776Y-100794781D01*
X50238390Y-100887712D01*
X50097776Y-100989874D01*
X50031969Y-101013353D01*
X50024891Y-101013555D01*
X45977521Y-101013555D01*
X45910482Y-100993870D01*
X45864727Y-100941066D01*
X45854783Y-100871908D01*
X45883808Y-100808352D01*
X45904636Y-100789236D01*
X46005409Y-100716021D01*
X46150156Y-100571274D01*
X46150158Y-100571270D01*
X46150161Y-100571268D01*
X46202922Y-100498645D01*
X46270477Y-100405665D01*
X46363410Y-100223274D01*
X46426667Y-100028589D01*
X46458690Y-99826407D01*
X46458690Y-99621703D01*
X46433134Y-99460349D01*
X46426667Y-99419520D01*
X46363408Y-99224831D01*
X46330113Y-99159488D01*
X46270477Y-99042445D01*
X46270472Y-99042438D01*
X46268309Y-99038907D01*
X46250065Y-98971462D01*
X46271182Y-98904859D01*
X46286351Y-98886442D01*
X48271217Y-96901577D01*
X50749500Y-96901577D01*
X50749500Y-97098422D01*
X50780290Y-97292826D01*
X50841117Y-97480029D01*
X50866282Y-97529417D01*
X50930476Y-97655405D01*
X51046172Y-97814646D01*
X51185354Y-97953828D01*
X51344595Y-98069524D01*
X51427455Y-98111743D01*
X51519970Y-98158882D01*
X51519972Y-98158882D01*
X51519975Y-98158884D01*
X51620317Y-98191487D01*
X51707173Y-98219709D01*
X51901578Y-98250500D01*
X51901583Y-98250500D01*
X72098422Y-98250500D01*
X72292826Y-98219709D01*
X72301628Y-98216849D01*
X72480025Y-98158884D01*
X72655405Y-98069524D01*
X72814646Y-97953828D01*
X72953828Y-97814646D01*
X73069524Y-97655405D01*
X73158884Y-97480025D01*
X73219709Y-97292826D01*
X73246681Y-97122531D01*
X73250500Y-97098422D01*
X73250500Y-96901577D01*
X73219709Y-96707173D01*
X73166453Y-96543271D01*
X73158884Y-96519975D01*
X73158882Y-96519972D01*
X73158882Y-96519970D01*
X73069523Y-96344594D01*
X73063890Y-96336841D01*
X72953828Y-96185354D01*
X72814646Y-96046172D01*
X72655405Y-95930476D01*
X72626164Y-95915577D01*
X72480029Y-95841117D01*
X72292826Y-95780290D01*
X72098422Y-95749500D01*
X72098417Y-95749500D01*
X51901583Y-95749500D01*
X51901578Y-95749500D01*
X51707173Y-95780290D01*
X51519970Y-95841117D01*
X51344594Y-95930476D01*
X51253741Y-95996485D01*
X51185354Y-96046172D01*
X51185352Y-96046174D01*
X51185351Y-96046174D01*
X51046174Y-96185351D01*
X51046174Y-96185352D01*
X51046172Y-96185354D01*
X51041279Y-96192089D01*
X50930476Y-96344594D01*
X50841117Y-96519970D01*
X50780290Y-96707173D01*
X50749500Y-96901577D01*
X48271217Y-96901577D01*
X53582952Y-91589843D01*
X53638563Y-91506613D01*
X53665084Y-91466922D01*
X53721658Y-91330340D01*
X53731096Y-91282889D01*
X53750500Y-91185347D01*
X53750500Y-74907559D01*
X55665500Y-74907559D01*
X55665500Y-75092440D01*
X55694419Y-75275030D01*
X55751546Y-75450849D01*
X55751547Y-75450852D01*
X55835479Y-75615575D01*
X55944135Y-75765129D01*
X55944139Y-75765134D01*
X56074865Y-75895860D01*
X56074870Y-75895864D01*
X56098342Y-75912917D01*
X56224428Y-76004523D01*
X56328723Y-76057664D01*
X56389147Y-76088452D01*
X56389150Y-76088453D01*
X56564969Y-76145580D01*
X56747560Y-76174500D01*
X56747565Y-76174500D01*
X56932440Y-76174500D01*
X57115030Y-76145580D01*
X57290849Y-76088453D01*
X57290852Y-76088452D01*
X57455572Y-76004523D01*
X57605136Y-75895859D01*
X57735859Y-75765136D01*
X57844523Y-75615572D01*
X57928452Y-75450852D01*
X57985580Y-75275029D01*
X57987527Y-75262737D01*
X58017456Y-75199602D01*
X58076768Y-75162671D01*
X58146630Y-75163669D01*
X58204863Y-75202279D01*
X58232473Y-75262737D01*
X58234420Y-75275030D01*
X58291546Y-75450849D01*
X58291547Y-75450852D01*
X58375479Y-75615575D01*
X58484135Y-75765129D01*
X58484139Y-75765134D01*
X58614865Y-75895860D01*
X58614870Y-75895864D01*
X58638342Y-75912917D01*
X58764428Y-76004523D01*
X58868723Y-76057664D01*
X58929147Y-76088452D01*
X58929150Y-76088453D01*
X59104969Y-76145580D01*
X59287560Y-76174500D01*
X59287565Y-76174500D01*
X59472440Y-76174500D01*
X59655029Y-76145580D01*
X59718519Y-76124951D01*
X59788360Y-76122956D01*
X59848193Y-76159036D01*
X59879021Y-76221737D01*
X59880837Y-76242882D01*
X59880837Y-81705255D01*
X59880837Y-81705257D01*
X59880836Y-81705257D01*
X59909677Y-81850244D01*
X59909680Y-81850254D01*
X59966251Y-81986829D01*
X59999149Y-82036064D01*
X59999150Y-82036067D01*
X60048383Y-82109751D01*
X60048389Y-82109758D01*
X61253927Y-83315295D01*
X61280807Y-83355523D01*
X61290604Y-83379175D01*
X61290609Y-83379185D01*
X61378210Y-83510288D01*
X61378213Y-83510292D01*
X61489707Y-83621786D01*
X61489711Y-83621789D01*
X61620814Y-83709390D01*
X61620827Y-83709397D01*
X61766498Y-83769735D01*
X61766503Y-83769737D01*
X61921153Y-83800499D01*
X61921156Y-83800500D01*
X61921158Y-83800500D01*
X62078844Y-83800500D01*
X62078845Y-83800499D01*
X62233497Y-83769737D01*
X62379179Y-83709394D01*
X62510289Y-83621789D01*
X62621789Y-83510289D01*
X62709394Y-83379179D01*
X62769737Y-83233497D01*
X62800500Y-83078842D01*
X62800500Y-82921158D01*
X62800500Y-82921155D01*
X62800499Y-82921153D01*
X62791535Y-82876089D01*
X62769737Y-82766503D01*
X62731383Y-82673907D01*
X62709397Y-82620827D01*
X62709390Y-82620814D01*
X62621789Y-82489711D01*
X62621786Y-82489707D01*
X62510292Y-82378213D01*
X62510288Y-82378210D01*
X62379185Y-82290609D01*
X62379175Y-82290604D01*
X62355523Y-82280807D01*
X62315295Y-82253927D01*
X61418156Y-81356788D01*
X61384671Y-81295465D01*
X61381837Y-81269107D01*
X61381837Y-76230754D01*
X61401522Y-76163715D01*
X61454326Y-76117960D01*
X61523484Y-76108016D01*
X61544155Y-76112823D01*
X61644970Y-76145580D01*
X61827560Y-76174500D01*
X61827565Y-76174500D01*
X62012440Y-76174500D01*
X62195030Y-76145580D01*
X62370849Y-76088453D01*
X62370852Y-76088452D01*
X62535572Y-76004523D01*
X62685136Y-75895859D01*
X62815859Y-75765136D01*
X62924523Y-75615572D01*
X63008452Y-75450852D01*
X63065580Y-75275029D01*
X63067527Y-75262737D01*
X63097456Y-75199602D01*
X63156768Y-75162671D01*
X63226630Y-75163669D01*
X63284863Y-75202279D01*
X63312473Y-75262737D01*
X63314420Y-75275030D01*
X63371546Y-75450849D01*
X63371547Y-75450852D01*
X63455479Y-75615575D01*
X63564135Y-75765129D01*
X63564139Y-75765134D01*
X63694865Y-75895860D01*
X63694870Y-75895864D01*
X63718342Y-75912917D01*
X63844428Y-76004523D01*
X63948723Y-76057664D01*
X64009147Y-76088452D01*
X64009150Y-76088453D01*
X64184969Y-76145580D01*
X64367560Y-76174500D01*
X64367565Y-76174500D01*
X64552440Y-76174500D01*
X64735030Y-76145580D01*
X64910849Y-76088453D01*
X64910852Y-76088452D01*
X65075572Y-76004523D01*
X65225136Y-75895859D01*
X65355859Y-75765136D01*
X65464523Y-75615572D01*
X65548452Y-75450852D01*
X65605580Y-75275029D01*
X65607527Y-75262737D01*
X65637456Y-75199602D01*
X65696768Y-75162671D01*
X65766630Y-75163669D01*
X65824863Y-75202279D01*
X65852473Y-75262737D01*
X65854420Y-75275030D01*
X65911546Y-75450849D01*
X65911547Y-75450852D01*
X65995479Y-75615575D01*
X66104135Y-75765129D01*
X66104139Y-75765134D01*
X66234865Y-75895860D01*
X66234870Y-75895864D01*
X66258342Y-75912917D01*
X66384428Y-76004523D01*
X66488723Y-76057664D01*
X66549147Y-76088452D01*
X66549150Y-76088453D01*
X66724969Y-76145580D01*
X66907560Y-76174500D01*
X66907565Y-76174500D01*
X67092440Y-76174500D01*
X67275029Y-76145580D01*
X67379367Y-76111679D01*
X67449208Y-76109684D01*
X67509041Y-76145764D01*
X67539869Y-76208465D01*
X67541685Y-76229610D01*
X67541685Y-79345585D01*
X67522000Y-79412624D01*
X67505366Y-79433266D01*
X66417047Y-80521584D01*
X66405133Y-80539415D01*
X66393271Y-80557170D01*
X66363993Y-80600987D01*
X66334914Y-80644507D01*
X66278343Y-80781082D01*
X66278340Y-80781092D01*
X66249500Y-80926079D01*
X66249500Y-89278142D01*
X66229815Y-89345181D01*
X66213182Y-89365823D01*
X66104134Y-89474871D01*
X65995479Y-89624424D01*
X65911547Y-89789147D01*
X65911546Y-89789150D01*
X65854420Y-89964969D01*
X65852473Y-89977263D01*
X65822543Y-90040397D01*
X65763231Y-90077328D01*
X65693369Y-90076330D01*
X65635136Y-90037719D01*
X65607527Y-89977263D01*
X65607192Y-89975150D01*
X65605580Y-89964971D01*
X65567776Y-89848622D01*
X65548453Y-89789150D01*
X65548452Y-89789147D01*
X65495411Y-89685050D01*
X65464523Y-89624428D01*
X65400675Y-89536548D01*
X65355864Y-89474870D01*
X65355860Y-89474865D01*
X65225134Y-89344139D01*
X65225129Y-89344135D01*
X65075575Y-89235479D01*
X65075574Y-89235478D01*
X65075572Y-89235477D01*
X65020224Y-89207276D01*
X64910852Y-89151547D01*
X64910849Y-89151546D01*
X64735030Y-89094419D01*
X64552440Y-89065500D01*
X64552435Y-89065500D01*
X64367565Y-89065500D01*
X64367560Y-89065500D01*
X64184969Y-89094419D01*
X64009150Y-89151546D01*
X64009147Y-89151547D01*
X63844424Y-89235479D01*
X63694870Y-89344135D01*
X63694865Y-89344139D01*
X63564139Y-89474865D01*
X63564135Y-89474870D01*
X63455479Y-89624424D01*
X63371547Y-89789147D01*
X63371546Y-89789150D01*
X63314420Y-89964969D01*
X63312473Y-89977263D01*
X63282543Y-90040397D01*
X63223231Y-90077328D01*
X63153369Y-90076330D01*
X63095136Y-90037719D01*
X63067527Y-89977263D01*
X63067192Y-89975150D01*
X63065580Y-89964971D01*
X63027776Y-89848622D01*
X63008453Y-89789150D01*
X63008452Y-89789147D01*
X62955411Y-89685050D01*
X62924523Y-89624428D01*
X62860675Y-89536548D01*
X62815864Y-89474870D01*
X62815860Y-89474865D01*
X62685134Y-89344139D01*
X62685129Y-89344135D01*
X62535575Y-89235479D01*
X62535574Y-89235478D01*
X62535572Y-89235477D01*
X62480224Y-89207276D01*
X62370852Y-89151547D01*
X62370849Y-89151546D01*
X62195030Y-89094419D01*
X62012440Y-89065500D01*
X62012435Y-89065500D01*
X61827565Y-89065500D01*
X61827560Y-89065500D01*
X61644969Y-89094419D01*
X61469150Y-89151546D01*
X61469147Y-89151547D01*
X61304424Y-89235479D01*
X61154870Y-89344135D01*
X61154865Y-89344139D01*
X61024139Y-89474865D01*
X61024135Y-89474870D01*
X60915479Y-89624424D01*
X60831547Y-89789147D01*
X60831546Y-89789150D01*
X60774420Y-89964969D01*
X60772473Y-89977263D01*
X60742543Y-90040397D01*
X60683231Y-90077328D01*
X60613369Y-90076330D01*
X60555136Y-90037719D01*
X60527527Y-89977263D01*
X60527192Y-89975150D01*
X60525580Y-89964971D01*
X60487776Y-89848622D01*
X60468453Y-89789150D01*
X60468452Y-89789147D01*
X60415411Y-89685050D01*
X60384523Y-89624428D01*
X60320675Y-89536548D01*
X60275864Y-89474870D01*
X60275860Y-89474865D01*
X60145134Y-89344139D01*
X60145129Y-89344135D01*
X59995575Y-89235479D01*
X59995574Y-89235478D01*
X59995572Y-89235477D01*
X59940224Y-89207276D01*
X59830852Y-89151547D01*
X59830849Y-89151546D01*
X59655030Y-89094419D01*
X59472440Y-89065500D01*
X59472435Y-89065500D01*
X59287565Y-89065500D01*
X59287560Y-89065500D01*
X59104969Y-89094419D01*
X58929150Y-89151546D01*
X58929147Y-89151547D01*
X58764424Y-89235479D01*
X58614870Y-89344135D01*
X58614865Y-89344139D01*
X58484139Y-89474865D01*
X58484135Y-89474870D01*
X58375479Y-89624424D01*
X58291547Y-89789147D01*
X58291546Y-89789150D01*
X58234420Y-89964969D01*
X58232473Y-89977263D01*
X58202543Y-90040397D01*
X58143231Y-90077328D01*
X58073369Y-90076330D01*
X58015136Y-90037719D01*
X57987527Y-89977263D01*
X57987192Y-89975150D01*
X57985580Y-89964971D01*
X57947776Y-89848622D01*
X57928453Y-89789150D01*
X57928452Y-89789147D01*
X57875411Y-89685050D01*
X57844523Y-89624428D01*
X57780675Y-89536548D01*
X57735864Y-89474870D01*
X57735860Y-89474865D01*
X57605134Y-89344139D01*
X57605129Y-89344135D01*
X57455575Y-89235479D01*
X57455574Y-89235478D01*
X57455572Y-89235477D01*
X57400224Y-89207276D01*
X57290852Y-89151547D01*
X57290849Y-89151546D01*
X57115030Y-89094419D01*
X56932440Y-89065500D01*
X56932435Y-89065500D01*
X56747565Y-89065500D01*
X56747560Y-89065500D01*
X56564969Y-89094419D01*
X56389150Y-89151546D01*
X56389147Y-89151547D01*
X56224424Y-89235479D01*
X56074870Y-89344135D01*
X56074865Y-89344139D01*
X55944139Y-89474865D01*
X55944135Y-89474870D01*
X55835479Y-89624424D01*
X55751547Y-89789147D01*
X55751546Y-89789150D01*
X55694419Y-89964969D01*
X55665500Y-90147559D01*
X55665500Y-90332440D01*
X55694419Y-90515030D01*
X55751546Y-90690849D01*
X55751547Y-90690852D01*
X55807446Y-90800559D01*
X55825951Y-90836877D01*
X55835479Y-90855575D01*
X55944135Y-91005129D01*
X55944139Y-91005134D01*
X56074865Y-91135860D01*
X56074870Y-91135864D01*
X56203431Y-91229268D01*
X56224428Y-91244523D01*
X56328723Y-91297664D01*
X56389147Y-91328452D01*
X56389150Y-91328453D01*
X56564969Y-91385580D01*
X56747560Y-91414500D01*
X56747565Y-91414500D01*
X56932440Y-91414500D01*
X57115030Y-91385580D01*
X57290849Y-91328453D01*
X57290852Y-91328452D01*
X57291767Y-91327986D01*
X57455572Y-91244523D01*
X57605136Y-91135859D01*
X57735859Y-91005136D01*
X57844523Y-90855572D01*
X57928452Y-90690852D01*
X57985580Y-90515029D01*
X57987527Y-90502737D01*
X58017456Y-90439602D01*
X58076768Y-90402671D01*
X58146630Y-90403669D01*
X58204863Y-90442279D01*
X58232473Y-90502737D01*
X58234420Y-90515030D01*
X58291546Y-90690849D01*
X58291547Y-90690852D01*
X58347446Y-90800559D01*
X58365951Y-90836877D01*
X58375479Y-90855575D01*
X58484135Y-91005129D01*
X58484139Y-91005134D01*
X58614865Y-91135860D01*
X58614870Y-91135864D01*
X58743431Y-91229268D01*
X58764428Y-91244523D01*
X58868723Y-91297664D01*
X58929147Y-91328452D01*
X58929150Y-91328453D01*
X59104969Y-91385580D01*
X59287560Y-91414500D01*
X59287565Y-91414500D01*
X59472440Y-91414500D01*
X59655030Y-91385580D01*
X59830849Y-91328453D01*
X59830852Y-91328452D01*
X59831767Y-91327986D01*
X59995572Y-91244523D01*
X60145136Y-91135859D01*
X60275859Y-91005136D01*
X60384523Y-90855572D01*
X60468452Y-90690852D01*
X60525580Y-90515029D01*
X60527527Y-90502737D01*
X60557456Y-90439602D01*
X60616768Y-90402671D01*
X60686630Y-90403669D01*
X60744863Y-90442279D01*
X60772473Y-90502737D01*
X60774420Y-90515030D01*
X60831546Y-90690849D01*
X60831547Y-90690852D01*
X60887446Y-90800559D01*
X60905951Y-90836877D01*
X60915479Y-90855575D01*
X61024135Y-91005129D01*
X61024139Y-91005134D01*
X61154865Y-91135860D01*
X61154870Y-91135864D01*
X61283431Y-91229268D01*
X61304428Y-91244523D01*
X61408723Y-91297664D01*
X61469147Y-91328452D01*
X61469150Y-91328453D01*
X61644969Y-91385580D01*
X61827560Y-91414500D01*
X61827565Y-91414500D01*
X62012440Y-91414500D01*
X62195030Y-91385580D01*
X62370849Y-91328453D01*
X62370852Y-91328452D01*
X62371767Y-91327986D01*
X62535572Y-91244523D01*
X62685136Y-91135859D01*
X62815859Y-91005136D01*
X62924523Y-90855572D01*
X63008452Y-90690852D01*
X63065580Y-90515029D01*
X63067527Y-90502737D01*
X63097456Y-90439602D01*
X63156768Y-90402671D01*
X63226630Y-90403669D01*
X63284863Y-90442279D01*
X63312473Y-90502737D01*
X63314420Y-90515030D01*
X63371546Y-90690849D01*
X63371547Y-90690852D01*
X63427446Y-90800559D01*
X63445951Y-90836877D01*
X63455479Y-90855575D01*
X63564135Y-91005129D01*
X63564139Y-91005134D01*
X63694865Y-91135860D01*
X63694870Y-91135864D01*
X63823431Y-91229268D01*
X63844428Y-91244523D01*
X63948723Y-91297664D01*
X64009147Y-91328452D01*
X64009150Y-91328453D01*
X64184969Y-91385580D01*
X64367560Y-91414500D01*
X64367565Y-91414500D01*
X64552440Y-91414500D01*
X64735030Y-91385580D01*
X64910849Y-91328453D01*
X64910852Y-91328452D01*
X64911767Y-91327986D01*
X65075572Y-91244523D01*
X65225136Y-91135859D01*
X65355859Y-91005136D01*
X65464523Y-90855572D01*
X65548452Y-90690852D01*
X65605580Y-90515029D01*
X65607527Y-90502737D01*
X65637456Y-90439602D01*
X65696768Y-90402671D01*
X65766630Y-90403669D01*
X65824863Y-90442279D01*
X65852473Y-90502737D01*
X65854420Y-90515030D01*
X65911546Y-90690849D01*
X65911547Y-90690852D01*
X65967446Y-90800559D01*
X65985951Y-90836877D01*
X65995479Y-90855575D01*
X66104135Y-91005129D01*
X66104139Y-91005134D01*
X66234865Y-91135860D01*
X66234870Y-91135864D01*
X66363431Y-91229268D01*
X66384428Y-91244523D01*
X66488723Y-91297664D01*
X66549147Y-91328452D01*
X66549150Y-91328453D01*
X66724969Y-91385580D01*
X66907560Y-91414500D01*
X66907565Y-91414500D01*
X67092440Y-91414500D01*
X67275030Y-91385580D01*
X67450849Y-91328453D01*
X67450852Y-91328452D01*
X67451767Y-91327986D01*
X67615572Y-91244523D01*
X67765136Y-91135859D01*
X67895859Y-91005136D01*
X68004523Y-90855572D01*
X68088452Y-90690852D01*
X68145580Y-90515029D01*
X68147527Y-90502737D01*
X68177456Y-90439602D01*
X68236768Y-90402671D01*
X68306630Y-90403669D01*
X68364863Y-90442279D01*
X68392473Y-90502737D01*
X68394420Y-90515030D01*
X68451546Y-90690849D01*
X68451547Y-90690852D01*
X68507446Y-90800559D01*
X68525951Y-90836877D01*
X68535479Y-90855575D01*
X68644135Y-91005129D01*
X68644139Y-91005134D01*
X68774865Y-91135860D01*
X68774870Y-91135864D01*
X68903431Y-91229268D01*
X68924428Y-91244523D01*
X69028723Y-91297664D01*
X69089147Y-91328452D01*
X69089150Y-91328453D01*
X69264969Y-91385580D01*
X69447560Y-91414500D01*
X69447565Y-91414500D01*
X69632440Y-91414500D01*
X69815030Y-91385580D01*
X69990849Y-91328453D01*
X69990852Y-91328452D01*
X69991767Y-91327986D01*
X70155572Y-91244523D01*
X70305136Y-91135859D01*
X70435859Y-91005136D01*
X70544523Y-90855572D01*
X70628452Y-90690852D01*
X70685580Y-90515029D01*
X70687527Y-90502737D01*
X70717456Y-90439602D01*
X70776768Y-90402671D01*
X70846630Y-90403669D01*
X70904863Y-90442279D01*
X70932473Y-90502737D01*
X70934420Y-90515030D01*
X70991546Y-90690849D01*
X70991547Y-90690852D01*
X71047446Y-90800559D01*
X71065951Y-90836877D01*
X71075479Y-90855575D01*
X71184135Y-91005129D01*
X71184139Y-91005134D01*
X71314865Y-91135860D01*
X71314870Y-91135864D01*
X71443431Y-91229268D01*
X71464428Y-91244523D01*
X71568723Y-91297664D01*
X71629147Y-91328452D01*
X71629150Y-91328453D01*
X71804969Y-91385580D01*
X71987560Y-91414500D01*
X71987565Y-91414500D01*
X72172440Y-91414500D01*
X72355030Y-91385580D01*
X72530849Y-91328453D01*
X72530852Y-91328452D01*
X72531767Y-91327986D01*
X72695572Y-91244523D01*
X72845136Y-91135859D01*
X72975859Y-91005136D01*
X73084523Y-90855572D01*
X73168452Y-90690852D01*
X73225580Y-90515029D01*
X73227780Y-90501137D01*
X73257708Y-90438005D01*
X73317019Y-90401073D01*
X73386882Y-90402069D01*
X73445115Y-90440678D01*
X73472726Y-90501136D01*
X73474907Y-90514910D01*
X73532014Y-90690664D01*
X73615900Y-90855303D01*
X73615903Y-90855307D01*
X73630730Y-90875715D01*
X73630730Y-90875716D01*
X74202356Y-90304090D01*
X74228622Y-90402114D01*
X74283916Y-90497886D01*
X74362114Y-90576084D01*
X74457886Y-90631378D01*
X74555909Y-90657643D01*
X73984283Y-91229268D01*
X73984283Y-91229269D01*
X74004686Y-91244092D01*
X74169338Y-91327986D01*
X74345091Y-91385092D01*
X74527605Y-91414000D01*
X74712395Y-91414000D01*
X74894908Y-91385092D01*
X75070661Y-91327986D01*
X75235310Y-91244094D01*
X75255715Y-91229268D01*
X75255716Y-91229268D01*
X74684090Y-90657642D01*
X74782114Y-90631378D01*
X74877886Y-90576084D01*
X74956084Y-90497886D01*
X75011378Y-90402114D01*
X75037642Y-90304090D01*
X75609268Y-90875716D01*
X75609268Y-90875715D01*
X75624094Y-90855310D01*
X75707986Y-90690661D01*
X75765092Y-90514908D01*
X75794000Y-90332395D01*
X75794000Y-90147604D01*
X75765092Y-89965091D01*
X75707986Y-89789338D01*
X75624092Y-89624686D01*
X75609269Y-89604283D01*
X75037642Y-90175909D01*
X75011378Y-90077886D01*
X74956084Y-89982114D01*
X74877886Y-89903916D01*
X74782114Y-89848622D01*
X74684090Y-89822356D01*
X75255716Y-89250730D01*
X75235307Y-89235903D01*
X75235303Y-89235900D01*
X75070664Y-89152014D01*
X74894908Y-89094907D01*
X74712395Y-89066000D01*
X74527605Y-89066000D01*
X74345091Y-89094907D01*
X74169338Y-89152013D01*
X74004692Y-89235903D01*
X74004688Y-89235906D01*
X73984283Y-89250729D01*
X73984283Y-89250730D01*
X74555910Y-89822356D01*
X74457886Y-89848622D01*
X74362114Y-89903916D01*
X74283916Y-89982114D01*
X74228622Y-90077886D01*
X74202356Y-90175909D01*
X73630730Y-89604283D01*
X73630729Y-89604283D01*
X73615906Y-89624688D01*
X73615903Y-89624692D01*
X73532013Y-89789338D01*
X73474908Y-89965088D01*
X73472726Y-89978864D01*
X73442795Y-90041998D01*
X73383483Y-90078928D01*
X73313620Y-90077928D01*
X73255388Y-90039317D01*
X73227780Y-89978860D01*
X73225580Y-89964970D01*
X73168453Y-89789150D01*
X73168452Y-89789147D01*
X73115411Y-89685050D01*
X73084523Y-89624428D01*
X73020675Y-89536548D01*
X72975864Y-89474870D01*
X72975860Y-89474865D01*
X72845134Y-89344139D01*
X72845129Y-89344135D01*
X72695575Y-89235479D01*
X72695574Y-89235478D01*
X72695572Y-89235477D01*
X72640224Y-89207276D01*
X72530852Y-89151547D01*
X72530849Y-89151546D01*
X72355030Y-89094419D01*
X72172440Y-89065500D01*
X72172435Y-89065500D01*
X71987565Y-89065500D01*
X71987560Y-89065500D01*
X71804969Y-89094419D01*
X71629150Y-89151546D01*
X71629147Y-89151547D01*
X71464424Y-89235479D01*
X71314870Y-89344135D01*
X71314865Y-89344139D01*
X71184139Y-89474865D01*
X71184135Y-89474870D01*
X71075479Y-89624424D01*
X70991547Y-89789147D01*
X70991546Y-89789150D01*
X70934420Y-89964969D01*
X70932473Y-89977263D01*
X70902543Y-90040397D01*
X70843231Y-90077328D01*
X70773369Y-90076330D01*
X70715136Y-90037719D01*
X70687527Y-89977263D01*
X70687192Y-89975150D01*
X70685580Y-89964971D01*
X70647776Y-89848622D01*
X70628453Y-89789150D01*
X70628452Y-89789147D01*
X70575411Y-89685050D01*
X70544523Y-89624428D01*
X70480675Y-89536548D01*
X70435864Y-89474870D01*
X70435860Y-89474865D01*
X70305134Y-89344139D01*
X70305129Y-89344135D01*
X70155575Y-89235479D01*
X70155574Y-89235478D01*
X70155572Y-89235477D01*
X70100224Y-89207276D01*
X69990852Y-89151547D01*
X69990849Y-89151546D01*
X69815030Y-89094419D01*
X69632440Y-89065500D01*
X69632435Y-89065500D01*
X69447565Y-89065500D01*
X69447560Y-89065500D01*
X69264969Y-89094419D01*
X69089150Y-89151546D01*
X69089147Y-89151547D01*
X68924424Y-89235479D01*
X68774870Y-89344135D01*
X68774865Y-89344139D01*
X68644139Y-89474865D01*
X68644135Y-89474870D01*
X68535479Y-89624424D01*
X68451547Y-89789147D01*
X68451546Y-89789150D01*
X68394420Y-89964969D01*
X68392473Y-89977263D01*
X68362543Y-90040397D01*
X68303231Y-90077328D01*
X68233369Y-90076330D01*
X68175136Y-90037719D01*
X68147527Y-89977263D01*
X68147192Y-89975150D01*
X68145580Y-89964971D01*
X68107776Y-89848622D01*
X68088453Y-89789150D01*
X68088452Y-89789147D01*
X68035411Y-89685050D01*
X68004523Y-89624428D01*
X67940675Y-89536548D01*
X67895865Y-89474871D01*
X67895861Y-89474867D01*
X67895859Y-89474864D01*
X67786818Y-89365823D01*
X67753334Y-89304500D01*
X67750500Y-89278142D01*
X67750500Y-87656776D01*
X86179824Y-87656776D01*
X87023421Y-87656776D01*
X86990508Y-87713783D01*
X86956433Y-87840950D01*
X86956433Y-87972602D01*
X86990508Y-88099769D01*
X87023421Y-88156776D01*
X86179824Y-88156776D01*
X86188442Y-88211189D01*
X86251677Y-88405805D01*
X86344573Y-88588125D01*
X86464850Y-88753670D01*
X86464850Y-88753671D01*
X86609537Y-88898358D01*
X86775083Y-89018635D01*
X86957401Y-89111530D01*
X87152011Y-89174764D01*
X87206433Y-89183383D01*
X87206433Y-88339788D01*
X87263440Y-88372701D01*
X87390607Y-88406776D01*
X87522259Y-88406776D01*
X87649426Y-88372701D01*
X87706433Y-88339788D01*
X87706433Y-89183382D01*
X87760854Y-89174764D01*
X87955464Y-89111530D01*
X88137782Y-89018635D01*
X88303327Y-88898358D01*
X88303328Y-88898358D01*
X88448015Y-88753671D01*
X88448015Y-88753670D01*
X88568294Y-88588123D01*
X88615667Y-88495147D01*
X88663641Y-88444351D01*
X88731461Y-88427555D01*
X88797597Y-88450092D01*
X88836636Y-88495145D01*
X88884146Y-88588387D01*
X89004461Y-88753989D01*
X89149219Y-88898747D01*
X89304182Y-89011332D01*
X89314823Y-89019063D01*
X89405961Y-89065500D01*
X89497209Y-89111994D01*
X89497211Y-89111994D01*
X89497214Y-89111996D01*
X89601570Y-89145903D01*
X89691898Y-89175253D01*
X89792990Y-89191264D01*
X89894081Y-89207276D01*
X89894082Y-89207276D01*
X90098784Y-89207276D01*
X90098785Y-89207276D01*
X90300967Y-89175253D01*
X90495652Y-89111996D01*
X90678043Y-89019063D01*
X90809888Y-88923273D01*
X90843646Y-88898747D01*
X90843648Y-88898744D01*
X90843652Y-88898742D01*
X90988399Y-88753995D01*
X90988401Y-88753991D01*
X90988404Y-88753989D01*
X91108717Y-88588390D01*
X91108719Y-88588387D01*
X91108720Y-88588386D01*
X91155949Y-88495693D01*
X91203922Y-88444899D01*
X91271743Y-88428104D01*
X91337878Y-88450641D01*
X91376918Y-88495695D01*
X91424148Y-88588390D01*
X91544461Y-88753989D01*
X91689219Y-88898747D01*
X91844182Y-89011332D01*
X91854823Y-89019063D01*
X91945961Y-89065500D01*
X92037209Y-89111994D01*
X92037211Y-89111994D01*
X92037214Y-89111996D01*
X92141570Y-89145903D01*
X92231898Y-89175253D01*
X92332990Y-89191264D01*
X92434081Y-89207276D01*
X92434082Y-89207276D01*
X92638784Y-89207276D01*
X92638785Y-89207276D01*
X92840967Y-89175253D01*
X93035652Y-89111996D01*
X93218043Y-89019063D01*
X93349888Y-88923273D01*
X93383646Y-88898747D01*
X93383648Y-88898744D01*
X93383652Y-88898742D01*
X93528399Y-88753995D01*
X93528401Y-88753991D01*
X93528404Y-88753989D01*
X93630897Y-88612917D01*
X93648720Y-88588386D01*
X93741653Y-88405995D01*
X93804910Y-88211310D01*
X93836933Y-88009128D01*
X93836933Y-87804424D01*
X93827758Y-87746496D01*
X93804910Y-87602241D01*
X93741651Y-87407552D01*
X93648852Y-87225426D01*
X93648720Y-87225166D01*
X93606631Y-87167235D01*
X93528404Y-87059562D01*
X93383646Y-86914804D01*
X93218046Y-86794491D01*
X93218045Y-86794490D01*
X93218043Y-86794489D01*
X93151038Y-86760348D01*
X93035656Y-86701557D01*
X92840967Y-86638298D01*
X92666428Y-86610654D01*
X92638785Y-86606276D01*
X92434081Y-86606276D01*
X92409762Y-86610127D01*
X92231898Y-86638298D01*
X92037209Y-86701557D01*
X91854819Y-86794491D01*
X91689219Y-86914804D01*
X91544461Y-87059562D01*
X91424148Y-87225162D01*
X91376918Y-87317856D01*
X91328943Y-87368652D01*
X91261122Y-87385447D01*
X91194987Y-87362910D01*
X91155948Y-87317856D01*
X91108852Y-87225426D01*
X91108720Y-87225166D01*
X91066631Y-87167235D01*
X90988404Y-87059562D01*
X90843646Y-86914804D01*
X90678046Y-86794491D01*
X90678045Y-86794490D01*
X90678043Y-86794489D01*
X90611038Y-86760348D01*
X90495656Y-86701557D01*
X90300967Y-86638298D01*
X90126428Y-86610654D01*
X90098785Y-86606276D01*
X89894081Y-86606276D01*
X89869762Y-86610127D01*
X89691898Y-86638298D01*
X89497209Y-86701557D01*
X89314819Y-86794491D01*
X89149219Y-86914804D01*
X89004461Y-87059562D01*
X88884146Y-87225164D01*
X88836636Y-87318406D01*
X88788661Y-87369202D01*
X88720840Y-87385996D01*
X88654705Y-87363458D01*
X88615667Y-87318404D01*
X88568294Y-87225428D01*
X88448015Y-87059881D01*
X88448015Y-87059880D01*
X88303328Y-86915193D01*
X88137782Y-86794916D01*
X87955462Y-86702020D01*
X87760846Y-86638785D01*
X87706433Y-86630166D01*
X87706433Y-87473764D01*
X87649426Y-87440851D01*
X87522259Y-87406776D01*
X87390607Y-87406776D01*
X87263440Y-87440851D01*
X87206433Y-87473764D01*
X87206433Y-86630166D01*
X87152019Y-86638785D01*
X86957403Y-86702020D01*
X86775083Y-86794916D01*
X86609538Y-86915193D01*
X86609537Y-86915193D01*
X86464850Y-87059880D01*
X86464850Y-87059881D01*
X86344573Y-87225426D01*
X86251677Y-87407746D01*
X86188442Y-87602362D01*
X86179824Y-87656776D01*
X67750500Y-87656776D01*
X67750500Y-84359560D01*
X73317081Y-84359560D01*
X73317081Y-84654587D01*
X73337150Y-84807020D01*
X73355588Y-84947067D01*
X73427087Y-85213906D01*
X73431942Y-85232025D01*
X73431945Y-85232035D01*
X73544835Y-85504574D01*
X73544839Y-85504584D01*
X73692342Y-85760067D01*
X73871933Y-85994114D01*
X73871939Y-85994121D01*
X74080533Y-86202715D01*
X74080540Y-86202721D01*
X74314587Y-86382312D01*
X74570070Y-86529815D01*
X74570071Y-86529815D01*
X74570074Y-86529817D01*
X74754662Y-86606276D01*
X74831972Y-86638299D01*
X74842629Y-86642713D01*
X75127588Y-86719067D01*
X75420075Y-86757574D01*
X75420082Y-86757574D01*
X75715080Y-86757574D01*
X75715087Y-86757574D01*
X76007574Y-86719067D01*
X76292533Y-86642713D01*
X76565088Y-86529817D01*
X76820575Y-86382312D01*
X77054623Y-86202720D01*
X77263227Y-85994116D01*
X77442819Y-85760068D01*
X77590324Y-85504581D01*
X77703220Y-85232026D01*
X77779574Y-84947067D01*
X77818081Y-84654580D01*
X77818081Y-84359568D01*
X77779574Y-84067081D01*
X77703220Y-83782122D01*
X77701945Y-83779045D01*
X77636808Y-83621789D01*
X77590324Y-83509567D01*
X77537901Y-83418768D01*
X77442819Y-83254080D01*
X77263228Y-83020033D01*
X77263222Y-83020026D01*
X77054628Y-82811432D01*
X77054621Y-82811426D01*
X76820574Y-82631835D01*
X76565091Y-82484332D01*
X76565081Y-82484328D01*
X76292542Y-82371438D01*
X76292535Y-82371436D01*
X76292533Y-82371435D01*
X76007574Y-82295081D01*
X75958694Y-82288645D01*
X75715094Y-82256574D01*
X75715087Y-82256574D01*
X75420075Y-82256574D01*
X75420067Y-82256574D01*
X75141666Y-82293227D01*
X75127588Y-82295081D01*
X74842629Y-82371435D01*
X74842619Y-82371438D01*
X74570080Y-82484328D01*
X74570070Y-82484332D01*
X74314587Y-82631835D01*
X74080540Y-82811426D01*
X74080533Y-82811432D01*
X73871939Y-83020026D01*
X73871933Y-83020033D01*
X73692342Y-83254080D01*
X73544839Y-83509563D01*
X73544835Y-83509573D01*
X73431945Y-83782112D01*
X73431942Y-83782122D01*
X73398660Y-83906335D01*
X73355589Y-84067078D01*
X73355587Y-84067089D01*
X73317081Y-84359560D01*
X67750500Y-84359560D01*
X67750500Y-81882043D01*
X89481634Y-81882043D01*
X89481634Y-82086746D01*
X89513656Y-82288929D01*
X89576915Y-82483618D01*
X89640825Y-82609048D01*
X89652436Y-82631835D01*
X89669849Y-82666008D01*
X89790162Y-82831608D01*
X89934920Y-82976366D01*
X90089883Y-83088951D01*
X90100524Y-83096682D01*
X90194172Y-83144398D01*
X90282910Y-83189613D01*
X90282912Y-83189613D01*
X90282915Y-83189615D01*
X90387271Y-83223522D01*
X90477599Y-83252872D01*
X90578691Y-83268883D01*
X90679782Y-83284895D01*
X90679783Y-83284895D01*
X90884485Y-83284895D01*
X90884486Y-83284895D01*
X91086668Y-83252872D01*
X91281353Y-83189615D01*
X91463744Y-83096682D01*
X91569253Y-83020026D01*
X91629347Y-82976366D01*
X91629349Y-82976363D01*
X91629353Y-82976361D01*
X91774100Y-82831614D01*
X91774102Y-82831610D01*
X91774105Y-82831608D01*
X91826866Y-82758985D01*
X91894421Y-82666005D01*
X91987354Y-82483614D01*
X91992036Y-82469203D01*
X93121698Y-82469203D01*
X93121698Y-82673906D01*
X93153720Y-82876089D01*
X93216979Y-83070778D01*
X93309913Y-83253168D01*
X93430226Y-83418768D01*
X93574984Y-83563526D01*
X93729947Y-83676111D01*
X93740588Y-83683842D01*
X93832038Y-83730438D01*
X93833278Y-83731070D01*
X93884074Y-83779045D01*
X93900869Y-83846866D01*
X93878332Y-83913001D01*
X93833278Y-83952040D01*
X93740584Y-83999270D01*
X93574984Y-84119583D01*
X93430226Y-84264341D01*
X93309913Y-84429941D01*
X93216979Y-84612331D01*
X93153720Y-84807020D01*
X93121698Y-85009203D01*
X93121698Y-85213906D01*
X93153720Y-85416089D01*
X93216979Y-85610778D01*
X93309913Y-85793168D01*
X93430226Y-85958768D01*
X93574984Y-86103526D01*
X93711509Y-86202715D01*
X93740588Y-86223842D01*
X93856805Y-86283058D01*
X93922974Y-86316773D01*
X93922976Y-86316773D01*
X93922979Y-86316775D01*
X94027335Y-86350682D01*
X94117663Y-86380032D01*
X94218755Y-86396043D01*
X94319846Y-86412055D01*
X94319847Y-86412055D01*
X94524549Y-86412055D01*
X94524550Y-86412055D01*
X94726732Y-86380032D01*
X94921417Y-86316775D01*
X95103808Y-86223842D01*
X95196788Y-86156287D01*
X95269411Y-86103526D01*
X95269413Y-86103523D01*
X95269417Y-86103521D01*
X95414164Y-85958774D01*
X95414166Y-85958770D01*
X95414169Y-85958768D01*
X95487820Y-85857394D01*
X95534485Y-85793165D01*
X95627418Y-85610774D01*
X95690675Y-85416089D01*
X95722698Y-85213907D01*
X95722698Y-85009203D01*
X95712857Y-84947069D01*
X95690675Y-84807020D01*
X95641144Y-84654580D01*
X95627418Y-84612336D01*
X95627416Y-84612333D01*
X95627416Y-84612331D01*
X95593701Y-84546162D01*
X95534485Y-84429945D01*
X95483348Y-84359560D01*
X95414169Y-84264341D01*
X95269411Y-84119583D01*
X95103812Y-83999270D01*
X95097204Y-83995903D01*
X95011115Y-83952038D01*
X94960321Y-83904066D01*
X94943526Y-83836245D01*
X94966063Y-83770110D01*
X95011115Y-83731071D01*
X95103808Y-83683842D01*
X95124968Y-83668468D01*
X95269411Y-83563526D01*
X95269413Y-83563523D01*
X95269417Y-83563521D01*
X95414164Y-83418774D01*
X95414166Y-83418770D01*
X95414169Y-83418768D01*
X95489345Y-83315295D01*
X95534485Y-83253165D01*
X95627418Y-83070774D01*
X95690675Y-82876089D01*
X95722698Y-82673907D01*
X95722698Y-82469203D01*
X95707213Y-82371435D01*
X95690675Y-82267020D01*
X95639577Y-82109758D01*
X95627418Y-82072336D01*
X95627416Y-82072333D01*
X95627416Y-82072331D01*
X95583850Y-81986829D01*
X95534485Y-81889945D01*
X95505641Y-81850244D01*
X95414169Y-81724341D01*
X95269411Y-81579583D01*
X95103811Y-81459270D01*
X95103810Y-81459269D01*
X95103808Y-81459268D01*
X95046851Y-81430246D01*
X94921421Y-81366336D01*
X94726732Y-81303077D01*
X94552193Y-81275433D01*
X94524550Y-81271055D01*
X94319846Y-81271055D01*
X94295527Y-81274906D01*
X94117663Y-81303077D01*
X93922974Y-81366336D01*
X93740584Y-81459270D01*
X93574984Y-81579583D01*
X93430226Y-81724341D01*
X93309913Y-81889941D01*
X93216979Y-82072331D01*
X93153720Y-82267020D01*
X93121698Y-82469203D01*
X91992036Y-82469203D01*
X92048612Y-82295081D01*
X92050610Y-82288933D01*
X92050610Y-82288932D01*
X92050611Y-82288929D01*
X92082634Y-82086747D01*
X92082634Y-81882043D01*
X92057655Y-81724336D01*
X92050611Y-81679860D01*
X92018029Y-81579583D01*
X91987354Y-81485176D01*
X91987352Y-81485173D01*
X91987352Y-81485171D01*
X91953637Y-81419002D01*
X91894421Y-81302785D01*
X91869953Y-81269107D01*
X91774105Y-81137181D01*
X91629347Y-80992423D01*
X91463747Y-80872110D01*
X91463746Y-80872109D01*
X91463744Y-80872108D01*
X91372012Y-80825368D01*
X91281357Y-80779176D01*
X91086668Y-80715917D01*
X90912129Y-80688273D01*
X90884486Y-80683895D01*
X90679782Y-80683895D01*
X90655463Y-80687746D01*
X90477599Y-80715917D01*
X90282910Y-80779176D01*
X90100520Y-80872110D01*
X89934920Y-80992423D01*
X89790162Y-81137181D01*
X89669849Y-81302781D01*
X89576915Y-81485171D01*
X89513656Y-81679860D01*
X89481634Y-81882043D01*
X67750500Y-81882043D01*
X67750500Y-81362229D01*
X67770185Y-81295190D01*
X67786819Y-81274548D01*
X68283973Y-80777394D01*
X68875137Y-80186230D01*
X68902390Y-80145442D01*
X68957269Y-80063310D01*
X69003426Y-79951878D01*
X69013844Y-79926727D01*
X69042685Y-79781732D01*
X69042685Y-79633897D01*
X69042685Y-76244026D01*
X69062370Y-76176987D01*
X69115174Y-76131232D01*
X69184332Y-76121288D01*
X69204996Y-76126093D01*
X69264971Y-76145580D01*
X69295403Y-76150400D01*
X69447560Y-76174500D01*
X69447565Y-76174500D01*
X69632440Y-76174500D01*
X69815030Y-76145580D01*
X69990849Y-76088453D01*
X69990852Y-76088452D01*
X70155572Y-76004523D01*
X70305136Y-75895859D01*
X70435859Y-75765136D01*
X70544523Y-75615572D01*
X70628452Y-75450852D01*
X70685580Y-75275029D01*
X70687527Y-75262737D01*
X70717456Y-75199602D01*
X70776768Y-75162671D01*
X70846630Y-75163669D01*
X70904863Y-75202279D01*
X70932473Y-75262737D01*
X70934420Y-75275030D01*
X70991546Y-75450849D01*
X70991547Y-75450852D01*
X71075479Y-75615575D01*
X71184135Y-75765129D01*
X71184139Y-75765134D01*
X71314865Y-75895860D01*
X71314870Y-75895864D01*
X71338342Y-75912917D01*
X71464428Y-76004523D01*
X71568723Y-76057664D01*
X71629147Y-76088452D01*
X71629150Y-76088453D01*
X71804969Y-76145580D01*
X71987560Y-76174500D01*
X71987565Y-76174500D01*
X72172440Y-76174500D01*
X72355030Y-76145580D01*
X72530849Y-76088453D01*
X72530852Y-76088452D01*
X72695572Y-76004523D01*
X72845136Y-75895859D01*
X72975859Y-75765136D01*
X73084523Y-75615572D01*
X73168452Y-75450852D01*
X73225580Y-75275029D01*
X73227527Y-75262737D01*
X73257456Y-75199602D01*
X73316768Y-75162671D01*
X73386630Y-75163669D01*
X73444863Y-75202279D01*
X73472473Y-75262737D01*
X73474420Y-75275030D01*
X73531546Y-75450849D01*
X73531547Y-75450852D01*
X73615479Y-75615575D01*
X73724135Y-75765129D01*
X73724139Y-75765134D01*
X73854865Y-75895860D01*
X73854870Y-75895864D01*
X73878342Y-75912917D01*
X74004428Y-76004523D01*
X74108723Y-76057664D01*
X74169147Y-76088452D01*
X74169150Y-76088453D01*
X74344969Y-76145580D01*
X74527560Y-76174500D01*
X74527565Y-76174500D01*
X74712440Y-76174500D01*
X74895030Y-76145580D01*
X75070849Y-76088453D01*
X75070852Y-76088452D01*
X75235572Y-76004523D01*
X75385136Y-75895859D01*
X75515859Y-75765136D01*
X75624523Y-75615572D01*
X75708452Y-75450852D01*
X75720625Y-75413386D01*
X75765580Y-75275030D01*
X75794500Y-75092440D01*
X75794500Y-74907559D01*
X75765580Y-74724969D01*
X75708453Y-74549150D01*
X75708452Y-74549147D01*
X75666715Y-74467234D01*
X75624523Y-74384428D01*
X75555758Y-74289780D01*
X75515864Y-74234870D01*
X75515860Y-74234865D01*
X75385134Y-74104139D01*
X75385129Y-74104135D01*
X75235573Y-73995477D01*
X75221893Y-73988507D01*
X75158163Y-73956035D01*
X75070852Y-73911547D01*
X75070849Y-73911546D01*
X74982667Y-73882894D01*
X93113182Y-73882894D01*
X93113182Y-74087597D01*
X93145204Y-74289780D01*
X93208463Y-74484469D01*
X93301397Y-74666859D01*
X93421710Y-74832459D01*
X93566468Y-74977217D01*
X93721431Y-75089802D01*
X93732072Y-75097533D01*
X93804106Y-75134236D01*
X93825311Y-75145041D01*
X93876107Y-75193016D01*
X93892902Y-75260837D01*
X93870364Y-75326972D01*
X93825311Y-75366011D01*
X93732332Y-75413386D01*
X93566787Y-75533663D01*
X93566786Y-75533663D01*
X93422099Y-75678350D01*
X93422099Y-75678351D01*
X93301822Y-75843896D01*
X93208926Y-76026216D01*
X93145691Y-76220832D01*
X93137073Y-76275246D01*
X93980670Y-76275246D01*
X93947757Y-76332253D01*
X93913682Y-76459420D01*
X93913682Y-76591072D01*
X93947757Y-76718239D01*
X93980670Y-76775246D01*
X93137073Y-76775246D01*
X93145691Y-76829659D01*
X93208926Y-77024275D01*
X93301822Y-77206595D01*
X93422099Y-77372140D01*
X93422099Y-77372141D01*
X93566786Y-77516828D01*
X93732334Y-77637107D01*
X93825310Y-77684480D01*
X93876107Y-77732454D01*
X93892902Y-77800275D01*
X93870365Y-77866410D01*
X93825312Y-77905449D01*
X93732070Y-77952959D01*
X93566468Y-78073274D01*
X93421710Y-78218032D01*
X93301397Y-78383632D01*
X93208463Y-78566022D01*
X93145204Y-78760711D01*
X93113182Y-78962894D01*
X93113182Y-79167597D01*
X93145204Y-79369780D01*
X93208463Y-79564469D01*
X93301397Y-79746859D01*
X93421710Y-79912459D01*
X93566468Y-80057217D01*
X93687898Y-80145439D01*
X93732072Y-80177533D01*
X93848289Y-80236749D01*
X93914458Y-80270464D01*
X93914460Y-80270464D01*
X93914463Y-80270466D01*
X93981052Y-80292102D01*
X94109147Y-80333723D01*
X94210239Y-80349734D01*
X94311330Y-80365746D01*
X94311331Y-80365746D01*
X94516033Y-80365746D01*
X94516034Y-80365746D01*
X94718216Y-80333723D01*
X94912901Y-80270466D01*
X95095292Y-80177533D01*
X95188272Y-80109978D01*
X95260895Y-80057217D01*
X95260897Y-80057214D01*
X95260901Y-80057212D01*
X95405648Y-79912465D01*
X95405650Y-79912461D01*
X95405653Y-79912459D01*
X95500627Y-79781736D01*
X95525969Y-79746856D01*
X95618902Y-79564465D01*
X95682159Y-79369780D01*
X95714182Y-79167598D01*
X95714182Y-78962894D01*
X95682159Y-78760712D01*
X95618902Y-78566027D01*
X95618900Y-78566024D01*
X95618900Y-78566022D01*
X95561266Y-78452911D01*
X95525969Y-78383636D01*
X95454574Y-78285368D01*
X95405653Y-78218032D01*
X95260895Y-78073274D01*
X95095293Y-77952959D01*
X95002051Y-77905449D01*
X94951256Y-77857475D01*
X94934461Y-77789653D01*
X94956999Y-77723519D01*
X95002053Y-77684480D01*
X95095029Y-77637107D01*
X95260576Y-77516828D01*
X95260577Y-77516828D01*
X95405264Y-77372141D01*
X95405264Y-77372140D01*
X95525541Y-77206595D01*
X95618437Y-77024275D01*
X95681672Y-76829659D01*
X95690291Y-76775246D01*
X94846694Y-76775246D01*
X94879607Y-76718239D01*
X94913682Y-76591072D01*
X94913682Y-76459420D01*
X94879607Y-76332253D01*
X94846694Y-76275246D01*
X95690291Y-76275246D01*
X95681672Y-76220832D01*
X95618437Y-76026216D01*
X95525541Y-75843896D01*
X95405264Y-75678351D01*
X95405264Y-75678350D01*
X95260577Y-75533663D01*
X95095031Y-75413386D01*
X95002052Y-75366011D01*
X94951256Y-75318036D01*
X94934461Y-75250215D01*
X94956998Y-75184081D01*
X95002052Y-75145041D01*
X95095292Y-75097533D01*
X95165543Y-75046493D01*
X95260895Y-74977217D01*
X95260897Y-74977214D01*
X95260901Y-74977212D01*
X95405648Y-74832465D01*
X95405650Y-74832461D01*
X95405653Y-74832459D01*
X95483746Y-74724971D01*
X95525969Y-74666856D01*
X95618902Y-74484465D01*
X95682159Y-74289780D01*
X95714182Y-74087598D01*
X95714182Y-73882894D01*
X95705092Y-73825500D01*
X95682159Y-73680711D01*
X95618900Y-73486022D01*
X95561266Y-73372911D01*
X95525969Y-73303636D01*
X95488887Y-73252596D01*
X95405653Y-73138032D01*
X95260895Y-72993274D01*
X95095295Y-72872961D01*
X95095294Y-72872960D01*
X95095292Y-72872959D01*
X95038335Y-72843937D01*
X94912905Y-72780027D01*
X94718216Y-72716768D01*
X94543677Y-72689124D01*
X94516034Y-72684746D01*
X94311330Y-72684746D01*
X94287011Y-72688597D01*
X94109147Y-72716768D01*
X93914458Y-72780027D01*
X93732068Y-72872961D01*
X93566468Y-72993274D01*
X93421710Y-73138032D01*
X93301397Y-73303632D01*
X93208463Y-73486022D01*
X93145204Y-73680711D01*
X93113182Y-73882894D01*
X74982667Y-73882894D01*
X74895030Y-73854419D01*
X74712440Y-73825500D01*
X74712435Y-73825500D01*
X74527565Y-73825500D01*
X74527560Y-73825500D01*
X74344969Y-73854419D01*
X74169150Y-73911546D01*
X74169147Y-73911547D01*
X74004424Y-73995479D01*
X73854870Y-74104135D01*
X73854865Y-74104139D01*
X73724139Y-74234865D01*
X73724135Y-74234870D01*
X73615479Y-74384424D01*
X73531547Y-74549147D01*
X73531546Y-74549150D01*
X73474420Y-74724969D01*
X73472473Y-74737263D01*
X73442543Y-74800397D01*
X73383231Y-74837328D01*
X73313369Y-74836330D01*
X73255136Y-74797719D01*
X73227527Y-74737263D01*
X73227192Y-74735150D01*
X73225580Y-74724971D01*
X73168452Y-74549148D01*
X73168452Y-74549147D01*
X73126715Y-74467234D01*
X73084523Y-74384428D01*
X73015758Y-74289780D01*
X72975864Y-74234870D01*
X72975860Y-74234865D01*
X72845134Y-74104139D01*
X72845129Y-74104135D01*
X72695575Y-73995479D01*
X72695574Y-73995478D01*
X72695572Y-73995477D01*
X72618163Y-73956035D01*
X72530852Y-73911547D01*
X72530849Y-73911546D01*
X72355030Y-73854419D01*
X72172440Y-73825500D01*
X72172435Y-73825500D01*
X71987565Y-73825500D01*
X71987560Y-73825500D01*
X71804969Y-73854419D01*
X71629150Y-73911546D01*
X71629147Y-73911547D01*
X71464424Y-73995479D01*
X71314870Y-74104135D01*
X71314865Y-74104139D01*
X71184139Y-74234865D01*
X71184135Y-74234870D01*
X71075479Y-74384424D01*
X70991547Y-74549147D01*
X70991546Y-74549150D01*
X70934420Y-74724969D01*
X70932473Y-74737263D01*
X70902543Y-74800397D01*
X70843231Y-74837328D01*
X70773369Y-74836330D01*
X70715136Y-74797719D01*
X70687527Y-74737263D01*
X70687192Y-74735150D01*
X70685580Y-74724971D01*
X70628452Y-74549148D01*
X70628452Y-74549147D01*
X70586715Y-74467234D01*
X70544523Y-74384428D01*
X70475758Y-74289780D01*
X70435864Y-74234870D01*
X70435860Y-74234865D01*
X70305134Y-74104139D01*
X70305129Y-74104135D01*
X70155575Y-73995479D01*
X70155574Y-73995478D01*
X70155572Y-73995477D01*
X70078163Y-73956035D01*
X69990852Y-73911547D01*
X69990849Y-73911546D01*
X69815030Y-73854419D01*
X69632440Y-73825500D01*
X69632435Y-73825500D01*
X69447565Y-73825500D01*
X69447560Y-73825500D01*
X69264967Y-73854420D01*
X69205002Y-73873904D01*
X69135161Y-73875899D01*
X69075329Y-73839818D01*
X69044501Y-73777117D01*
X69042685Y-73755973D01*
X69042685Y-71178801D01*
X69062370Y-71111762D01*
X69115174Y-71066007D01*
X69184332Y-71056063D01*
X69185995Y-71056314D01*
X69212136Y-71060455D01*
X69212139Y-71060455D01*
X69416839Y-71060455D01*
X69416840Y-71060455D01*
X69619022Y-71028432D01*
X69813707Y-70965175D01*
X69996098Y-70872242D01*
X70137184Y-70769738D01*
X70161701Y-70751926D01*
X70161703Y-70751923D01*
X70161707Y-70751921D01*
X70306454Y-70607174D01*
X70306456Y-70607170D01*
X70306459Y-70607168D01*
X70426772Y-70441569D01*
X70426773Y-70441568D01*
X70426775Y-70441565D01*
X70474004Y-70348872D01*
X70521977Y-70298078D01*
X70589798Y-70281283D01*
X70655933Y-70303820D01*
X70694971Y-70348872D01*
X70722616Y-70403127D01*
X70742203Y-70441569D01*
X70862516Y-70607168D01*
X71007274Y-70751926D01*
X71135546Y-70845119D01*
X71172878Y-70872242D01*
X71267586Y-70920498D01*
X71355264Y-70965173D01*
X71355266Y-70965173D01*
X71355269Y-70965175D01*
X71434701Y-70990984D01*
X71549953Y-71028432D01*
X71632221Y-71041462D01*
X71752136Y-71060455D01*
X71752137Y-71060455D01*
X71956839Y-71060455D01*
X71956840Y-71060455D01*
X72159022Y-71028432D01*
X72353707Y-70965175D01*
X72536098Y-70872242D01*
X72677184Y-70769738D01*
X72701701Y-70751926D01*
X72701703Y-70751923D01*
X72701707Y-70751921D01*
X72846454Y-70607174D01*
X72846456Y-70607170D01*
X72846459Y-70607168D01*
X72966772Y-70441569D01*
X72966773Y-70441568D01*
X72966775Y-70441565D01*
X73014004Y-70348872D01*
X73061977Y-70298078D01*
X73129798Y-70281283D01*
X73195933Y-70303820D01*
X73234971Y-70348872D01*
X73262616Y-70403127D01*
X73282203Y-70441569D01*
X73402516Y-70607168D01*
X73547274Y-70751926D01*
X73675546Y-70845119D01*
X73712878Y-70872242D01*
X73807586Y-70920498D01*
X73895264Y-70965173D01*
X73895266Y-70965173D01*
X73895269Y-70965175D01*
X73974701Y-70990984D01*
X74089953Y-71028432D01*
X74172221Y-71041462D01*
X74292136Y-71060455D01*
X74292137Y-71060455D01*
X74496839Y-71060455D01*
X74496840Y-71060455D01*
X74699022Y-71028432D01*
X74893707Y-70965175D01*
X75076098Y-70872242D01*
X75217184Y-70769738D01*
X75241701Y-70751926D01*
X75241703Y-70751923D01*
X75241707Y-70751921D01*
X75386454Y-70607174D01*
X75386456Y-70607170D01*
X75386459Y-70607168D01*
X75439220Y-70534545D01*
X75506775Y-70441565D01*
X75599708Y-70259174D01*
X75646697Y-70114555D01*
X75656470Y-70084479D01*
X75662965Y-70064489D01*
X75685667Y-69921158D01*
X75694988Y-69862307D01*
X75694988Y-69657603D01*
X75686727Y-69605447D01*
X75662965Y-69455420D01*
X75632685Y-69362229D01*
X75599708Y-69260736D01*
X75599706Y-69260733D01*
X75599706Y-69260731D01*
X75534003Y-69131783D01*
X75506775Y-69078345D01*
X75492874Y-69059212D01*
X75386459Y-68912741D01*
X75241701Y-68767983D01*
X75076101Y-68647670D01*
X75076100Y-68647669D01*
X75076098Y-68647668D01*
X75019141Y-68618646D01*
X74893711Y-68554736D01*
X74699022Y-68491477D01*
X74524483Y-68463833D01*
X74496840Y-68459455D01*
X74292136Y-68459455D01*
X74267817Y-68463306D01*
X74089953Y-68491477D01*
X73895264Y-68554736D01*
X73712874Y-68647670D01*
X73547274Y-68767983D01*
X73402516Y-68912741D01*
X73282203Y-69078341D01*
X73234973Y-69171035D01*
X73186998Y-69221831D01*
X73119177Y-69238626D01*
X73053042Y-69216089D01*
X73014003Y-69171035D01*
X72994003Y-69131783D01*
X72966775Y-69078345D01*
X72952874Y-69059212D01*
X72846459Y-68912741D01*
X72701701Y-68767983D01*
X72536101Y-68647670D01*
X72536100Y-68647669D01*
X72536098Y-68647668D01*
X72479141Y-68618646D01*
X72353711Y-68554736D01*
X72159022Y-68491477D01*
X71984483Y-68463833D01*
X71956840Y-68459455D01*
X71752136Y-68459455D01*
X71727817Y-68463306D01*
X71549953Y-68491477D01*
X71355264Y-68554736D01*
X71172874Y-68647670D01*
X71007274Y-68767983D01*
X70862516Y-68912741D01*
X70742203Y-69078341D01*
X70694973Y-69171035D01*
X70646998Y-69221831D01*
X70579177Y-69238626D01*
X70513042Y-69216089D01*
X70474003Y-69171035D01*
X70454003Y-69131783D01*
X70426775Y-69078345D01*
X70412874Y-69059212D01*
X70306459Y-68912741D01*
X70161701Y-68767983D01*
X69996101Y-68647670D01*
X69996100Y-68647669D01*
X69996098Y-68647668D01*
X69939141Y-68618646D01*
X69813711Y-68554736D01*
X69619022Y-68491477D01*
X69444483Y-68463833D01*
X69416840Y-68459455D01*
X69212136Y-68459455D01*
X69187817Y-68463306D01*
X69009953Y-68491477D01*
X68815264Y-68554736D01*
X68632874Y-68647670D01*
X68467274Y-68767983D01*
X68322516Y-68912741D01*
X68202203Y-69078341D01*
X68154973Y-69171035D01*
X68106998Y-69221831D01*
X68039177Y-69238626D01*
X67973042Y-69216089D01*
X67934003Y-69171035D01*
X67914003Y-69131783D01*
X67886775Y-69078345D01*
X67872874Y-69059212D01*
X67766459Y-68912741D01*
X67621701Y-68767983D01*
X67456101Y-68647670D01*
X67456100Y-68647669D01*
X67456098Y-68647668D01*
X67399141Y-68618646D01*
X67273711Y-68554736D01*
X67079022Y-68491477D01*
X66904483Y-68463833D01*
X66876840Y-68459455D01*
X66672136Y-68459455D01*
X66647817Y-68463306D01*
X66469953Y-68491477D01*
X66275264Y-68554736D01*
X66092874Y-68647670D01*
X65927274Y-68767983D01*
X65782516Y-68912741D01*
X65662203Y-69078341D01*
X65614973Y-69171035D01*
X65566998Y-69221831D01*
X65499177Y-69238626D01*
X65433042Y-69216089D01*
X65394003Y-69171035D01*
X65374003Y-69131783D01*
X65346775Y-69078345D01*
X65332874Y-69059212D01*
X65226459Y-68912741D01*
X65081701Y-68767983D01*
X64916101Y-68647670D01*
X64916100Y-68647669D01*
X64916098Y-68647668D01*
X64859141Y-68618646D01*
X64733711Y-68554736D01*
X64539022Y-68491477D01*
X64364483Y-68463833D01*
X64336840Y-68459455D01*
X64132136Y-68459455D01*
X64107817Y-68463306D01*
X63929953Y-68491477D01*
X63735264Y-68554736D01*
X63552874Y-68647670D01*
X63387274Y-68767983D01*
X63242516Y-68912741D01*
X63122201Y-69078343D01*
X63094972Y-69131783D01*
X63046998Y-69182578D01*
X62979176Y-69199373D01*
X62913042Y-69176835D01*
X62874004Y-69131783D01*
X62846774Y-69078343D01*
X62726459Y-68912741D01*
X62581701Y-68767983D01*
X62416101Y-68647670D01*
X62416100Y-68647669D01*
X62416098Y-68647668D01*
X62359141Y-68618646D01*
X62233711Y-68554736D01*
X62039022Y-68491477D01*
X61864483Y-68463833D01*
X61836840Y-68459455D01*
X61632136Y-68459455D01*
X61607817Y-68463306D01*
X61429953Y-68491477D01*
X61235264Y-68554736D01*
X61052874Y-68647670D01*
X60887274Y-68767983D01*
X60742516Y-68912741D01*
X60622201Y-69078343D01*
X60562823Y-69194878D01*
X60514849Y-69245673D01*
X60447028Y-69262468D01*
X60380893Y-69239930D01*
X60341854Y-69194877D01*
X60338350Y-69188000D01*
X60272732Y-69059217D01*
X60272730Y-69059214D01*
X60272729Y-69059212D01*
X60152416Y-68893613D01*
X60007658Y-68748855D01*
X59842058Y-68628542D01*
X59842057Y-68628541D01*
X59842055Y-68628540D01*
X59785098Y-68599518D01*
X59659668Y-68535608D01*
X59464979Y-68472349D01*
X59290440Y-68444705D01*
X59262797Y-68440327D01*
X59058093Y-68440327D01*
X59037296Y-68443621D01*
X58855910Y-68472349D01*
X58661221Y-68535608D01*
X58478831Y-68628542D01*
X58313231Y-68748855D01*
X58168473Y-68893613D01*
X58048160Y-69059213D01*
X57955226Y-69241603D01*
X57891967Y-69436292D01*
X57865587Y-69602854D01*
X57859945Y-69638475D01*
X57859945Y-69843179D01*
X57862975Y-69862307D01*
X57891967Y-70045361D01*
X57955226Y-70240050D01*
X57990848Y-70309960D01*
X58041750Y-70409861D01*
X58048160Y-70422440D01*
X58168473Y-70588040D01*
X58313231Y-70732798D01*
X58419574Y-70810059D01*
X58478835Y-70853114D01*
X58573686Y-70901443D01*
X58661221Y-70946045D01*
X58661223Y-70946045D01*
X58661226Y-70946047D01*
X58720090Y-70965173D01*
X58855910Y-71009304D01*
X58934301Y-71021720D01*
X59058093Y-71041327D01*
X59058094Y-71041327D01*
X59262795Y-71041327D01*
X59262797Y-71041327D01*
X59318472Y-71032508D01*
X59387764Y-71041462D01*
X59425551Y-71067300D01*
X59844518Y-71486267D01*
X59878003Y-71547590D01*
X59880837Y-71573948D01*
X59880837Y-73757117D01*
X59861152Y-73824156D01*
X59808348Y-73869911D01*
X59739190Y-73879855D01*
X59718520Y-73875048D01*
X59655032Y-73854420D01*
X59472440Y-73825500D01*
X59472435Y-73825500D01*
X59287565Y-73825500D01*
X59287560Y-73825500D01*
X59104969Y-73854419D01*
X58929150Y-73911546D01*
X58929147Y-73911547D01*
X58764424Y-73995479D01*
X58614870Y-74104135D01*
X58614865Y-74104139D01*
X58484139Y-74234865D01*
X58484135Y-74234870D01*
X58375479Y-74384424D01*
X58291547Y-74549147D01*
X58291546Y-74549150D01*
X58234420Y-74724969D01*
X58232473Y-74737263D01*
X58202543Y-74800397D01*
X58143231Y-74837328D01*
X58073369Y-74836330D01*
X58015136Y-74797719D01*
X57987527Y-74737263D01*
X57987192Y-74735150D01*
X57985580Y-74724971D01*
X57928452Y-74549148D01*
X57928452Y-74549147D01*
X57886715Y-74467234D01*
X57844523Y-74384428D01*
X57775758Y-74289780D01*
X57735864Y-74234870D01*
X57735860Y-74234865D01*
X57605134Y-74104139D01*
X57605129Y-74104135D01*
X57455575Y-73995479D01*
X57455574Y-73995478D01*
X57455572Y-73995477D01*
X57378163Y-73956035D01*
X57290852Y-73911547D01*
X57290849Y-73911546D01*
X57115030Y-73854419D01*
X56932440Y-73825500D01*
X56932435Y-73825500D01*
X56747565Y-73825500D01*
X56747560Y-73825500D01*
X56564969Y-73854419D01*
X56389150Y-73911546D01*
X56389147Y-73911547D01*
X56224424Y-73995479D01*
X56074870Y-74104135D01*
X56074865Y-74104139D01*
X55944139Y-74234865D01*
X55944135Y-74234870D01*
X55835479Y-74384424D01*
X55751547Y-74549147D01*
X55751546Y-74549150D01*
X55694419Y-74724969D01*
X55665500Y-74907559D01*
X53750500Y-74907559D01*
X53750500Y-69362229D01*
X53770185Y-69295190D01*
X53786819Y-69274548D01*
X59978730Y-63082637D01*
X60040053Y-63049152D01*
X60066411Y-63046318D01*
X82170701Y-63046318D01*
X82237740Y-63066003D01*
X82271019Y-63097433D01*
X82304147Y-63143030D01*
X82304151Y-63143035D01*
X82448905Y-63287789D01*
X82553727Y-63363945D01*
X82614509Y-63408105D01*
X82705959Y-63454701D01*
X82707199Y-63455333D01*
X82757995Y-63503308D01*
X82774790Y-63571129D01*
X82752253Y-63637264D01*
X82707199Y-63676303D01*
X82614505Y-63723533D01*
X82448905Y-63843846D01*
X82304151Y-63988600D01*
X82304147Y-63988605D01*
X82271019Y-64034203D01*
X82215690Y-64076869D01*
X82170701Y-64085318D01*
X79090258Y-64085318D01*
X79061424Y-64091052D01*
X79061425Y-64091053D01*
X78945275Y-64114157D01*
X78945265Y-64114160D01*
X78865263Y-64147297D01*
X78865264Y-64147298D01*
X78808688Y-64170733D01*
X78767827Y-64198036D01*
X78685764Y-64252867D01*
X78685761Y-64252870D01*
X76725451Y-66213181D01*
X76664128Y-66246666D01*
X76637770Y-66249500D01*
X76304604Y-66249500D01*
X76257155Y-66240062D01*
X76233497Y-66230263D01*
X76233493Y-66230262D01*
X76233488Y-66230260D01*
X76078845Y-66199500D01*
X76078842Y-66199500D01*
X75921158Y-66199500D01*
X75921155Y-66199500D01*
X75766510Y-66230261D01*
X75766498Y-66230264D01*
X75620827Y-66290602D01*
X75620814Y-66290609D01*
X75489711Y-66378210D01*
X75489707Y-66378213D01*
X75378213Y-66489707D01*
X75378210Y-66489711D01*
X75290609Y-66620814D01*
X75290602Y-66620827D01*
X75230264Y-66766498D01*
X75230261Y-66766510D01*
X75199500Y-66921153D01*
X75199500Y-67078846D01*
X75230261Y-67233489D01*
X75230264Y-67233501D01*
X75290602Y-67379172D01*
X75290609Y-67379185D01*
X75378210Y-67510288D01*
X75378213Y-67510292D01*
X75489707Y-67621786D01*
X75489711Y-67621789D01*
X75620814Y-67709390D01*
X75620827Y-67709397D01*
X75720060Y-67750500D01*
X75766503Y-67769737D01*
X75921153Y-67800499D01*
X75921156Y-67800500D01*
X75921158Y-67800500D01*
X76078844Y-67800500D01*
X76078845Y-67800499D01*
X76155152Y-67785320D01*
X76233488Y-67769739D01*
X76233489Y-67769738D01*
X76233497Y-67769737D01*
X76257155Y-67759937D01*
X76304604Y-67750500D01*
X77073920Y-67750500D01*
X77171462Y-67731096D01*
X77218913Y-67721658D01*
X77355495Y-67665084D01*
X77420291Y-67621789D01*
X77420294Y-67621786D01*
X77420296Y-67621786D01*
X77449547Y-67602240D01*
X77478416Y-67582952D01*
X79438730Y-65622636D01*
X79500053Y-65589152D01*
X79526411Y-65586318D01*
X82170701Y-65586318D01*
X82237740Y-65606003D01*
X82271019Y-65637433D01*
X82304147Y-65683030D01*
X82304151Y-65683035D01*
X82448905Y-65827789D01*
X82614507Y-65948104D01*
X82667947Y-65975334D01*
X82718742Y-66023308D01*
X82735537Y-66091130D01*
X82712999Y-66157264D01*
X82667947Y-66196302D01*
X82614507Y-66223531D01*
X82448905Y-66343846D01*
X82304147Y-66488604D01*
X82183834Y-66654204D01*
X82090900Y-66836594D01*
X82027641Y-67031283D01*
X81995619Y-67233466D01*
X81995619Y-67438169D01*
X82027641Y-67640352D01*
X82090900Y-67835041D01*
X82154810Y-67960471D01*
X82177475Y-68004952D01*
X82183834Y-68017431D01*
X82304147Y-68183031D01*
X82448905Y-68327789D01*
X82614504Y-68448102D01*
X82614506Y-68448103D01*
X82614509Y-68448105D01*
X82731591Y-68507761D01*
X82782387Y-68555735D01*
X82799182Y-68623556D01*
X82776645Y-68689691D01*
X82731591Y-68728731D01*
X82595641Y-68798001D01*
X82430096Y-68918278D01*
X82430095Y-68918278D01*
X82285408Y-69062965D01*
X82285408Y-69062966D01*
X82165131Y-69228511D01*
X82072235Y-69410831D01*
X82009000Y-69605447D01*
X82000382Y-69659861D01*
X82843979Y-69659861D01*
X82811066Y-69716868D01*
X82776991Y-69844035D01*
X82776991Y-69975687D01*
X82811066Y-70102854D01*
X82843979Y-70159861D01*
X82000382Y-70159861D01*
X82009000Y-70214274D01*
X82072235Y-70408890D01*
X82165131Y-70591210D01*
X82285408Y-70756755D01*
X82285408Y-70756756D01*
X82430095Y-70901443D01*
X82595641Y-71021720D01*
X82777959Y-71114615D01*
X82972569Y-71177849D01*
X83026991Y-71186468D01*
X83026991Y-70342873D01*
X83083998Y-70375786D01*
X83211165Y-70409861D01*
X83342817Y-70409861D01*
X83469984Y-70375786D01*
X83526991Y-70342873D01*
X83526991Y-71186467D01*
X83581412Y-71177849D01*
X83776022Y-71114615D01*
X83958340Y-71021720D01*
X84123885Y-70901443D01*
X84123886Y-70901443D01*
X84268573Y-70756756D01*
X84268573Y-70756755D01*
X84388850Y-70591210D01*
X84481746Y-70408890D01*
X84544981Y-70214274D01*
X84553600Y-70159861D01*
X83710003Y-70159861D01*
X83742916Y-70102854D01*
X83776991Y-69975687D01*
X83776991Y-69844035D01*
X83742916Y-69716868D01*
X83710003Y-69659861D01*
X84553600Y-69659861D01*
X84544981Y-69605447D01*
X84481746Y-69410831D01*
X84394410Y-69239423D01*
X84394409Y-69239421D01*
X84388850Y-69228511D01*
X84359417Y-69188000D01*
X89500762Y-69188000D01*
X89500762Y-69392704D01*
X89503633Y-69410831D01*
X89532784Y-69594886D01*
X89596043Y-69789575D01*
X89659953Y-69915005D01*
X89671589Y-69937841D01*
X89688977Y-69971965D01*
X89809290Y-70137565D01*
X89954048Y-70282323D01*
X90087352Y-70379172D01*
X90119652Y-70402639D01*
X90235869Y-70461855D01*
X90302038Y-70495570D01*
X90302040Y-70495570D01*
X90302043Y-70495572D01*
X90350412Y-70511288D01*
X90496727Y-70558829D01*
X90597819Y-70574840D01*
X90698910Y-70590852D01*
X90698911Y-70590852D01*
X90903613Y-70590852D01*
X90903614Y-70590852D01*
X91105796Y-70558829D01*
X91300481Y-70495572D01*
X91482872Y-70402639D01*
X91596577Y-70320028D01*
X91648475Y-70282323D01*
X91648477Y-70282320D01*
X91648481Y-70282318D01*
X91793228Y-70137571D01*
X91793230Y-70137567D01*
X91793233Y-70137565D01*
X91860222Y-70045361D01*
X91913549Y-69971962D01*
X92006482Y-69789571D01*
X92069739Y-69594886D01*
X92101762Y-69392704D01*
X92101762Y-69188000D01*
X92084394Y-69078343D01*
X92069739Y-68985817D01*
X92039778Y-68893608D01*
X92006482Y-68791133D01*
X92006480Y-68791130D01*
X92006480Y-68791128D01*
X91955208Y-68690502D01*
X91913549Y-68608742D01*
X91875627Y-68556546D01*
X91793233Y-68443138D01*
X91648475Y-68298380D01*
X91482875Y-68178067D01*
X91482874Y-68178066D01*
X91482872Y-68178065D01*
X91425915Y-68149043D01*
X91300485Y-68085133D01*
X91105796Y-68021874D01*
X90931257Y-67994230D01*
X90903614Y-67989852D01*
X90698910Y-67989852D01*
X90674591Y-67993703D01*
X90496727Y-68021874D01*
X90302038Y-68085133D01*
X90119648Y-68178067D01*
X89954048Y-68298380D01*
X89809290Y-68443138D01*
X89688977Y-68608738D01*
X89596043Y-68791128D01*
X89532784Y-68985817D01*
X89509666Y-69131783D01*
X89500762Y-69188000D01*
X84359417Y-69188000D01*
X84268573Y-69062966D01*
X84268573Y-69062965D01*
X84123886Y-68918278D01*
X83958340Y-68798001D01*
X83841518Y-68738477D01*
X83790722Y-68690502D01*
X83773927Y-68622681D01*
X83796465Y-68556546D01*
X83841517Y-68517508D01*
X83977729Y-68448105D01*
X84027263Y-68412116D01*
X84143332Y-68327789D01*
X84143334Y-68327786D01*
X84143338Y-68327784D01*
X84288085Y-68183037D01*
X84288087Y-68183033D01*
X84288090Y-68183031D01*
X84359216Y-68085133D01*
X84408406Y-68017428D01*
X84501339Y-67835037D01*
X84564596Y-67640352D01*
X84596619Y-67438170D01*
X84596619Y-67233466D01*
X84564596Y-67031284D01*
X84501339Y-66836599D01*
X84501337Y-66836596D01*
X84501337Y-66836594D01*
X84465621Y-66766498D01*
X84408406Y-66654208D01*
X84400675Y-66643567D01*
X84288090Y-66488604D01*
X84143332Y-66343846D01*
X83977732Y-66223533D01*
X83977731Y-66223532D01*
X83977729Y-66223531D01*
X83924290Y-66196302D01*
X83873495Y-66148328D01*
X83856700Y-66080507D01*
X83879237Y-66014372D01*
X83924291Y-65975333D01*
X83977729Y-65948105D01*
X84070709Y-65880550D01*
X84143332Y-65827789D01*
X84143334Y-65827786D01*
X84143338Y-65827784D01*
X84288085Y-65683037D01*
X84288087Y-65683033D01*
X84288090Y-65683031D01*
X84358355Y-65586318D01*
X84408406Y-65517428D01*
X84501339Y-65335037D01*
X84564596Y-65140352D01*
X84596619Y-64938170D01*
X84596619Y-64733466D01*
X84564596Y-64531284D01*
X84501339Y-64336599D01*
X84501337Y-64336596D01*
X84501337Y-64336594D01*
X84458675Y-64252866D01*
X84408406Y-64154208D01*
X84379309Y-64114159D01*
X84288090Y-63988604D01*
X84143332Y-63843846D01*
X83977733Y-63723533D01*
X83954725Y-63711810D01*
X83885036Y-63676301D01*
X83834242Y-63628329D01*
X83817447Y-63560508D01*
X83839984Y-63494373D01*
X83885036Y-63455334D01*
X83977729Y-63408105D01*
X84038512Y-63363944D01*
X84143332Y-63287789D01*
X84143334Y-63287786D01*
X84143338Y-63287784D01*
X84288085Y-63143037D01*
X84288087Y-63143033D01*
X84288090Y-63143031D01*
X84358355Y-63046318D01*
X84408406Y-62977428D01*
X84501339Y-62795037D01*
X84564596Y-62600352D01*
X84596619Y-62398170D01*
X84596619Y-62193466D01*
X84564596Y-61991284D01*
X84501339Y-61796599D01*
X84501337Y-61796596D01*
X84501337Y-61796594D01*
X84443905Y-61683879D01*
X84408406Y-61614208D01*
X84400675Y-61603567D01*
X84288090Y-61448604D01*
X84143332Y-61303846D01*
X83977733Y-61183533D01*
X83954354Y-61171621D01*
X83885036Y-61136301D01*
X83834242Y-61088329D01*
X83817447Y-61020508D01*
X83839984Y-60954373D01*
X83885036Y-60915334D01*
X83977729Y-60868105D01*
X84038950Y-60823626D01*
X84143332Y-60747789D01*
X84143334Y-60747786D01*
X84143338Y-60747784D01*
X84288085Y-60603037D01*
X84288087Y-60603033D01*
X84288090Y-60603031D01*
X84340851Y-60530408D01*
X84408406Y-60437428D01*
X84501339Y-60255037D01*
X84564596Y-60060352D01*
X84596619Y-59858170D01*
X84596619Y-59653466D01*
X84564596Y-59451284D01*
X84501339Y-59256599D01*
X84501337Y-59256596D01*
X84501337Y-59256594D01*
X84467622Y-59190425D01*
X84408406Y-59074208D01*
X84400675Y-59063567D01*
X84288090Y-58908604D01*
X84143332Y-58763846D01*
X83977733Y-58643533D01*
X83971125Y-58640166D01*
X83885036Y-58596301D01*
X83834242Y-58548329D01*
X83817447Y-58480508D01*
X83839984Y-58414373D01*
X83885036Y-58375334D01*
X83977729Y-58328105D01*
X83998889Y-58312731D01*
X84143332Y-58207789D01*
X84143334Y-58207786D01*
X84143338Y-58207784D01*
X84288085Y-58063037D01*
X84288087Y-58063033D01*
X84288090Y-58063031D01*
X84373856Y-57944982D01*
X84408406Y-57897428D01*
X84501339Y-57715037D01*
X84564596Y-57520352D01*
X84596619Y-57318170D01*
X84596619Y-57113466D01*
X84564596Y-56911284D01*
X84501339Y-56716599D01*
X84501337Y-56716596D01*
X84501337Y-56716594D01*
X84467622Y-56650425D01*
X84408406Y-56534208D01*
X84400675Y-56523567D01*
X84288090Y-56368604D01*
X84143332Y-56223846D01*
X83977733Y-56103533D01*
X83971125Y-56100166D01*
X83885036Y-56056301D01*
X83834242Y-56008329D01*
X83817447Y-55940508D01*
X83839984Y-55874373D01*
X83885036Y-55835334D01*
X83977729Y-55788105D01*
X83998889Y-55772731D01*
X84143332Y-55667789D01*
X84143334Y-55667786D01*
X84143338Y-55667784D01*
X84288085Y-55523037D01*
X84288087Y-55523033D01*
X84288090Y-55523031D01*
X84359739Y-55424413D01*
X84408406Y-55357428D01*
X84501339Y-55175037D01*
X84564596Y-54980352D01*
X84596619Y-54778170D01*
X84596619Y-54573466D01*
X84564596Y-54371284D01*
X84501339Y-54176599D01*
X84501337Y-54176596D01*
X84501337Y-54176594D01*
X84467622Y-54110425D01*
X84408406Y-53994208D01*
X84368201Y-53938870D01*
X84288090Y-53828604D01*
X84143332Y-53683846D01*
X83977733Y-53563533D01*
X83927480Y-53537928D01*
X83885036Y-53516301D01*
X83834242Y-53468329D01*
X83817447Y-53400508D01*
X83839984Y-53334373D01*
X83885036Y-53295334D01*
X83977729Y-53248105D01*
X84005997Y-53227567D01*
X84143332Y-53127789D01*
X84143334Y-53127786D01*
X84143338Y-53127784D01*
X84288085Y-52983037D01*
X84288087Y-52983033D01*
X84288090Y-52983031D01*
X84340851Y-52910408D01*
X84408406Y-52817428D01*
X84501339Y-52635037D01*
X84564596Y-52440352D01*
X84596619Y-52238170D01*
X84596619Y-52033466D01*
X84564596Y-51831284D01*
X84501339Y-51636599D01*
X84501337Y-51636596D01*
X84501337Y-51636594D01*
X84459245Y-51553985D01*
X84408406Y-51454208D01*
X84393484Y-51433670D01*
X84288090Y-51288604D01*
X84143332Y-51143846D01*
X83977732Y-51023533D01*
X83977731Y-51023532D01*
X83977729Y-51023531D01*
X83920772Y-50994509D01*
X83795342Y-50930599D01*
X83600653Y-50867340D01*
X83426114Y-50839696D01*
X83398471Y-50835318D01*
X83193767Y-50835318D01*
X83169448Y-50839169D01*
X82991584Y-50867340D01*
X82796895Y-50930599D01*
X82614505Y-51023533D01*
X82448905Y-51143846D01*
X82304147Y-51288604D01*
X82183834Y-51454204D01*
X82090900Y-51636594D01*
X82027641Y-51831283D01*
X81995619Y-52033466D01*
X81995619Y-52238169D01*
X82027641Y-52440352D01*
X82090900Y-52635041D01*
X82183834Y-52817431D01*
X82304147Y-52983031D01*
X82448905Y-53127789D01*
X82586245Y-53227570D01*
X82614509Y-53248105D01*
X82705959Y-53294701D01*
X82707199Y-53295333D01*
X82757995Y-53343308D01*
X82774790Y-53411129D01*
X82752253Y-53477264D01*
X82707199Y-53516303D01*
X82614505Y-53563533D01*
X82448905Y-53683846D01*
X82304147Y-53828604D01*
X82183834Y-53994204D01*
X82090900Y-54176594D01*
X82027641Y-54371283D01*
X81995619Y-54573466D01*
X81995619Y-54778169D01*
X82027641Y-54980352D01*
X82090900Y-55175041D01*
X82183834Y-55357431D01*
X82304147Y-55523031D01*
X82448905Y-55667789D01*
X82603868Y-55780374D01*
X82614509Y-55788105D01*
X82705959Y-55834701D01*
X82707199Y-55835333D01*
X82757995Y-55883308D01*
X82774790Y-55951129D01*
X82752253Y-56017264D01*
X82707199Y-56056303D01*
X82614505Y-56103533D01*
X82448905Y-56223846D01*
X82304147Y-56368604D01*
X82183834Y-56534204D01*
X82090900Y-56716594D01*
X82027641Y-56911283D01*
X81995619Y-57113466D01*
X81995619Y-57318169D01*
X82027641Y-57520352D01*
X82090900Y-57715041D01*
X82119574Y-57771315D01*
X82132470Y-57839984D01*
X82106194Y-57904725D01*
X82049087Y-57944982D01*
X81979282Y-57947974D01*
X81921408Y-57915291D01*
X66344402Y-42338285D01*
X66330172Y-42312225D01*
X66313701Y-42287507D01*
X66313607Y-42281889D01*
X66310917Y-42276962D01*
X66313035Y-42247342D01*
X66312543Y-42217647D01*
X66315615Y-42211265D01*
X66315901Y-42207270D01*
X66326670Y-42185303D01*
X66329066Y-42181434D01*
X66401674Y-42081498D01*
X66451254Y-41984191D01*
X66453974Y-41979801D01*
X66476295Y-41959802D01*
X66496876Y-41938011D01*
X66502046Y-41936730D01*
X66506013Y-41933177D01*
X66535606Y-41928419D01*
X66564697Y-41921216D01*
X66569737Y-41922933D01*
X66574997Y-41922088D01*
X66602465Y-41934086D01*
X66630832Y-41943753D01*
X66634630Y-41948136D01*
X66639025Y-41950056D01*
X66648118Y-41963701D01*
X66669872Y-41988807D01*
X66717102Y-42081502D01*
X66837415Y-42247101D01*
X66982173Y-42391859D01*
X67089017Y-42469484D01*
X67147777Y-42512175D01*
X67248596Y-42563545D01*
X67330163Y-42605106D01*
X67330165Y-42605106D01*
X67330168Y-42605108D01*
X67434524Y-42639015D01*
X67524852Y-42668365D01*
X67625944Y-42684376D01*
X67727035Y-42700388D01*
X67727036Y-42700388D01*
X67931738Y-42700388D01*
X67931739Y-42700388D01*
X68133921Y-42668365D01*
X68328606Y-42605108D01*
X68510997Y-42512175D01*
X68609022Y-42440956D01*
X68676600Y-42391859D01*
X68676602Y-42391856D01*
X68676606Y-42391854D01*
X68821353Y-42247107D01*
X68821355Y-42247103D01*
X68821358Y-42247101D01*
X68912667Y-42121423D01*
X68941674Y-42081498D01*
X69034607Y-41899107D01*
X69097864Y-41704422D01*
X69129887Y-41502240D01*
X69129887Y-41297536D01*
X69097864Y-41095354D01*
X69097244Y-41093447D01*
X69034605Y-40900664D01*
X68988902Y-40810968D01*
X68941674Y-40718278D01*
X68933943Y-40707637D01*
X68821358Y-40552674D01*
X68676600Y-40407916D01*
X68511000Y-40287603D01*
X68510999Y-40287602D01*
X68510997Y-40287601D01*
X68454040Y-40258579D01*
X68328610Y-40194669D01*
X68133921Y-40131410D01*
X67959382Y-40103766D01*
X67931739Y-40099388D01*
X67727035Y-40099388D01*
X67702716Y-40103239D01*
X67524852Y-40131410D01*
X67330163Y-40194669D01*
X67147773Y-40287603D01*
X66982173Y-40407916D01*
X66837415Y-40552674D01*
X66717102Y-40718274D01*
X66669872Y-40810968D01*
X66621897Y-40861764D01*
X66554076Y-40878559D01*
X66487941Y-40856022D01*
X66448902Y-40810968D01*
X66448270Y-40809728D01*
X66401674Y-40718278D01*
X66393943Y-40707637D01*
X66281358Y-40552674D01*
X66136600Y-40407916D01*
X65971000Y-40287603D01*
X65970999Y-40287602D01*
X65970997Y-40287601D01*
X65914040Y-40258579D01*
X65788610Y-40194669D01*
X65593921Y-40131410D01*
X65419382Y-40103766D01*
X65391739Y-40099388D01*
X65187035Y-40099388D01*
X65162716Y-40103239D01*
X64984852Y-40131410D01*
X64790163Y-40194669D01*
X64607773Y-40287603D01*
X64442173Y-40407916D01*
X64297415Y-40552674D01*
X64177102Y-40718274D01*
X64084168Y-40900664D01*
X64020909Y-41095353D01*
X63988887Y-41297536D01*
X63988887Y-41502239D01*
X64020909Y-41704422D01*
X64084168Y-41899111D01*
X64177102Y-42081501D01*
X64297415Y-42247101D01*
X64442171Y-42391857D01*
X64486386Y-42423980D01*
X64509752Y-42440956D01*
X64552419Y-42496285D01*
X64558485Y-42517083D01*
X64567727Y-42563545D01*
X64567729Y-42563553D01*
X64624300Y-42700128D01*
X64624302Y-42700131D01*
X64624303Y-42700133D01*
X64634513Y-42715413D01*
X64644589Y-42730493D01*
X64706430Y-42823048D01*
X64706434Y-42823053D01*
X82046976Y-60163595D01*
X82077225Y-60212956D01*
X82090898Y-60255037D01*
X82149649Y-60370340D01*
X82165965Y-60402363D01*
X82183834Y-60437431D01*
X82304147Y-60603031D01*
X82448905Y-60747789D01*
X82553288Y-60823626D01*
X82614509Y-60868105D01*
X82705959Y-60914701D01*
X82707199Y-60915333D01*
X82757995Y-60963308D01*
X82774790Y-61031129D01*
X82752253Y-61097264D01*
X82707199Y-61136303D01*
X82614505Y-61183533D01*
X82448905Y-61303846D01*
X82304151Y-61448600D01*
X82304147Y-61448605D01*
X82271019Y-61494203D01*
X82215690Y-61536869D01*
X82170701Y-61545318D01*
X59630262Y-61545318D01*
X59485274Y-61574158D01*
X59485264Y-61574161D01*
X59348693Y-61630730D01*
X59348680Y-61630737D01*
X59225766Y-61712866D01*
X59225762Y-61712869D01*
X52962181Y-67976451D01*
X52900858Y-68009936D01*
X52831166Y-68004952D01*
X52775233Y-67963080D01*
X52750816Y-67897616D01*
X52750500Y-67888770D01*
X52750500Y-62192908D01*
X52721659Y-62047921D01*
X52721658Y-62047920D01*
X52721658Y-62047916D01*
X52721656Y-62047911D01*
X52665087Y-61911340D01*
X52665080Y-61911327D01*
X52582952Y-61788414D01*
X52567729Y-61773191D01*
X52478416Y-61683878D01*
X38565601Y-47771063D01*
X38532116Y-47709740D01*
X38530809Y-47663985D01*
X38539628Y-47608309D01*
X38539628Y-47403605D01*
X38507605Y-47201423D01*
X38444348Y-47006738D01*
X38444346Y-47006735D01*
X38444346Y-47006733D01*
X38410631Y-46940564D01*
X38351415Y-46824347D01*
X38343684Y-46813706D01*
X38231099Y-46658743D01*
X38086341Y-46513985D01*
X37920742Y-46393672D01*
X37914134Y-46390305D01*
X37828045Y-46346440D01*
X37777251Y-46298468D01*
X37760456Y-46230647D01*
X37782993Y-46164512D01*
X37828045Y-46125473D01*
X37920738Y-46078244D01*
X37941898Y-46062870D01*
X38086341Y-45957928D01*
X38086343Y-45957925D01*
X38086347Y-45957923D01*
X38231094Y-45813176D01*
X38231096Y-45813172D01*
X38231099Y-45813170D01*
X38283860Y-45740547D01*
X38351415Y-45647567D01*
X38444348Y-45465176D01*
X38507605Y-45270491D01*
X38539628Y-45068309D01*
X38539628Y-44863605D01*
X38507605Y-44661423D01*
X38444348Y-44466738D01*
X38444346Y-44466735D01*
X38444346Y-44466733D01*
X38410631Y-44400564D01*
X38351415Y-44284347D01*
X38343684Y-44273706D01*
X38231099Y-44118743D01*
X38086341Y-43973985D01*
X37920742Y-43853672D01*
X37914134Y-43850305D01*
X37828045Y-43806440D01*
X37777251Y-43758468D01*
X37760456Y-43690647D01*
X37782993Y-43624512D01*
X37828045Y-43585473D01*
X37920738Y-43538244D01*
X37941898Y-43522870D01*
X38086341Y-43417928D01*
X38086343Y-43417925D01*
X38086347Y-43417923D01*
X38231094Y-43273176D01*
X38231096Y-43273172D01*
X38231099Y-43273170D01*
X38283860Y-43200547D01*
X38351415Y-43107567D01*
X38444348Y-42925176D01*
X38507605Y-42730491D01*
X38539628Y-42528309D01*
X38539628Y-42323605D01*
X38507605Y-42121423D01*
X38444348Y-41926738D01*
X38444346Y-41926735D01*
X38444346Y-41926733D01*
X38410631Y-41860564D01*
X38351415Y-41744347D01*
X38315422Y-41694806D01*
X38231099Y-41578743D01*
X38086341Y-41433985D01*
X37920742Y-41313672D01*
X37889073Y-41297536D01*
X37828045Y-41266440D01*
X37777251Y-41218468D01*
X37760456Y-41150647D01*
X37782993Y-41084512D01*
X37828045Y-41045473D01*
X37920738Y-40998244D01*
X38055040Y-40900669D01*
X38086341Y-40877928D01*
X38086343Y-40877925D01*
X38086347Y-40877923D01*
X38231094Y-40733176D01*
X38231096Y-40733172D01*
X38231099Y-40733170D01*
X38283860Y-40660547D01*
X38351415Y-40567567D01*
X38444348Y-40385176D01*
X38507605Y-40190491D01*
X38539628Y-39988309D01*
X38539628Y-39783605D01*
X38507605Y-39581423D01*
X38444348Y-39386738D01*
X38444346Y-39386735D01*
X38444346Y-39386733D01*
X38410631Y-39320564D01*
X38351415Y-39204347D01*
X38343684Y-39193706D01*
X38231099Y-39038743D01*
X38086341Y-38893985D01*
X37920742Y-38773672D01*
X37914134Y-38770305D01*
X37828045Y-38726440D01*
X37777251Y-38678468D01*
X37760456Y-38610647D01*
X37782993Y-38544512D01*
X37828045Y-38505473D01*
X37920738Y-38458244D01*
X37941898Y-38442870D01*
X38086341Y-38337928D01*
X38086343Y-38337925D01*
X38086347Y-38337923D01*
X38231094Y-38193176D01*
X38231096Y-38193172D01*
X38231099Y-38193170D01*
X38283860Y-38120547D01*
X38351415Y-38027567D01*
X38444348Y-37845176D01*
X38507605Y-37650491D01*
X38539628Y-37448309D01*
X38539628Y-37243605D01*
X38507605Y-37041423D01*
X38444348Y-36846738D01*
X38444346Y-36846735D01*
X38444346Y-36846733D01*
X38410631Y-36780564D01*
X38351415Y-36664347D01*
X38343684Y-36653706D01*
X38231099Y-36498743D01*
X38086341Y-36353985D01*
X37920742Y-36233672D01*
X37914134Y-36230305D01*
X37828045Y-36186440D01*
X37777251Y-36138468D01*
X37760456Y-36070647D01*
X37782993Y-36004512D01*
X37828045Y-35965473D01*
X37920738Y-35918244D01*
X37941898Y-35902870D01*
X38086341Y-35797928D01*
X38086343Y-35797925D01*
X38086347Y-35797923D01*
X38231094Y-35653176D01*
X38231096Y-35653172D01*
X38231099Y-35653170D01*
X38283860Y-35580547D01*
X38351415Y-35487567D01*
X38444348Y-35305176D01*
X38507605Y-35110491D01*
X38539628Y-34908309D01*
X38539628Y-34703605D01*
X38507605Y-34501423D01*
X38487568Y-34439757D01*
X38444346Y-34306733D01*
X38410631Y-34240564D01*
X38351415Y-34124347D01*
X38343684Y-34113706D01*
X38231099Y-33958743D01*
X38086341Y-33813985D01*
X37920742Y-33693672D01*
X37914134Y-33690305D01*
X37828045Y-33646440D01*
X37777251Y-33598468D01*
X37771749Y-33576248D01*
X91284754Y-33576248D01*
X91323202Y-33769534D01*
X91323205Y-33769544D01*
X91398619Y-33951612D01*
X91398626Y-33951625D01*
X91508115Y-34115486D01*
X91508118Y-34115490D01*
X91647469Y-34254841D01*
X91647473Y-34254844D01*
X91811334Y-34364333D01*
X91811347Y-34364340D01*
X91993415Y-34439754D01*
X91993420Y-34439756D01*
X91993424Y-34439756D01*
X91993425Y-34439757D01*
X92186711Y-34478205D01*
X92186714Y-34478205D01*
X92383798Y-34478205D01*
X92513837Y-34452337D01*
X92577090Y-34439756D01*
X92759169Y-34364337D01*
X92923037Y-34254844D01*
X93062394Y-34115487D01*
X93171887Y-33951619D01*
X93247306Y-33769540D01*
X93271792Y-33646442D01*
X93285755Y-33576248D01*
X93285755Y-33379161D01*
X93247307Y-33185875D01*
X93247306Y-33185874D01*
X93247306Y-33185870D01*
X93247304Y-33185865D01*
X93171890Y-33003797D01*
X93171883Y-33003784D01*
X93062394Y-32839923D01*
X93062391Y-32839919D01*
X92923040Y-32700568D01*
X92923036Y-32700565D01*
X92759175Y-32591076D01*
X92759162Y-32591069D01*
X92577094Y-32515655D01*
X92577084Y-32515652D01*
X92383798Y-32477205D01*
X92383796Y-32477205D01*
X92186714Y-32477205D01*
X92186712Y-32477205D01*
X91993425Y-32515652D01*
X91993415Y-32515655D01*
X91811347Y-32591069D01*
X91811334Y-32591076D01*
X91647473Y-32700565D01*
X91647469Y-32700568D01*
X91508118Y-32839919D01*
X91508115Y-32839923D01*
X91398626Y-33003784D01*
X91398619Y-33003797D01*
X91323205Y-33185865D01*
X91323202Y-33185875D01*
X91284755Y-33379161D01*
X91284755Y-33379164D01*
X91284755Y-33576246D01*
X91284755Y-33576248D01*
X91284754Y-33576248D01*
X37771749Y-33576248D01*
X37760456Y-33530647D01*
X37782993Y-33464512D01*
X37828045Y-33425473D01*
X37920738Y-33378244D01*
X38086347Y-33257923D01*
X38231094Y-33113176D01*
X38231096Y-33113172D01*
X38231099Y-33113170D01*
X38310571Y-33003784D01*
X38351415Y-32947567D01*
X38444348Y-32765176D01*
X38507605Y-32570491D01*
X38539628Y-32368309D01*
X38539628Y-32163605D01*
X38507605Y-31961423D01*
X38444348Y-31766738D01*
X38444346Y-31766735D01*
X38444346Y-31766733D01*
X38410631Y-31700564D01*
X38351415Y-31584347D01*
X38343684Y-31573706D01*
X38231099Y-31418743D01*
X38086341Y-31273985D01*
X37920741Y-31153672D01*
X37920740Y-31153671D01*
X37920738Y-31153670D01*
X37863781Y-31124648D01*
X37738351Y-31060738D01*
X37543662Y-30997479D01*
X37369123Y-30969835D01*
X37341480Y-30965457D01*
X37136776Y-30965457D01*
X37112457Y-30969308D01*
X36934593Y-30997479D01*
X36739904Y-31060738D01*
X36557514Y-31153672D01*
X36391914Y-31273985D01*
X36247156Y-31418743D01*
X36126843Y-31584343D01*
X36033909Y-31766733D01*
X35970650Y-31961422D01*
X35938628Y-32163605D01*
X35220500Y-32163605D01*
X35220500Y-29744500D01*
X35240185Y-29677461D01*
X35292989Y-29631706D01*
X35344500Y-29620500D01*
X96095500Y-29620500D01*
X96162539Y-29640185D01*
G37*
%TD.AperFunction*%
%TD*%
M02*
