%TF.GenerationSoftware,KiCad,Pcbnew,9.0.5*%
%TF.CreationDate,2025-11-14T12:22:43-06:00*%
%TF.ProjectId,PCBEmbebidos,50434245-6d62-4656-9269-646f732e6b69,rev?*%
%TF.SameCoordinates,Original*%
%TF.FileFunction,Soldermask,Bot*%
%TF.FilePolarity,Negative*%
%FSLAX46Y46*%
G04 Gerber Fmt 4.6, Leading zero omitted, Abs format (unit mm)*
G04 Created by KiCad (PCBNEW 9.0.5) date 2025-11-14 12:22:43*
%MOMM*%
%LPD*%
G01*
G04 APERTURE LIST*
%ADD10O,1.600000X1.600000*%
%ADD11C,3.000000*%
%ADD12C,1.552000*%
G04 APERTURE END LIST*
D10*
%TO.C,Encoder1*%
X63525957Y-110600872D03*
X66100000Y-110620000D03*
X68600000Y-110620000D03*
X71140000Y-110620000D03*
X73680000Y-110620000D03*
X76220000Y-110620000D03*
%TD*%
%TO.C,battery1*%
X86040000Y-98120000D03*
X83500000Y-98120000D03*
%TD*%
D11*
%TO.C,stm1*%
X43932152Y-108619160D03*
X75567581Y-84507074D03*
X89494061Y-108618679D03*
D10*
X42657866Y-61670840D03*
X42657866Y-64210840D03*
X42657866Y-69290840D03*
X42638738Y-71864883D03*
X42638738Y-74364883D03*
X42638738Y-76904883D03*
X42638738Y-79444883D03*
X42638738Y-81984883D03*
X42638738Y-84524883D03*
X42638738Y-87064883D03*
X42638738Y-89604883D03*
X42638738Y-92144883D03*
X42638738Y-94684883D03*
X42638738Y-97224883D03*
X45158190Y-97184055D03*
X42638738Y-99764883D03*
X45158190Y-99724055D03*
X42638738Y-102304883D03*
X45158190Y-102264055D03*
X42638738Y-104844883D03*
X45158190Y-104804055D03*
X90801262Y-69290352D03*
X90782134Y-81984395D03*
X90782134Y-92144395D03*
X90782134Y-104844395D03*
%TD*%
%TO.C,tja1*%
X83276991Y-69909861D03*
X83296119Y-67335818D03*
X83296119Y-64835818D03*
X83296119Y-62295818D03*
X83296119Y-59755818D03*
X83296119Y-57215818D03*
X83296119Y-54675818D03*
X83296119Y-52135818D03*
%TD*%
%TO.C,mpu1*%
X37220000Y-55120000D03*
X37239128Y-52545957D03*
X37239128Y-50045957D03*
X37239128Y-47505957D03*
X37239128Y-44965957D03*
X37239128Y-42425957D03*
X37239128Y-39885957D03*
X37239128Y-37345957D03*
X37239128Y-34805957D03*
X37239128Y-32265957D03*
%TD*%
%TO.C,Servo1*%
X94413682Y-79065246D03*
X94413682Y-76525246D03*
X94413682Y-73985246D03*
%TD*%
%TO.C,ESC2*%
X86000000Y-108000000D03*
X83460000Y-108000000D03*
X56000000Y-102000000D03*
X56000000Y-102000000D03*
X53460000Y-102000000D03*
X53460000Y-102000000D03*
X50920000Y-102000000D03*
X61000000Y-102000000D03*
X58460000Y-102000000D03*
%TD*%
%TO.C,Regulador1*%
X87456433Y-87906776D03*
X89996433Y-87906776D03*
X92536433Y-87906776D03*
%TD*%
%TO.C,bat1*%
X94422198Y-85111555D03*
X94422198Y-82571555D03*
%TD*%
D12*
%TO.C,U1*%
X56840000Y-90240000D03*
X59380000Y-90240000D03*
X61920000Y-90240000D03*
X64460000Y-90240000D03*
X69540000Y-90240000D03*
X67000000Y-90240000D03*
X74620000Y-75000000D03*
X74620000Y-90240000D03*
X72080000Y-75000000D03*
X69540000Y-75000000D03*
X67000000Y-75000000D03*
X64460000Y-75000000D03*
X61920000Y-75000000D03*
X59380000Y-75000000D03*
X56840000Y-75000000D03*
X72080000Y-90240000D03*
%TD*%
D10*
%TO.C,MCP1*%
X59160445Y-69740827D03*
X61734488Y-69759955D03*
X64234488Y-69759955D03*
X66774488Y-69759955D03*
X69314488Y-69759955D03*
X71854488Y-69759955D03*
X74394488Y-69759955D03*
X65289387Y-41399888D03*
X67829387Y-41399888D03*
%TD*%
M02*
