M48
; DRILL file {KiCad 9.0.5} date 2025-11-14T12:22:40-0600
; FORMAT={-:-/ absolute / inch / decimal}
; #@! TF.CreationDate,2025-11-14T12:22:40-06:00
; #@! TF.GenerationSoftware,Kicad,Pcbnew,9.0.5
; #@! TF.FileFunction,Plated,1,2,PTH
FMAT,2
INCH
; #@! TA.AperFunction,Plated,PTH,ViaDrill
T1C0.0118
; #@! TA.AperFunction,Plated,PTH,ComponentDrill
T2C0.0331
; #@! TA.AperFunction,Plated,PTH,ComponentDrill
T3C0.0394
%
G90
G05
T1
X2.0079Y-2.7559
X2.0472Y-3.0339
X2.0472Y-3.8189
X2.4409Y-3.2677
X2.8346Y-3.8189
X2.9921Y-2.6378
T2
X2.2378Y-2.9528
X2.2378Y-3.5528
X2.3378Y-2.9528
X2.3378Y-3.5528
X2.4378Y-2.9528
X2.4378Y-3.5528
X2.5378Y-2.9528
X2.5378Y-3.5528
X2.6378Y-2.9528
X2.6378Y-3.5528
X2.7378Y-2.9528
X2.7378Y-3.5528
X2.8378Y-2.9528
X2.8378Y-3.5528
X2.9378Y-2.9528
X2.9378Y-3.5528
T3
X1.4654Y-2.1701
X1.4661Y-1.2703
X1.4661Y-1.3703
X1.4661Y-1.4703
X1.4661Y-1.5703
X1.4661Y-1.6703
X1.4661Y-1.7703
X1.4661Y-1.8703
X1.4661Y-1.9703
X1.4661Y-2.0687
X1.6787Y-2.8293
X1.6787Y-2.9278
X1.6787Y-3.0278
X1.6787Y-3.1278
X1.6787Y-3.2278
X1.6787Y-3.3278
X1.6787Y-3.4278
X1.6787Y-3.5278
X1.6787Y-3.6278
X1.6787Y-3.7278
X1.6787Y-3.8278
X1.6787Y-3.9278
X1.6787Y-4.0278
X1.6787Y-4.1278
X1.6794Y-2.428
X1.6794Y-2.528
X1.6794Y-2.728
X1.7779Y-3.8261
X1.7779Y-3.9261
X1.7779Y-4.0261
X1.7779Y-4.1261
X2.0047Y-4.0157
X2.1047Y-4.0157
X2.1047Y-4.0157
X2.2047Y-4.0157
X2.2047Y-4.0157
X2.3016Y-4.0157
X2.3292Y-2.7457
X2.4016Y-4.0157
X2.4305Y-2.7465
X2.501Y-4.3544
X2.5289Y-2.7465
X2.5704Y-1.6299
X2.6024Y-4.3551
X2.6289Y-2.7465
X2.6704Y-1.6299
X2.7008Y-4.3551
X2.7289Y-2.7465
X2.8008Y-4.3551
X2.8289Y-2.7465
X2.9008Y-4.3551
X2.9289Y-2.7465
X3.0008Y-4.3551
X3.2786Y-2.7524
X3.2794Y-2.0526
X3.2794Y-2.1526
X3.2794Y-2.2526
X3.2794Y-2.3526
X3.2794Y-2.4526
X3.2794Y-2.5526
X3.2794Y-2.651
X3.2858Y-4.252
X3.2874Y-3.863
X3.3858Y-4.252
X3.3874Y-3.863
X3.4432Y-3.4609
X3.5432Y-3.4609
X3.5741Y-3.2277
X3.5741Y-3.6277
X3.5741Y-4.1277
X3.5749Y-2.728
X3.6432Y-3.4609
X3.7171Y-2.9128
X3.7171Y-3.0128
X3.7171Y-3.1128
X3.7174Y-3.2508
X3.7174Y-3.3508
M30
